TiroTamil-Italic.ufo
<glyph name="dUdatta" format="2">
  <unicode hex="0951"/>
  <outline>
    <contour>
      <point x="-266" y="600" type="line"/>
      <point x="-218" y="848" type="line"/>
      <point x="-268" y="848" type="line"/>
      <point x="-316" y="600" type="line"/>
    </contour>
  </outline>
  <guideline angle="0" x="0" y="0"/>
</glyph>
<glyph name="dAnudatta" format="2">
  <unicode hex="0952"/>
  <outline>
    <contour>
      <point x="-188" y="-252" type="line"/>
      <point x="-178" y="-203" type="line"/>
      <point x="-715" y="-203" type="line"/>
      <point x="-725" y="-252" type="line"/>
    </contour>
  </outline>
</glyph>
<glyph name="Danda" format="2">
  <advance width="255"/>
  <unicode hex="0964"/>
  <outline>
    <contour>
      <point x="25" y="-60" type="line"/>
      <point x="110" y="-60" type="line"/>
      <point x="235" y="582" type="line"/>
      <point x="150" y="582" type="line"/>
    </contour>
  </outline>
</glyph>
<glyph name="DoubleDanda" format="2">
  <advance width="455"/>
  <unicode hex="0965"/>
  <outline>
    <contour>
      <point x="25" y="-60" type="line"/>
      <point x="110" y="-60" type="line"/>
      <point x="235" y="582" type="line"/>
      <point x="150" y="582" type="line"/>
    </contour>
    <contour>
      <point x="225" y="-60" type="line"/>
      <point x="310" y="-60" type="line"/>
      <point x="435" y="582" type="line"/>
      <point x="350" y="582" type="line"/>
    </contour>
  </outline>
</glyph>
<glyph name="t.Anusvara" format="2">
  <unicode hex="0B82"/>
  <outline>
    <contour>
      <point x="-284" y="595" type="curve" smooth="yes"/>
      <point x="-219" y="595"/>
      <point x="-171" y="643"/>
      <point x="-171" y="703" type="curve" smooth="yes"/>
      <point x="-171" y="754"/>
      <point x="-207" y="789"/>
      <point x="-262" y="789" type="curve" smooth="yes"/>
      <point x="-327" y="789"/>
      <point x="-376" y="741"/>
      <point x="-376" y="681" type="curve" smooth="yes"/>
      <point x="-376" y="630"/>
      <point x="-340" y="595"/>
    </contour>
    <contour>
      <point x="-282" y="640" type="curve" smooth="yes"/>
      <point x="-308" y="640"/>
      <point x="-326" y="659"/>
      <point x="-326" y="687" type="curve" smooth="yes"/>
      <point x="-326" y="722"/>
      <point x="-297" y="744"/>
      <point x="-265" y="744" type="curve" smooth="yes"/>
      <point x="-239" y="744"/>
      <point x="-221" y="725"/>
      <point x="-221" y="697" type="curve" smooth="yes"/>
      <point x="-221" y="662"/>
      <point x="-250" y="640"/>
    </contour>
  </outline>
  <guideline angle="0" x="0" y="0"/>
</glyph>
<glyph name="t.Visarga" format="2">
  <advance width="890"/>
  <unicode hex="0B83"/>
  <outline>
    <contour>
      <point x="483" y="435" type="curve" smooth="yes"/>
      <point x="594" y="435"/>
      <point x="681" y="535"/>
      <point x="681" y="639" type="curve" smooth="yes"/>
      <point x="681" y="727"/>
      <point x="621" y="798"/>
      <point x="529" y="798" type="curve" smooth="yes"/>
      <point x="423" y="798"/>
      <point x="332" y="705"/>
      <point x="332" y="595" type="curve" smooth="yes"/>
      <point x="332" y="510"/>
      <point x="388" y="435"/>
    </contour>
    <contour>
      <point x="182" y="41" type="curve" smooth="yes"/>
      <point x="129" y="41"/>
      <point x="99" y="86"/>
      <point x="99" y="143" type="curve" smooth="yes"/>
      <point x="99" y="223"/>
      <point x="159" y="284"/>
      <point x="223" y="284" type="curve" smooth="yes"/>
      <point x="274" y="284"/>
      <point x="304" y="241"/>
      <point x="304" y="184" type="curve" smooth="yes"/>
      <point x="304" y="101"/>
      <point x="244" y="41"/>
    </contour>
    <contour>
      <point x="190" y="-19" type="curve" smooth="yes"/>
      <point x="301" y="-19"/>
      <point x="388" y="81"/>
      <point x="388" y="185" type="curve" smooth="yes"/>
      <point x="388" y="273"/>
      <point x="328" y="344"/>
      <point x="236" y="344" type="curve" smooth="yes"/>
      <point x="130" y="344"/>
      <point x="39" y="251"/>
      <point x="39" y="141" type="curve" smooth="yes"/>
      <point x="39" y="56"/>
      <point x="95" y="-19"/>
    </contour>
    <contour>
      <point x="612" y="41" type="curve" smooth="yes"/>
      <point x="559" y="41"/>
      <point x="529" y="86"/>
      <point x="529" y="143" type="curve" smooth="yes"/>
      <point x="529" y="223"/>
      <point x="589" y="284"/>
      <point x="653" y="284" type="curve" smooth="yes"/>
      <point x="704" y="284"/>
      <point x="734" y="241"/>
      <point x="734" y="184" type="curve" smooth="yes"/>
      <point x="734" y="101"/>
      <point x="674" y="41"/>
    </contour>
    <contour>
      <point x="620" y="-19" type="curve" smooth="yes"/>
      <point x="731" y="-19"/>
      <point x="818" y="81"/>
      <point x="818" y="185" type="curve" smooth="yes"/>
      <point x="818" y="273"/>
      <point x="758" y="344"/>
      <point x="666" y="344" type="curve" smooth="yes"/>
      <point x="560" y="344"/>
      <point x="469" y="251"/>
      <point x="469" y="141" type="curve" smooth="yes"/>
      <point x="469" y="56"/>
      <point x="525" y="-19"/>
    </contour>
    <contour>
      <point x="475" y="495" type="curve" smooth="yes"/>
      <point x="422" y="495"/>
      <point x="392" y="540"/>
      <point x="392" y="597" type="curve" smooth="yes"/>
      <point x="392" y="677"/>
      <point x="452" y="738"/>
      <point x="516" y="738" type="curve" smooth="yes"/>
      <point x="567" y="738"/>
      <point x="597" y="695"/>
      <point x="597" y="638" type="curve" smooth="yes"/>
      <point x="597" y="555"/>
      <point x="537" y="495"/>
    </contour>
  </outline>
</glyph>
<glyph name="t.A" format="2">
  <advance width="1178"/>
  <unicode hex="0B85"/>
  <outline>
    <contour>
      <point x="339" y="-75" type="curve" smooth="yes"/>
      <point x="656" y="-75"/>
      <point x="868" y="103"/>
      <point x="868" y="335" type="curve" smooth="yes"/>
      <point x="868" y="467"/>
      <point x="780" y="534"/>
      <point x="656" y="534" type="curve" smooth="yes"/>
      <point x="498" y="534"/>
      <point x="396" y="441"/>
      <point x="396" y="339" type="curve" smooth="yes"/>
      <point x="396" y="272"/>
      <point x="435" y="227"/>
      <point x="501" y="227" type="curve" smooth="yes"/>
      <point x="599" y="227"/>
      <point x="665" y="291"/>
      <point x="665" y="383" type="curve" smooth="yes"/>
      <point x="665" y="420"/>
      <point x="648" y="461"/>
      <point x="605" y="482" type="curve"/>
      <point x="624" y="508" type="line"/>
      <point x="518" y="474" type="line"/>
      <point x="552" y="464"/>
      <point x="581" y="428"/>
      <point x="581" y="379" type="curve" smooth="yes"/>
      <point x="581" y="327"/>
      <point x="549" y="291"/>
      <point x="502" y="291" type="curve" smooth="yes"/>
      <point x="470" y="291"/>
      <point x="450" y="316"/>
      <point x="450" y="353" type="curve" smooth="yes"/>
      <point x="450" y="406"/>
      <point x="496" y="450"/>
      <point x="542" y="466" type="curve"/>
      <point x="601" y="484"/>
      <point x="604" y="486"/>
      <point x="637" y="486" type="curve" smooth="yes"/>
      <point x="726" y="486"/>
      <point x="766" y="438"/>
      <point x="766" y="328" type="curve" smooth="yes"/>
      <point x="766" y="177"/>
      <point x="615" y="-28"/>
      <point x="342" y="-28" type="curve" smooth="yes"/>
      <point x="155" y="-28"/>
      <point x="78" y="57"/>
      <point x="78" y="99" type="curve" smooth="yes"/>
      <point x="78" y="114"/>
      <point x="84" y="121"/>
      <point x="105" y="121" type="curve" smooth="yes"/>
      <point x="965" y="121" type="line"/>
      <point x="975" y="170" type="line"/>
      <point x="91" y="170" type="line" smooth="yes"/>
      <point x="37" y="170"/>
      <point x="13" y="143"/>
      <point x="13" y="105" type="curve" smooth="yes"/>
      <point x="13" y="33"/>
      <point x="110" y="-75"/>
    </contour>
    <contour>
      <point x="996" y="-148" type="line"/>
      <point x="1126" y="522" type="line"/>
      <point x="1023" y="522" type="line"/>
      <point x="893" y="-148" type="line"/>
    </contour>
  </outline>
</glyph>
<glyph name="t.Aa" format="2">
  <advance width="1310"/>
  <unicode hex="0B86"/>
  <outline>
    <contour>
      <point x="339" y="-75" type="curve" smooth="yes"/>
      <point x="656" y="-75"/>
      <point x="868" y="103"/>
      <point x="868" y="335" type="curve" smooth="yes"/>
      <point x="868" y="467"/>
      <point x="780" y="534"/>
      <point x="656" y="534" type="curve" smooth="yes"/>
      <point x="498" y="534"/>
      <point x="396" y="441"/>
      <point x="396" y="339" type="curve" smooth="yes"/>
      <point x="396" y="272"/>
      <point x="435" y="227"/>
      <point x="501" y="227" type="curve" smooth="yes"/>
      <point x="599" y="227"/>
      <point x="665" y="291"/>
      <point x="665" y="383" type="curve" smooth="yes"/>
      <point x="665" y="420"/>
      <point x="648" y="461"/>
      <point x="605" y="482" type="curve"/>
      <point x="624" y="508" type="line"/>
      <point x="518" y="474" type="line"/>
      <point x="552" y="464"/>
      <point x="581" y="428"/>
      <point x="581" y="379" type="curve" smooth="yes"/>
      <point x="581" y="327"/>
      <point x="549" y="291"/>
      <point x="502" y="291" type="curve" smooth="yes"/>
      <point x="470" y="291"/>
      <point x="450" y="316"/>
      <point x="450" y="353" type="curve" smooth="yes"/>
      <point x="450" y="406"/>
      <point x="496" y="450"/>
      <point x="542" y="466" type="curve"/>
      <point x="601" y="484"/>
      <point x="604" y="486"/>
      <point x="637" y="486" type="curve" smooth="yes"/>
      <point x="726" y="486"/>
      <point x="766" y="438"/>
      <point x="766" y="328" type="curve" smooth="yes"/>
      <point x="766" y="177"/>
      <point x="615" y="-28"/>
      <point x="342" y="-28" type="curve" smooth="yes"/>
      <point x="155" y="-28"/>
      <point x="78" y="57"/>
      <point x="78" y="99" type="curve" smooth="yes"/>
      <point x="78" y="114"/>
      <point x="84" y="121"/>
      <point x="105" y="121" type="curve" smooth="yes"/>
      <point x="965" y="121" type="line"/>
      <point x="975" y="170" type="line"/>
      <point x="91" y="170" type="line" smooth="yes"/>
      <point x="37" y="170"/>
      <point x="13" y="143"/>
      <point x="13" y="105" type="curve" smooth="yes"/>
      <point x="13" y="33"/>
      <point x="110" y="-75"/>
    </contour>
    <contour>
      <point x="848" y="-310" type="curve" smooth="yes"/>
      <point x="1074" y="-310"/>
      <point x="1231" y="-204"/>
      <point x="1231" y="-63" type="curve" smooth="yes"/>
      <point x="1231" y="16"/>
      <point x="1186" y="68"/>
      <point x="1117" y="68" type="curve" smooth="yes"/>
      <point x="1090" y="68"/>
      <point x="1055" y="59"/>
      <point x="1033" y="35" type="curve"/>
      <point x="1004" y="35" type="line"/>
      <point x="1026" y="8" type="line"/>
      <point x="1126" y="522" type="line"/>
      <point x="1023" y="522" type="line"/>
      <point x="893" y="-148" type="line"/>
      <point x="996" y="-148" type="line"/>
      <point x="1010" y="-77" type="line" smooth="yes"/>
      <point x="1022" y="-17"/>
      <point x="1055" y="12"/>
      <point x="1090" y="12" type="curve" smooth="yes"/>
      <point x="1123" y="12"/>
      <point x="1139" y="-16"/>
      <point x="1139" y="-64" type="curve" smooth="yes"/>
      <point x="1139" y="-181"/>
      <point x="1025" y="-262"/>
      <point x="850" y="-262" type="curve" smooth="yes"/>
      <point x="711" y="-262"/>
      <point x="617" y="-231"/>
      <point x="617" y="-185" type="curve" smooth="yes"/>
      <point x="617" y="-154"/>
      <point x="651" y="-138"/>
      <point x="701" y="-138" type="curve" smooth="yes"/>
      <point x="739" y="-138"/>
      <point x="771" y="-142"/>
      <point x="810" y="-150" type="curve"/>
      <point x="827" y="-106" type="line"/>
      <point x="790" y="-96"/>
      <point x="755" y="-91"/>
      <point x="708" y="-91" type="curve" smooth="yes"/>
      <point x="617" y="-91"/>
      <point x="557" y="-127"/>
      <point x="557" y="-189" type="curve" smooth="yes"/>
      <point x="557" y="-261"/>
      <point x="674" y="-310"/>
    </contour>
  </outline>
</glyph>
<glyph name="t.I" format="2">
  <advance width="1165"/>
  <unicode hex="0B87"/>
  <outline>
    <contour>
      <point x="177" y="-292" type="curve" smooth="yes"/>
      <point x="500" y="-292"/>
      <point x="820" y="34"/>
      <point x="820" y="329" type="curve" smooth="yes"/>
      <point x="820" y="469"/>
      <point x="743" y="565"/>
      <point x="604" y="565" type="curve" smooth="yes"/>
      <point x="469" y="565"/>
      <point x="360" y="471"/>
      <point x="360" y="350" type="curve" smooth="yes"/>
      <point x="360" y="273"/>
      <point x="406" y="225"/>
      <point x="475" y="225" type="curve" smooth="yes"/>
      <point x="561" y="225"/>
      <point x="636" y="296"/>
      <point x="636" y="384" type="curve" smooth="yes"/>
      <point x="636" y="432"/>
      <point x="613" y="486"/>
      <point x="557" y="508" type="curve"/>
      <point x="562" y="536" type="line"/>
      <point x="483" y="494" type="line"/>
      <point x="531" y="485"/>
      <point x="552" y="436"/>
      <point x="552" y="386" type="curve" smooth="yes"/>
      <point x="552" y="325"/>
      <point x="518" y="282"/>
      <point x="473" y="282" type="curve" smooth="yes"/>
      <point x="440" y="282"/>
      <point x="413" y="308"/>
      <point x="413" y="358" type="curve" smooth="yes"/>
      <point x="413" y="453"/>
      <point x="505" y="517"/>
      <point x="593" y="517" type="curve" smooth="yes"/>
      <point x="689" y="517"/>
      <point x="741" y="437"/>
      <point x="741" y="331" type="curve" smooth="yes"/>
      <point x="741" y="65"/>
      <point x="409" y="-235"/>
      <point x="181" y="-235" type="curve" smooth="yes"/>
      <point x="97" y="-235"/>
      <point x="60" y="-204"/>
      <point x="60" y="-153" type="curve" smooth="yes"/>
      <point x="60" y="-37"/>
      <point x="249" y="57"/>
      <point x="452" y="57" type="curve" smooth="yes"/>
      <point x="602" y="57"/>
      <point x="754" y="0"/>
      <point x="754" y="-112" type="curve" smooth="yes"/>
      <point x="754" y="-177"/>
      <point x="700" y="-227"/>
      <point x="611" y="-227" type="curve" smooth="yes"/>
      <point x="367" y="-227"/>
      <point x="156" y="37"/>
      <point x="156" y="317" type="curve" smooth="yes"/>
      <point x="156" y="572"/>
      <point x="377" y="776"/>
      <point x="661" y="776" type="curve" smooth="yes"/>
      <point x="891" y="776"/>
      <point x="1034" y="657"/>
      <point x="1034" y="397" type="curve" smooth="yes"/>
      <point x="1034" y="243"/>
      <point x="991" y="129"/>
      <point x="892" y="-283" type="curve"/>
      <point x="946" y="-283" type="line"/>
      <point x="1058" y="172"/>
      <point x="1097" y="278"/>
      <point x="1097" y="428" type="curve" smooth="yes"/>
      <point x="1097" y="699"/>
      <point x="957" y="858"/>
      <point x="676" y="858" type="curve" smooth="yes"/>
      <point x="350" y="858"/>
      <point x="96" y="618"/>
      <point x="96" y="317" type="curve" smooth="yes"/>
      <point x="96" y="-18"/>
      <point x="375" y="-292"/>
      <point x="619" y="-292" type="curve" smooth="yes"/>
      <point x="756" y="-292"/>
      <point x="835" y="-212"/>
      <point x="835" y="-116" type="curve" smooth="yes"/>
      <point x="835" y="32"/>
      <point x="653" y="107"/>
      <point x="458" y="107" type="curve" smooth="yes"/>
      <point x="249" y="107"/>
      <point x="4" y="9"/>
      <point x="4" y="-160" type="curve" smooth="yes"/>
      <point x="4" y="-239"/>
      <point x="69" y="-292"/>
    </contour>
  </outline>
</glyph>
<glyph name="t.Ii" format="2">
  <advance width="759"/>
  <unicode hex="0B88"/>
  <outline>
    <contour>
      <point x="121" y="0" type="line"/>
      <point x="213" y="473" type="line"/>
      <point x="740" y="473" type="line"/>
      <point x="749" y="522" type="line"/>
      <point x="158" y="522" type="line"/>
      <point x="57" y="0" type="line"/>
    </contour>
    <contour>
      <point x="285" y="194" type="curve" smooth="yes"/>
      <point x="324" y="194"/>
      <point x="353" y="225"/>
      <point x="353" y="262" type="curve" smooth="yes"/>
      <point x="353" y="296"/>
      <point x="331" y="318"/>
      <point x="296" y="318" type="curve" smooth="yes"/>
      <point x="258" y="318"/>
      <point x="227" y="288"/>
      <point x="227" y="251" type="curve" smooth="yes"/>
      <point x="227" y="217"/>
      <point x="250" y="194"/>
    </contour>
    <contour>
      <point x="463" y="0" type="line"/>
      <point x="559" y="493" type="line"/>
      <point x="456" y="493" type="line"/>
      <point x="360" y="0" type="line"/>
    </contour>
    <contour>
      <point x="627" y="194" type="curve" smooth="yes"/>
      <point x="666" y="194"/>
      <point x="695" y="225"/>
      <point x="695" y="262" type="curve" smooth="yes"/>
      <point x="695" y="296"/>
      <point x="673" y="318"/>
      <point x="638" y="318" type="curve" smooth="yes"/>
      <point x="600" y="318"/>
      <point x="569" y="288"/>
      <point x="569" y="251" type="curve" smooth="yes"/>
      <point x="569" y="217"/>
      <point x="592" y="194"/>
    </contour>
  </outline>
</glyph>
<glyph name="t.U" format="2">
  <advance width="1003"/>
  <unicode hex="0B89"/>
  <outline>
    <contour>
      <point x="933" y="0" type="line"/>
      <point x="943" y="49" type="line"/>
      <point x="158" y="49" type="line" smooth="yes"/>
      <point x="125" y="49"/>
      <point x="104" y="66"/>
      <point x="104" y="94" type="curve" smooth="yes"/>
      <point x="104" y="125"/>
      <point x="137" y="137"/>
      <point x="171" y="137" type="curve" smooth="yes"/>
      <point x="370" y="137" type="line" smooth="yes"/>
      <point x="549" y="137"/>
      <point x="656" y="220"/>
      <point x="656" y="354" type="curve" smooth="yes"/>
      <point x="656" y="462"/>
      <point x="564" y="534"/>
      <point x="426" y="534" type="curve" smooth="yes"/>
      <point x="257" y="534"/>
      <point x="166" y="452"/>
      <point x="166" y="350" type="curve" smooth="yes"/>
      <point x="166" y="285"/>
      <point x="202" y="239"/>
      <point x="271" y="239" type="curve" smooth="yes"/>
      <point x="351" y="239"/>
      <point x="418" y="300"/>
      <point x="418" y="385" type="curve" smooth="yes"/>
      <point x="418" y="424"/>
      <point x="400" y="462"/>
      <point x="370" y="483" type="curve"/>
      <point x="389" y="509" type="line"/>
      <point x="283" y="483" type="line"/>
      <point x="320" y="474"/>
      <point x="338" y="431"/>
      <point x="338" y="387" type="curve" smooth="yes"/>
      <point x="338" y="334"/>
      <point x="310" y="304"/>
      <point x="273" y="304" type="curve" smooth="yes"/>
      <point x="239" y="304"/>
      <point x="219" y="327"/>
      <point x="219" y="362" type="curve" smooth="yes"/>
      <point x="219" y="422"/>
      <point x="294" y="486"/>
      <point x="400" y="486" type="curve" smooth="yes"/>
      <point x="501" y="486"/>
      <point x="551" y="432"/>
      <point x="551" y="352" type="curve" smooth="yes"/>
      <point x="551" y="252"/>
      <point x="495" y="186"/>
      <point x="356" y="186" type="curve" smooth="yes"/>
      <point x="166" y="186" type="line" smooth="yes"/>
      <point x="87" y="186"/>
      <point x="28" y="147"/>
      <point x="28" y="87" type="curve" smooth="yes"/>
      <point x="28" y="34"/>
      <point x="63" y="0"/>
      <point x="136" y="0" type="curve" smooth="yes"/>
    </contour>
  </outline>
</glyph>
<glyph name="t.Uu" format="2">
  <advance width="1644"/>
  <unicode hex="0B8A"/>
  <outline>
    <contour>
      <point x="1528" y="0" type="line"/>
      <point x="1538" y="49" type="line"/>
      <point x="158" y="49" type="line" smooth="yes"/>
      <point x="125" y="49"/>
      <point x="104" y="66"/>
      <point x="104" y="94" type="curve" smooth="yes"/>
      <point x="104" y="125"/>
      <point x="137" y="137"/>
      <point x="171" y="137" type="curve" smooth="yes"/>
      <point x="359" y="137" type="line" smooth="yes"/>
      <point x="538" y="137"/>
      <point x="645" y="227"/>
      <point x="645" y="354" type="curve" smooth="yes"/>
      <point x="645" y="462"/>
      <point x="553" y="534"/>
      <point x="426" y="534" type="curve" smooth="yes"/>
      <point x="257" y="534"/>
      <point x="166" y="452"/>
      <point x="166" y="350" type="curve" smooth="yes"/>
      <point x="166" y="285"/>
      <point x="202" y="239"/>
      <point x="271" y="239" type="curve" smooth="yes"/>
      <point x="351" y="239"/>
      <point x="418" y="300"/>
      <point x="418" y="385" type="curve" smooth="yes"/>
      <point x="418" y="424"/>
      <point x="400" y="462"/>
      <point x="370" y="483" type="curve"/>
      <point x="389" y="509" type="line"/>
      <point x="283" y="483" type="line"/>
      <point x="320" y="474"/>
      <point x="338" y="431"/>
      <point x="338" y="387" type="curve" smooth="yes"/>
      <point x="338" y="334"/>
      <point x="310" y="304"/>
      <point x="273" y="304" type="curve" smooth="yes"/>
      <point x="239" y="304"/>
      <point x="219" y="327"/>
      <point x="219" y="362" type="curve" smooth="yes"/>
      <point x="219" y="422"/>
      <point x="294" y="486"/>
      <point x="400" y="486" type="curve" smooth="yes"/>
      <point x="490" y="486"/>
      <point x="540" y="432"/>
      <point x="540" y="352" type="curve" smooth="yes"/>
      <point x="540" y="259"/>
      <point x="484" y="186"/>
      <point x="345" y="186" type="curve" smooth="yes"/>
      <point x="166" y="186" type="line" smooth="yes"/>
      <point x="87" y="186"/>
      <point x="28" y="147"/>
      <point x="28" y="87" type="curve" smooth="yes"/>
      <point x="28" y="34"/>
      <point x="63" y="0"/>
      <point x="136" y="0" type="curve" smooth="yes"/>
    </contour>
    <contour>
      <point x="895" y="90" type="curve" smooth="yes"/>
      <point x="991" y="90"/>
      <point x="1077" y="154"/>
      <point x="1078" y="246" type="curve" smooth="yes"/>
      <point x="1079" y="326"/>
      <point x="1022" y="363"/>
      <point x="968" y="363" type="curve" smooth="yes"/>
      <point x="886" y="363"/>
      <point x="831" y="300"/>
      <point x="831" y="223" type="curve" smooth="yes"/>
      <point x="831" y="193"/>
      <point x="841" y="169"/>
      <point x="850" y="153" type="curve"/>
      <point x="832" y="129" type="line"/>
      <point x="912" y="123" type="line"/>
      <point x="896" y="149"/>
      <point x="884" y="179"/>
      <point x="884" y="220" type="curve" smooth="yes"/>
      <point x="884" y="261"/>
      <point x="911" y="300"/>
      <point x="952" y="300" type="curve" smooth="yes"/>
      <point x="981" y="300"/>
      <point x="998" y="278"/>
      <point x="998" y="241" type="curve" smooth="yes"/>
      <point x="998" y="183"/>
      <point x="955" y="144"/>
      <point x="892" y="144" type="curve" smooth="yes"/>
      <point x="823" y="144"/>
      <point x="779" y="189"/>
      <point x="779" y="284" type="curve" smooth="yes"/>
      <point x="779" y="389"/>
      <point x="860" y="480"/>
      <point x="1001" y="480" type="curve" smooth="yes"/>
      <point x="1084" y="480"/>
      <point x="1130" y="449"/>
      <point x="1154" y="407" type="curve" smooth="yes"/>
      <point x="1169" y="381"/>
      <point x="1174" y="354"/>
      <point x="1174" y="327" type="curve" smooth="yes"/>
      <point x="1174" y="299"/>
      <point x="1169" y="271"/>
      <point x="1163" y="243" type="curve" smooth="yes"/>
      <point x="1137" y="112" type="line"/>
      <point x="1240" y="112" type="line"/>
      <point x="1310" y="473" type="line"/>
      <point x="1623" y="473" type="line"/>
      <point x="1633" y="522" type="line"/>
      <point x="1269" y="522" type="line"/>
      <point x="1238" y="363" type="line"/>
      <point x="1270" y="389" type="line"/>
      <point x="1237" y="389" type="line"/>
      <point x="1206" y="487"/>
      <point x="1127" y="534"/>
      <point x="1013" y="534" type="curve" smooth="yes"/>
      <point x="834" y="534"/>
      <point x="717" y="418"/>
      <point x="717" y="276" type="curve" smooth="yes"/>
      <point x="717" y="160"/>
      <point x="795" y="90"/>
    </contour>
    <contour>
      <point x="1468" y="112" type="line"/>
      <point x="1542" y="493" type="line"/>
      <point x="1439" y="493" type="line"/>
      <point x="1365" y="112" type="line"/>
    </contour>
  </outline>
</glyph>
<glyph name="t.Ee" format="2">
  <advance width="909"/>
  <unicode hex="0B8F"/>
  <outline>
    <contour>
      <point x="266" y="-15" type="curve" smooth="yes"/>
      <point x="395" y="-15"/>
      <point x="479" y="78"/>
      <point x="479" y="188" type="curve" smooth="yes"/>
      <point x="479" y="268"/>
      <point x="426" y="319"/>
      <point x="354" y="319" type="curve" smooth="yes"/>
      <point x="258" y="319"/>
      <point x="190" y="244"/>
      <point x="190" y="139" type="curve" smooth="yes"/>
      <point x="190" y="95"/>
      <point x="203" y="69"/>
      <point x="204" y="66" type="curve"/>
      <point x="185" y="49" type="line"/>
      <point x="254" y="40" type="line"/>
      <point x="244" y="61"/>
      <point x="238" y="101"/>
      <point x="238" y="132" type="curve" smooth="yes"/>
      <point x="238" y="199"/>
      <point x="279" y="252"/>
      <point x="330" y="252" type="curve" smooth="yes"/>
      <point x="361" y="252"/>
      <point x="381" y="226"/>
      <point x="381" y="183" type="curve" smooth="yes"/>
      <point x="381" y="101"/>
      <point x="321" y="58"/>
      <point x="246" y="57" type="curve"/>
      <point x="204" y="63" type="line"/>
      <point x="153" y="82"/>
      <point x="121" y="138"/>
      <point x="121" y="206" type="curve" smooth="yes"/>
      <point x="121" y="348"/>
      <point x="232" y="463"/>
      <point x="422" y="472" type="curve"/>
      <point x="432" y="472"/>
      <point x="449" y="473"/>
      <point x="463" y="473" type="curve" smooth="yes"/>
      <point x="923" y="473" type="line"/>
      <point x="932" y="522" type="line"/>
      <point x="491" y="522" type="line" smooth="yes"/>
      <point x="479" y="522"/>
      <point x="460" y="521"/>
      <point x="443" y="521" type="curve" smooth="yes"/>
      <point x="216" y="521"/>
      <point x="62" y="387"/>
      <point x="62" y="205" type="curve" smooth="yes"/>
      <point x="62" y="68"/>
      <point x="150" y="-15"/>
    </contour>
    <contour>
      <point x="681" y="0" type="line"/>
      <point x="776" y="493" type="line"/>
      <point x="673" y="493" type="line"/>
      <point x="578" y="3" type="line"/>
      <point x="271" y="-149" type="line"/>
      <point x="259" y="-209" type="line"/>
    </contour>
  </outline>
</glyph>
<glyph name="t.Ai" format="2">
  <advance width="969"/>
  <unicode hex="0B90"/>
  <outline>
    <contour>
      <point x="196" y="-294" type="curve" smooth="yes"/>
      <point x="301" y="-294"/>
      <point x="377" y="-248"/>
      <point x="416" y="-183" type="curve"/>
      <point x="422" y="-183" type="line"/>
      <point x="437" y="-241"/>
      <point x="490" y="-292"/>
      <point x="604" y="-292" type="curve" smooth="yes"/>
      <point x="743" y="-292"/>
      <point x="839" y="-216"/>
      <point x="839" y="-96" type="curve" smooth="yes"/>
      <point x="839" y="-49"/>
      <point x="823" y="-7"/>
      <point x="798" y="24" type="curve"/>
      <point x="749" y="8" type="line"/>
      <point x="771" y="-26"/>
      <point x="782" y="-59"/>
      <point x="782" y="-94" type="curve" smooth="yes"/>
      <point x="782" y="-180"/>
      <point x="722" y="-243"/>
      <point x="619" y="-243" type="curve" smooth="yes"/>
      <point x="531" y="-243"/>
      <point x="481" y="-197"/>
      <point x="500" y="-103" type="curve" smooth="yes"/>
      <point x="519" y="-7" type="line"/>
      <point x="416" y="-7" type="line"/>
      <point x="401" y="-85" type="line" smooth="yes"/>
      <point x="384" y="-170"/>
      <point x="308" y="-246"/>
      <point x="217" y="-246" type="curve" smooth="yes"/>
      <point x="132" y="-246"/>
      <point x="93" y="-192"/>
      <point x="93" y="-117" type="curve" smooth="yes"/>
      <point x="93" y="33"/>
      <point x="246" y="51"/>
      <point x="301" y="57" type="curve" smooth="yes"/>
      <point x="523" y="81" type="line" smooth="yes"/>
      <point x="638" y="93"/>
      <point x="930" y="132"/>
      <point x="930" y="370" type="curve" smooth="yes"/>
      <point x="930" y="468"/>
      <point x="857" y="529"/>
      <point x="754" y="529" type="curve" smooth="yes"/>
      <point x="669" y="529"/>
      <point x="601" y="492"/>
      <point x="563" y="416" type="curve"/>
      <point x="557" y="416" type="line"/>
      <point x="537" y="484"/>
      <point x="478" y="534"/>
      <point x="347" y="534" type="curve" smooth="yes"/>
      <point x="191" y="534"/>
      <point x="83" y="443"/>
      <point x="83" y="320" type="curve" smooth="yes"/>
      <point x="83" y="230"/>
      <point x="149" y="166"/>
      <point x="234" y="166" type="curve" smooth="yes"/>
      <point x="330" y="166"/>
      <point x="403" y="227"/>
      <point x="403" y="320" type="curve" smooth="yes"/>
      <point x="403" y="378"/>
      <point x="364" y="417"/>
      <point x="304" y="417" type="curve" smooth="yes"/>
      <point x="239" y="417"/>
      <point x="185" y="369"/>
      <point x="185" y="283" type="curve" smooth="yes"/>
      <point x="185" y="263"/>
      <point x="191" y="240"/>
      <point x="200" y="226" type="curve"/>
      <point x="191" y="214" type="line"/>
      <point x="242" y="210" type="line"/>
      <point x="231" y="239"/>
      <point x="228" y="253"/>
      <point x="228" y="281" type="curve" smooth="yes"/>
      <point x="228" y="331"/>
      <point x="251" y="360"/>
      <point x="289" y="360" type="curve" smooth="yes"/>
      <point x="311" y="360"/>
      <point x="326" y="341"/>
      <point x="326" y="313" type="curve" smooth="yes"/>
      <point x="326" y="251"/>
      <point x="281" y="218"/>
      <point x="228" y="218" type="curve" smooth="yes"/>
      <point x="165" y="218"/>
      <point x="141" y="268"/>
      <point x="141" y="324" type="curve" smooth="yes"/>
      <point x="141" y="419"/>
      <point x="217" y="489"/>
      <point x="333" y="489" type="curve" smooth="yes"/>
      <point x="449" y="489"/>
      <point x="499" y="420"/>
      <point x="475" y="297" type="curve" smooth="yes"/>
      <point x="456" y="198" type="line"/>
      <point x="559" y="198" type="line"/>
      <point x="581" y="313" type="line" smooth="yes"/>
      <point x="604" y="433"/>
      <point x="664" y="481"/>
      <point x="739" y="481" type="curve" smooth="yes"/>
      <point x="791" y="481"/>
      <point x="826" y="439"/>
      <point x="826" y="369" type="curve" smooth="yes"/>
      <point x="826" y="166"/>
      <point x="645" y="141"/>
      <point x="522" y="128" type="curve" smooth="yes"/>
      <point x="288" y="103" type="line" smooth="yes"/>
      <point x="84" y="81"/>
      <point x="-12" y="-2"/>
      <point x="-12" y="-121" type="curve" smooth="yes"/>
      <point x="-12" y="-220"/>
      <point x="62" y="-294"/>
    </contour>
  </outline>
</glyph>
<glyph name="t.O" format="2">
  <advance width="1004"/>
  <unicode hex="0B92"/>
  <outline>
    <contour>
      <point x="641" y="-90" type="line"/>
      <point x="581" y="-65"/>
      <point x="534" y="-16"/>
      <point x="534" y="61" type="curve" smooth="yes"/>
      <point x="534" y="131"/>
      <point x="574" y="174"/>
      <point x="619" y="208" type="curve"/>
      <point x="623" y="205" type="line"/>
      <point x="605" y="176"/>
      <point x="593" y="138"/>
      <point x="593" y="97" type="curve" smooth="yes"/>
      <point x="593" y="36"/>
      <point x="633" y="-15"/>
      <point x="723" y="-15" type="curve" smooth="yes"/>
      <point x="837" y="-15"/>
      <point x="929" y="86"/>
      <point x="929" y="213" type="curve" smooth="yes"/>
      <point x="929" y="416"/>
      <point x="778" y="534"/>
      <point x="517" y="534" type="curve" smooth="yes"/>
      <point x="269" y="534"/>
      <point x="54" y="386"/>
      <point x="54" y="194" type="curve" smooth="yes"/>
      <point x="54" y="65"/>
      <point x="129" y="-15"/>
      <point x="245" y="-15" type="curve" smooth="yes"/>
      <point x="374" y="-15"/>
      <point x="458" y="78"/>
      <point x="458" y="188" type="curve" smooth="yes"/>
      <point x="458" y="268"/>
      <point x="405" y="319"/>
      <point x="333" y="319" type="curve" smooth="yes"/>
      <point x="235" y="319"/>
      <point x="169" y="244"/>
      <point x="169" y="139" type="curve" smooth="yes"/>
      <point x="169" y="95"/>
      <point x="182" y="69"/>
      <point x="183" y="66" type="curve"/>
      <point x="164" y="49" type="line"/>
      <point x="233" y="40" type="line"/>
      <point x="224" y="60"/>
      <point x="217" y="101"/>
      <point x="217" y="132" type="curve" smooth="yes"/>
      <point x="217" y="201"/>
      <point x="254" y="252"/>
      <point x="309" y="252" type="curve" smooth="yes"/>
      <point x="340" y="252"/>
      <point x="360" y="226"/>
      <point x="360" y="183" type="curve" smooth="yes"/>
      <point x="360" y="101"/>
      <point x="300" y="58"/>
      <point x="225" y="57" type="curve"/>
      <point x="183" y="63" type="line"/>
      <point x="132" y="82"/>
      <point x="113" y="135"/>
      <point x="113" y="195" type="curve" smooth="yes"/>
      <point x="113" y="348"/>
      <point x="301" y="479"/>
      <point x="510" y="479" type="curve" smooth="yes"/>
      <point x="713" y="479"/>
      <point x="830" y="387"/>
      <point x="830" y="204" type="curve" smooth="yes"/>
      <point x="830" y="114"/>
      <point x="777" y="54"/>
      <point x="723" y="54" type="curve" smooth="yes"/>
      <point x="672" y="54"/>
      <point x="644" y="77"/>
      <point x="644" y="120" type="curve" smooth="yes"/>
      <point x="644" y="164"/>
      <point x="669" y="213"/>
      <point x="701" y="257" type="curve"/>
      <point x="659" y="287" type="line"/>
      <point x="550" y="232"/>
      <point x="483" y="151"/>
      <point x="483" y="61" type="curve" smooth="yes"/>
      <point x="483" y="-5"/>
      <point x="510" y="-55"/>
      <point x="547" y="-81" type="curve"/>
      <point x="541" y="-109" type="line"/>
    </contour>
    <contour>
      <point x="225" y="-366" type="curve" smooth="yes"/>
      <point x="366" y="-366"/>
      <point x="446" y="-308"/>
      <point x="483" y="-180" type="curve" smooth="yes"/>
      <point x="494" y="-142"/>
      <point x="507" y="-132"/>
      <point x="536" y="-132" type="curve" smooth="yes"/>
      <point x="700" y="-132" type="line"/>
      <point x="709" y="-83" type="line"/>
      <point x="503" y="-83" type="line" smooth="yes"/>
      <point x="453" y="-83"/>
      <point x="418" y="-111"/>
      <point x="402" y="-161" type="curve" smooth="yes"/>
      <point x="394" y="-186" type="line" smooth="yes"/>
      <point x="365" y="-276"/>
      <point x="315" y="-317"/>
      <point x="227" y="-317" type="curve" smooth="yes"/>
      <point x="150" y="-317"/>
      <point x="96" y="-279"/>
      <point x="96" y="-218" type="curve" smooth="yes"/>
      <point x="96" y="-172"/>
      <point x="123" y="-139"/>
      <point x="176" y="-115" type="curve"/>
      <point x="158" y="-72" type="line"/>
      <point x="80" y="-103"/>
      <point x="37" y="-155"/>
      <point x="37" y="-223" type="curve" smooth="yes"/>
      <point x="37" y="-310"/>
      <point x="110" y="-366"/>
    </contour>
  </outline>
</glyph>
<glyph name="t.Oo" format="2">
  <advance width="1004"/>
  <unicode hex="0B93"/>
  <outline>
    <contour>
      <point x="640" y="-90" type="line"/>
      <point x="580" y="-65"/>
      <point x="533" y="-16"/>
      <point x="533" y="61" type="curve" smooth="yes"/>
      <point x="533" y="131"/>
      <point x="573" y="174"/>
      <point x="618" y="208" type="curve"/>
      <point x="622" y="205" type="line"/>
      <point x="604" y="176"/>
      <point x="592" y="138"/>
      <point x="592" y="97" type="curve" smooth="yes"/>
      <point x="592" y="36"/>
      <point x="632" y="-15"/>
      <point x="722" y="-15" type="curve" smooth="yes"/>
      <point x="838" y="-15"/>
      <point x="930" y="86"/>
      <point x="930" y="213" type="curve" smooth="yes"/>
      <point x="930" y="416"/>
      <point x="777" y="534"/>
      <point x="516" y="534" type="curve" smooth="yes"/>
      <point x="268" y="534"/>
      <point x="53" y="386"/>
      <point x="53" y="194" type="curve" smooth="yes"/>
      <point x="53" y="65"/>
      <point x="128" y="-15"/>
      <point x="244" y="-15" type="curve" smooth="yes"/>
      <point x="373" y="-15"/>
      <point x="457" y="78"/>
      <point x="457" y="188" type="curve" smooth="yes"/>
      <point x="457" y="268"/>
      <point x="404" y="319"/>
      <point x="332" y="319" type="curve" smooth="yes"/>
      <point x="234" y="319"/>
      <point x="168" y="244"/>
      <point x="168" y="139" type="curve" smooth="yes"/>
      <point x="168" y="95"/>
      <point x="181" y="69"/>
      <point x="182" y="66" type="curve"/>
      <point x="163" y="49" type="line"/>
      <point x="232" y="40" type="line"/>
      <point x="223" y="60"/>
      <point x="216" y="101"/>
      <point x="216" y="132" type="curve" smooth="yes"/>
      <point x="216" y="201"/>
      <point x="253" y="252"/>
      <point x="308" y="252" type="curve" smooth="yes"/>
      <point x="339" y="252"/>
      <point x="359" y="226"/>
      <point x="359" y="183" type="curve" smooth="yes"/>
      <point x="359" y="101"/>
      <point x="299" y="58"/>
      <point x="224" y="57" type="curve"/>
      <point x="182" y="63" type="line"/>
      <point x="131" y="82"/>
      <point x="112" y="135"/>
      <point x="112" y="195" type="curve" smooth="yes"/>
      <point x="112" y="348"/>
      <point x="300" y="479"/>
      <point x="509" y="479" type="curve" smooth="yes"/>
      <point x="712" y="479"/>
      <point x="831" y="387"/>
      <point x="831" y="204" type="curve" smooth="yes"/>
      <point x="831" y="114"/>
      <point x="778" y="54"/>
      <point x="722" y="54" type="curve" smooth="yes"/>
      <point x="671" y="54"/>
      <point x="643" y="77"/>
      <point x="643" y="120" type="curve" smooth="yes"/>
      <point x="643" y="164"/>
      <point x="668" y="213"/>
      <point x="700" y="257" type="curve"/>
      <point x="658" y="287" type="line"/>
      <point x="549" y="232"/>
      <point x="482" y="151"/>
      <point x="482" y="61" type="curve" smooth="yes"/>
      <point x="482" y="-5"/>
      <point x="509" y="-55"/>
      <point x="546" y="-81" type="curve"/>
      <point x="540" y="-109" type="line"/>
    </contour>
    <contour>
      <point x="224" y="-366" type="curve" smooth="yes"/>
      <point x="360" y="-366"/>
      <point x="445" y="-308"/>
      <point x="482" y="-180" type="curve" smooth="yes"/>
      <point x="493" y="-142"/>
      <point x="506" y="-132"/>
      <point x="535" y="-132" type="curve" smooth="yes"/>
      <point x="701" y="-132" type="line"/>
      <point x="710" y="-83" type="line"/>
      <point x="500" y="-83" type="line" smooth="yes"/>
      <point x="452" y="-83"/>
      <point x="417" y="-111"/>
      <point x="401" y="-161" type="curve" smooth="yes"/>
      <point x="393" y="-186" type="line" smooth="yes"/>
      <point x="364" y="-276"/>
      <point x="307" y="-317"/>
      <point x="225" y="-317" type="curve" smooth="yes"/>
      <point x="152" y="-317"/>
      <point x="104" y="-276"/>
      <point x="104" y="-217" type="curve" smooth="yes"/>
      <point x="104" y="-159"/>
      <point x="135" y="-120"/>
      <point x="178" y="-120" type="curve" smooth="yes"/>
      <point x="199" y="-120"/>
      <point x="204" y="-129"/>
      <point x="204" y="-162" type="curve" smooth="yes"/>
      <point x="204" y="-175"/>
      <point x="204" y="-203"/>
      <point x="241" y="-203" type="curve" smooth="yes"/>
      <point x="277" y="-203"/>
      <point x="296" y="-175"/>
      <point x="296" y="-146" type="curve" smooth="yes"/>
      <point x="296" y="-104"/>
      <point x="253" y="-77"/>
      <point x="195" y="-77" type="curve" smooth="yes"/>
      <point x="110" y="-77"/>
      <point x="49" y="-136"/>
      <point x="49" y="-222" type="curve" smooth="yes"/>
      <point x="49" y="-307"/>
      <point x="128" y="-366"/>
    </contour>
  </outline>
</glyph>
<glyph name="t.Ka" format="2">
  <advance width="847"/>
  <unicode hex="0B95"/>
  <outline>
    <contour>
      <point x="263" y="-15" type="curve" smooth="yes"/>
      <point x="426" y="-15"/>
      <point x="484" y="49"/>
      <point x="502" y="141" type="curve" smooth="yes"/>
      <point x="570" y="493" type="line"/>
      <point x="466" y="493" type="line"/>
      <point x="399" y="143" type="line" smooth="yes"/>
      <point x="386" y="73"/>
      <point x="343" y="39"/>
      <point x="267" y="39" type="curve" smooth="yes"/>
      <point x="156" y="39"/>
      <point x="92" y="95"/>
      <point x="92" y="174" type="curve" smooth="yes"/>
      <point x="92" y="228"/>
      <point x="124" y="242"/>
      <point x="190" y="242" type="curve" smooth="yes"/>
      <point x="594" y="242" type="line" smooth="yes"/>
      <point x="647" y="242"/>
      <point x="669" y="214"/>
      <point x="669" y="160" type="curve" smooth="yes"/>
      <point x="669" y="103"/>
      <point x="644" y="56"/>
      <point x="548" y="32" type="curve"/>
      <point x="559" y="-15" type="line"/>
      <point x="696" y="10"/>
      <point x="773" y="79"/>
      <point x="773" y="169" type="curve" smooth="yes"/>
      <point x="773" y="243"/>
      <point x="713" y="291"/>
      <point x="619" y="291" type="curve" smooth="yes"/>
      <point x="187" y="291" type="line" smooth="yes"/>
      <point x="78" y="291"/>
      <point x="33" y="242"/>
      <point x="33" y="168" type="curve" smooth="yes"/>
      <point x="33" y="73"/>
      <point x="123" y="-15"/>
    </contour>
    <contour>
      <point x="272" y="271" type="line"/>
      <point x="312" y="473" type="line"/>
      <point x="740" y="473" type="line"/>
      <point x="749" y="522" type="line"/>
      <point x="258" y="522" type="line"/>
      <point x="209" y="271" type="line"/>
    </contour>
  </outline>
</glyph>
<glyph name="t.Nga" format="2">
  <advance width="1037"/>
  <unicode hex="0B99"/>
  <outline>
    <contour>
      <point x="884" y="0" type="line"/>
      <point x="985" y="522" type="line"/>
      <point x="882" y="522" type="line"/>
      <point x="790" y="49" type="line"/>
      <point x="288" y="49" type="line"/>
      <point x="278" y="0" type="line"/>
    </contour>
    <contour>
      <point x="121" y="0" type="line"/>
      <point x="213" y="473" type="line"/>
      <point x="614" y="473" type="line"/>
      <point x="623" y="522" type="line"/>
      <point x="158" y="522" type="line"/>
      <point x="57" y="0" type="line"/>
    </contour>
    <contour>
      <point x="610" y="29" type="line"/>
      <point x="650" y="72"/>
      <point x="688" y="135"/>
      <point x="688" y="205" type="curve" smooth="yes"/>
      <point x="688" y="283"/>
      <point x="636" y="348"/>
      <point x="546" y="348" type="curve" smooth="yes"/>
      <point x="505" y="348"/>
      <point x="466" y="331"/>
      <point x="442" y="304" type="curve"/>
      <point x="413" y="304" type="line"/>
      <point x="435" y="278" type="line"/>
      <point x="477" y="493" type="line"/>
      <point x="374" y="493" type="line"/>
      <point x="300" y="113" type="line"/>
      <point x="403" y="113" type="line"/>
      <point x="421" y="206" type="line" smooth="yes"/>
      <point x="430" y="254"/>
      <point x="476" y="292"/>
      <point x="518" y="292" type="curve" smooth="yes"/>
      <point x="563" y="292"/>
      <point x="584" y="252"/>
      <point x="584" y="202" type="curve" smooth="yes"/>
      <point x="584" y="151"/>
      <point x="561" y="93"/>
      <point x="489" y="29" type="curve"/>
    </contour>
  </outline>
</glyph>
<glyph name="t.Ca" format="2">
  <advance width="747"/>
  <unicode hex="0B9A"/>
  <outline>
    <contour>
      <point x="263" y="-15" type="curve" smooth="yes"/>
      <point x="426" y="-15"/>
      <point x="484" y="49"/>
      <point x="502" y="141" type="curve" smooth="yes"/>
      <point x="570" y="493" type="line"/>
      <point x="466" y="493" type="line"/>
      <point x="399" y="143" type="line" smooth="yes"/>
      <point x="386" y="73"/>
      <point x="343" y="39"/>
      <point x="267" y="39" type="curve" smooth="yes"/>
      <point x="156" y="39"/>
      <point x="92" y="95"/>
      <point x="92" y="174" type="curve" smooth="yes"/>
      <point x="92" y="228"/>
      <point x="124" y="242"/>
      <point x="190" y="242" type="curve"/>
      <point x="697" y="242" type="line"/>
      <point x="706" y="291" type="line"/>
      <point x="187" y="291" type="line"/>
      <point x="78" y="291"/>
      <point x="33" y="242"/>
      <point x="33" y="168" type="curve" smooth="yes"/>
      <point x="33" y="73"/>
      <point x="123" y="-15"/>
    </contour>
    <contour>
      <point x="272" y="271" type="line"/>
      <point x="312" y="473" type="line"/>
      <point x="741" y="473" type="line"/>
      <point x="750" y="522" type="line"/>
      <point x="258" y="522" type="line"/>
      <point x="209" y="271" type="line"/>
    </contour>
  </outline>
</glyph>
<glyph name="t.Ja" format="2">
  <advance width="972"/>
  <unicode hex="0B9C"/>
  <outline>
    <contour>
      <point x="180" y="-292" type="curve" smooth="yes"/>
      <point x="293" y="-292"/>
      <point x="358" y="-231"/>
      <point x="444" y="-147" type="curve" smooth="yes"/>
      <point x="543" y="-50"/>
      <point x="601" y="-14"/>
      <point x="661" y="-14" type="curve" smooth="yes"/>
      <point x="725" y="-14"/>
      <point x="758" y="-55"/>
      <point x="758" y="-114" type="curve" smooth="yes"/>
      <point x="758" y="-191"/>
      <point x="701" y="-241"/>
      <point x="618" y="-241" type="curve" smooth="yes"/>
      <point x="579" y="-241"/>
      <point x="532" y="-227"/>
      <point x="498" y="-201" type="curve"/>
      <point x="467" y="-243" type="line"/>
      <point x="504" y="-274"/>
      <point x="563" y="-292"/>
      <point x="624" y="-292" type="curve" smooth="yes"/>
      <point x="755" y="-292"/>
      <point x="850" y="-217"/>
      <point x="850" y="-113" type="curve" smooth="yes"/>
      <point x="850" y="-21"/>
      <point x="776" y="36"/>
      <point x="676" y="36" type="curve" smooth="yes"/>
      <point x="592" y="36"/>
      <point x="522" y="-4"/>
      <point x="406" y="-113" type="curve" smooth="yes"/>
      <point x="337" y="-178"/>
      <point x="279" y="-244"/>
      <point x="199" y="-244" type="curve" smooth="yes"/>
      <point x="128" y="-244"/>
      <point x="93" y="-192"/>
      <point x="93" y="-120" type="curve" smooth="yes"/>
      <point x="93" y="35"/>
      <point x="246" y="51"/>
      <point x="301" y="57" type="curve" smooth="yes"/>
      <point x="523" y="81" type="line" smooth="yes"/>
      <point x="638" y="93"/>
      <point x="927" y="131"/>
      <point x="927" y="370" type="curve" smooth="yes"/>
      <point x="927" y="468"/>
      <point x="857" y="529"/>
      <point x="754" y="529" type="curve" smooth="yes"/>
      <point x="669" y="529"/>
      <point x="600" y="492"/>
      <point x="563" y="416" type="curve"/>
      <point x="557" y="416" type="line"/>
      <point x="537" y="484"/>
      <point x="478" y="534"/>
      <point x="347" y="534" type="curve" smooth="yes"/>
      <point x="191" y="534"/>
      <point x="83" y="443"/>
      <point x="83" y="320" type="curve" smooth="yes"/>
      <point x="83" y="230"/>
      <point x="149" y="166"/>
      <point x="234" y="166" type="curve" smooth="yes"/>
      <point x="330" y="166"/>
      <point x="403" y="227"/>
      <point x="403" y="320" type="curve" smooth="yes"/>
      <point x="403" y="378"/>
      <point x="364" y="417"/>
      <point x="304" y="417" type="curve" smooth="yes"/>
      <point x="239" y="417"/>
      <point x="185" y="369"/>
      <point x="185" y="283" type="curve" smooth="yes"/>
      <point x="185" y="263"/>
      <point x="191" y="240"/>
      <point x="200" y="226" type="curve"/>
      <point x="191" y="214" type="line"/>
      <point x="242" y="210" type="line"/>
      <point x="231" y="239"/>
      <point x="228" y="253"/>
      <point x="228" y="281" type="curve" smooth="yes"/>
      <point x="228" y="331"/>
      <point x="251" y="360"/>
      <point x="289" y="360" type="curve" smooth="yes"/>
      <point x="311" y="360"/>
      <point x="326" y="341"/>
      <point x="326" y="313" type="curve" smooth="yes"/>
      <point x="326" y="251"/>
      <point x="281" y="218"/>
      <point x="228" y="218" type="curve" smooth="yes"/>
      <point x="165" y="218"/>
      <point x="141" y="268"/>
      <point x="141" y="324" type="curve" smooth="yes"/>
      <point x="141" y="419"/>
      <point x="217" y="489"/>
      <point x="333" y="489" type="curve" smooth="yes"/>
      <point x="450" y="489"/>
      <point x="499" y="420"/>
      <point x="475" y="297" type="curve" smooth="yes"/>
      <point x="456" y="198" type="line"/>
      <point x="559" y="198" type="line"/>
      <point x="581" y="313" type="line" smooth="yes"/>
      <point x="604" y="432"/>
      <point x="663" y="481"/>
      <point x="739" y="481" type="curve" smooth="yes"/>
      <point x="789" y="481"/>
      <point x="823" y="439"/>
      <point x="823" y="369" type="curve" smooth="yes"/>
      <point x="823" y="165"/>
      <point x="645" y="141"/>
      <point x="522" y="128" type="curve" smooth="yes"/>
      <point x="288" y="103" type="line" smooth="yes"/>
      <point x="84" y="81"/>
      <point x="-12" y="-2"/>
      <point x="-12" y="-121" type="curve" smooth="yes"/>
      <point x="-12" y="-220"/>
      <point x="56" y="-292"/>
    </contour>
  </outline>
</glyph>
<glyph name="t.Nya" format="2">
  <advance width="1259"/>
  <unicode hex="0B9E"/>
  <outline>
    <contour>
      <point x="567" y="-339" type="curve" smooth="yes"/>
      <point x="912" y="-339"/>
      <point x="1178" y="-114"/>
      <point x="1178" y="144" type="curve" smooth="yes"/>
      <point x="1178" y="269"/>
      <point x="1116" y="335"/>
      <point x="1028" y="335" type="curve" smooth="yes"/>
      <point x="984" y="335"/>
      <point x="951" y="318"/>
      <point x="926" y="291" type="curve"/>
      <point x="897" y="291" type="line"/>
      <point x="919" y="264" type="line"/>
      <point x="963" y="493" type="line"/>
      <point x="860" y="493" type="line"/>
      <point x="765" y="0" type="line"/>
      <point x="868" y="0" type="line"/>
      <point x="905" y="190" type="line" smooth="yes"/>
      <point x="916" y="246"/>
      <point x="961" y="279"/>
      <point x="1004" y="279" type="curve" smooth="yes"/>
      <point x="1060" y="279"/>
      <point x="1073" y="224"/>
      <point x="1073" y="160" type="curve" smooth="yes"/>
      <point x="1073" y="-110"/>
      <point x="843" y="-283"/>
      <point x="578" y="-283" type="curve" smooth="yes"/>
      <point x="287" y="-283"/>
      <point x="108" y="-119"/>
      <point x="108" y="128" type="curve" smooth="yes"/>
      <point x="108" y="276"/>
      <point x="172" y="405"/>
      <point x="306" y="496" type="curve"/>
      <point x="269" y="538" type="line"/>
      <point x="118" y="433"/>
      <point x="49" y="287"/>
      <point x="49" y="121" type="curve" smooth="yes"/>
      <point x="49" y="-135"/>
      <point x="241" y="-339"/>
    </contour>
    <contour>
      <point x="453" y="-15" type="curve" smooth="yes"/>
      <point x="582" y="-15"/>
      <point x="666" y="78"/>
      <point x="666" y="188" type="curve" smooth="yes"/>
      <point x="666" y="268"/>
      <point x="613" y="319"/>
      <point x="541" y="319" type="curve" smooth="yes"/>
      <point x="445" y="319"/>
      <point x="377" y="244"/>
      <point x="377" y="139" type="curve" smooth="yes"/>
      <point x="377" y="95"/>
      <point x="390" y="69"/>
      <point x="391" y="66" type="curve"/>
      <point x="372" y="49" type="line"/>
      <point x="441" y="40" type="line"/>
      <point x="431" y="61"/>
      <point x="425" y="101"/>
      <point x="425" y="132" type="curve" smooth="yes"/>
      <point x="425" y="199"/>
      <point x="466" y="252"/>
      <point x="517" y="252" type="curve" smooth="yes"/>
      <point x="548" y="252"/>
      <point x="568" y="226"/>
      <point x="568" y="183" type="curve" smooth="yes"/>
      <point x="568" y="101"/>
      <point x="508" y="58"/>
      <point x="433" y="57" type="curve"/>
      <point x="391" y="63" type="line"/>
      <point x="340" y="82"/>
      <point x="308" y="140"/>
      <point x="308" y="208" type="curve" smooth="yes"/>
      <point x="308" y="358"/>
      <point x="419" y="453"/>
      <point x="609" y="472" type="curve" smooth="yes"/>
      <point x="619" y="473"/>
      <point x="636" y="473"/>
      <point x="650" y="473" type="curve" smooth="yes"/>
      <point x="1170" y="473" type="line"/>
      <point x="1179" y="522" type="line"/>
      <point x="678" y="522" type="line" smooth="yes"/>
      <point x="666" y="522"/>
      <point x="645" y="522"/>
      <point x="628" y="521" type="curve" smooth="yes"/>
      <point x="403" y="508"/>
      <point x="249" y="397"/>
      <point x="249" y="207" type="curve" smooth="yes"/>
      <point x="249" y="70"/>
      <point x="337" y="-15"/>
    </contour>
  </outline>
</glyph>
<glyph name="t.Tta" format="2">
  <advance width="1000"/>
  <unicode hex="0B9F"/>
  <outline>
    <contour>
      <point x="930" y="0" type="line"/>
      <point x="940" y="49" type="line"/>
      <point x="170" y="49" type="line"/>
      <point x="261" y="522" type="line"/>
      <point x="158" y="522" type="line"/>
      <point x="57" y="0" type="line"/>
    </contour>
  </outline>
</glyph>
<glyph name="t.Nna" format="2">
  <advance width="1619"/>
  <unicode hex="0BA3"/>
  <outline>
    <contour>
      <point x="250" y="-15" type="curve" smooth="yes"/>
      <point x="377" y="-15"/>
      <point x="460" y="77"/>
      <point x="460" y="187" type="curve" smooth="yes"/>
      <point x="460" y="267"/>
      <point x="402" y="319"/>
      <point x="337" y="319" type="curve" smooth="yes"/>
      <point x="240" y="319"/>
      <point x="174" y="244"/>
      <point x="174" y="139" type="curve" smooth="yes"/>
      <point x="174" y="95"/>
      <point x="187" y="68"/>
      <point x="188" y="65" type="curve"/>
      <point x="169" y="48" type="line"/>
      <point x="238" y="39" type="line"/>
      <point x="229" y="59"/>
      <point x="222" y="101"/>
      <point x="222" y="132" type="curve" smooth="yes"/>
      <point x="222" y="201"/>
      <point x="259" y="252"/>
      <point x="313" y="252" type="curve" smooth="yes"/>
      <point x="342" y="252"/>
      <point x="362" y="225"/>
      <point x="362" y="182" type="curve" smooth="yes"/>
      <point x="362" y="102"/>
      <point x="303" y="58"/>
      <point x="230" y="56" type="curve"/>
      <point x="188" y="62" type="line"/>
      <point x="137" y="80"/>
      <point x="119" y="133"/>
      <point x="119" y="192" type="curve" smooth="yes"/>
      <point x="119" y="360"/>
      <point x="285" y="480"/>
      <point x="469" y="480" type="curve" smooth="yes"/>
      <point x="669" y="480"/>
      <point x="745" y="355"/>
      <point x="745" y="215" type="curve" smooth="yes"/>
      <point x="745" y="116"/>
      <point x="695" y="50"/>
      <point x="645" y="50" type="curve" smooth="yes"/>
      <point x="606" y="50"/>
      <point x="579" y="89"/>
      <point x="579" y="151" type="curve" smooth="yes"/>
      <point x="579" y="313"/>
      <point x="765" y="476"/>
      <point x="922" y="476" type="curve" smooth="yes"/>
      <point x="1081" y="476"/>
      <point x="1136" y="355"/>
      <point x="1136" y="215" type="curve" smooth="yes"/>
      <point x="1136" y="116"/>
      <point x="1086" y="50"/>
      <point x="1036" y="50" type="curve" smooth="yes"/>
      <point x="997" y="50"/>
      <point x="970" y="89"/>
      <point x="970" y="151" type="curve" smooth="yes"/>
      <point x="970" y="313"/>
      <point x="1125" y="473"/>
      <point x="1346" y="473" type="curve" smooth="yes"/>
      <point x="1633" y="473" type="line"/>
      <point x="1643" y="522" type="line"/>
      <point x="1351" y="522" type="line" smooth="yes"/>
      <point x="1080" y="522"/>
      <point x="910" y="330"/>
      <point x="910" y="146" type="curve" smooth="yes"/>
      <point x="910" y="52"/>
      <point x="962" y="-15"/>
      <point x="1047" y="-15" type="curve" smooth="yes"/>
      <point x="1143" y="-15"/>
      <point x="1240" y="68"/>
      <point x="1240" y="215" type="curve" smooth="yes"/>
      <point x="1240" y="397"/>
      <point x="1127" y="530"/>
      <point x="935" y="530" type="curve" smooth="yes"/>
      <point x="724" y="530"/>
      <point x="519" y="343"/>
      <point x="519" y="146" type="curve" smooth="yes"/>
      <point x="519" y="52"/>
      <point x="571" y="-15"/>
      <point x="656" y="-15" type="curve" smooth="yes"/>
      <point x="752" y="-15"/>
      <point x="849" y="68"/>
      <point x="849" y="215" type="curve" smooth="yes"/>
      <point x="849" y="397"/>
      <point x="695" y="534"/>
      <point x="482" y="534" type="curve" smooth="yes"/>
      <point x="257" y="534"/>
      <point x="60" y="389"/>
      <point x="60" y="189" type="curve" smooth="yes"/>
      <point x="60" y="63"/>
      <point x="144" y="-15"/>
    </contour>
    <contour>
      <point x="1405" y="0" type="line"/>
      <point x="1501" y="493" type="line"/>
      <point x="1398" y="493" type="line"/>
      <point x="1302" y="0" type="line"/>
    </contour>
  </outline>
  <guideline angle="0" x="0" y="180"/>
</glyph>
<glyph name="t.Ta" format="2">
  <advance width="871"/>
  <unicode hex="0BA4"/>
  <outline>
    <contour>
      <point x="31" y="-252" type="curve" smooth="yes"/>
      <point x="58" y="-252"/>
      <point x="79" y="-233"/>
      <point x="88" y="-189" type="curve" smooth="yes"/>
      <point x="96" y="-149"/>
      <point x="109" y="-132"/>
      <point x="154" y="-132" type="curve" smooth="yes"/>
      <point x="439" y="-132" type="line" smooth="yes"/>
      <point x="645" y="-132"/>
      <point x="788" y="-30"/>
      <point x="788" y="128" type="curve" smooth="yes"/>
      <point x="788" y="228"/>
      <point x="712" y="291"/>
      <point x="599" y="291" type="curve" smooth="yes"/>
      <point x="188" y="291" type="line" smooth="yes"/>
      <point x="79" y="291"/>
      <point x="34" y="242"/>
      <point x="34" y="168" type="curve" smooth="yes"/>
      <point x="34" y="74"/>
      <point x="124" y="-15"/>
      <point x="264" y="-15" type="curve" smooth="yes"/>
      <point x="408" y="-15"/>
      <point x="483" y="35"/>
      <point x="503" y="141" type="curve" smooth="yes"/>
      <point x="571" y="493" type="line"/>
      <point x="467" y="493" type="line"/>
      <point x="400" y="143" type="line" smooth="yes"/>
      <point x="387" y="73"/>
      <point x="345" y="39"/>
      <point x="268" y="39" type="curve" smooth="yes"/>
      <point x="157" y="39"/>
      <point x="93" y="96"/>
      <point x="93" y="174" type="curve" smooth="yes"/>
      <point x="93" y="228"/>
      <point x="125" y="242"/>
      <point x="191" y="242" type="curve" smooth="yes"/>
      <point x="570" y="242" type="line" smooth="yes"/>
      <point x="638" y="242"/>
      <point x="684" y="199"/>
      <point x="684" y="131" type="curve" smooth="yes"/>
      <point x="684" y="0"/>
      <point x="582" y="-83"/>
      <point x="437" y="-83" type="curve" smooth="yes"/>
      <point x="154" y="-83" type="line" smooth="yes"/>
      <point x="42" y="-83"/>
      <point x="-10" y="-140"/>
      <point x="-10" y="-195" type="curve" smooth="yes"/>
      <point x="-10" y="-231"/>
      <point x="3" y="-252"/>
    </contour>
    <contour>
      <point x="273" y="271" type="line"/>
      <point x="313" y="473" type="line"/>
      <point x="741" y="473" type="line"/>
      <point x="750" y="522" type="line"/>
      <point x="259" y="522" type="line"/>
      <point x="210" y="271" type="line"/>
    </contour>
  </outline>
</glyph>
<glyph name="t.Na" format="2">
  <advance width="775"/>
  <unicode hex="0BA8"/>
  <outline>
    <contour>
      <point x="26" y="-252" type="curve" smooth="yes"/>
      <point x="53" y="-252"/>
      <point x="74" y="-233"/>
      <point x="83" y="-189" type="curve" smooth="yes"/>
      <point x="91" y="-149"/>
      <point x="104" y="-132"/>
      <point x="149" y="-132" type="curve" smooth="yes"/>
      <point x="345" y="-132" type="line" smooth="yes"/>
      <point x="568" y="-132"/>
      <point x="691" y="-15"/>
      <point x="691" y="166" type="curve" smooth="yes"/>
      <point x="691" y="268"/>
      <point x="632" y="335"/>
      <point x="549" y="335" type="curve" smooth="yes"/>
      <point x="507" y="335"/>
      <point x="470" y="318"/>
      <point x="445" y="290" type="curve"/>
      <point x="416" y="290" type="line"/>
      <point x="438" y="263" type="line"/>
      <point x="482" y="493" type="line"/>
      <point x="379" y="493" type="line"/>
      <point x="284" y="0" type="line"/>
      <point x="387" y="0" type="line"/>
      <point x="424" y="190" type="line" smooth="yes"/>
      <point x="433" y="238"/>
      <point x="474" y="279"/>
      <point x="520" y="279" type="curve" smooth="yes"/>
      <point x="565" y="279"/>
      <point x="587" y="239"/>
      <point x="587" y="171" type="curve" smooth="yes"/>
      <point x="587" y="5"/>
      <point x="498" y="-83"/>
      <point x="342" y="-83" type="curve" smooth="yes"/>
      <point x="149" y="-83" type="line" smooth="yes"/>
      <point x="37" y="-83"/>
      <point x="-15" y="-140"/>
      <point x="-15" y="-195" type="curve" smooth="yes"/>
      <point x="-15" y="-231"/>
      <point x="-2" y="-252"/>
    </contour>
    <contour>
      <point x="121" y="0" type="line"/>
      <point x="213" y="473" type="line"/>
      <point x="688" y="473" type="line"/>
      <point x="697" y="522" type="line"/>
      <point x="158" y="522" type="line"/>
      <point x="57" y="0" type="line"/>
    </contour>
  </outline>
</glyph>
<glyph name="t.Nnna" format="2">
  <advance width="1233"/>
  <unicode hex="0BA9"/>
  <outline>
    <contour>
      <point x="249" y="-15" type="curve" smooth="yes"/>
      <point x="376" y="-15"/>
      <point x="462" y="77"/>
      <point x="462" y="187" type="curve" smooth="yes"/>
      <point x="462" y="267"/>
      <point x="406" y="319"/>
      <point x="337" y="319" type="curve" smooth="yes"/>
      <point x="239" y="319"/>
      <point x="173" y="244"/>
      <point x="173" y="139" type="curve" smooth="yes"/>
      <point x="173" y="95"/>
      <point x="186" y="69"/>
      <point x="187" y="66" type="curve"/>
      <point x="168" y="49" type="line"/>
      <point x="237" y="40" type="line"/>
      <point x="228" y="60"/>
      <point x="221" y="101"/>
      <point x="221" y="132" type="curve" smooth="yes"/>
      <point x="221" y="201"/>
      <point x="258" y="252"/>
      <point x="313" y="252" type="curve" smooth="yes"/>
      <point x="341" y="252"/>
      <point x="363" y="225"/>
      <point x="363" y="182" type="curve" smooth="yes"/>
      <point x="363" y="100"/>
      <point x="304" y="58"/>
      <point x="229" y="57" type="curve"/>
      <point x="187" y="63" type="line"/>
      <point x="136" y="82"/>
      <point x="119" y="133"/>
      <point x="119" y="195" type="curve" smooth="yes"/>
      <point x="119" y="353"/>
      <point x="292" y="480"/>
      <point x="476" y="480" type="curve" smooth="yes"/>
      <point x="676" y="480"/>
      <point x="750" y="355"/>
      <point x="750" y="215" type="curve" smooth="yes"/>
      <point x="750" y="116"/>
      <point x="700" y="50"/>
      <point x="650" y="50" type="curve" smooth="yes"/>
      <point x="611" y="50"/>
      <point x="584" y="89"/>
      <point x="584" y="151" type="curve" smooth="yes"/>
      <point x="584" y="313"/>
      <point x="739" y="473"/>
      <point x="960" y="473" type="curve" smooth="yes"/>
      <point x="1247" y="473" type="line"/>
      <point x="1257" y="522" type="line"/>
      <point x="965" y="522" type="line" smooth="yes"/>
      <point x="694" y="522"/>
      <point x="524" y="330"/>
      <point x="524" y="146" type="curve" smooth="yes"/>
      <point x="524" y="52"/>
      <point x="576" y="-15"/>
      <point x="661" y="-15" type="curve" smooth="yes"/>
      <point x="757" y="-15"/>
      <point x="854" y="68"/>
      <point x="854" y="215" type="curve" smooth="yes"/>
      <point x="854" y="397"/>
      <point x="702" y="534"/>
      <point x="489" y="534" type="curve" smooth="yes"/>
      <point x="264" y="534"/>
      <point x="60" y="382"/>
      <point x="60" y="192" type="curve" smooth="yes"/>
      <point x="60" y="63"/>
      <point x="133" y="-15"/>
    </contour>
    <contour>
      <point x="1019" y="0" type="line"/>
      <point x="1115" y="493" type="line"/>
      <point x="1012" y="493" type="line"/>
      <point x="916" y="0" type="line"/>
    </contour>
  </outline>
</glyph>
<glyph name="t.Pa" format="2">
  <advance width="898"/>
  <unicode hex="0BAA"/>
  <outline>
    <contour>
      <point x="745" y="0" type="line"/>
      <point x="846" y="522" type="line"/>
      <point x="743" y="522" type="line"/>
      <point x="652" y="49" type="line"/>
      <point x="170" y="49" type="line"/>
      <point x="261" y="522" type="line"/>
      <point x="158" y="522" type="line"/>
      <point x="57" y="0" type="line"/>
    </contour>
  </outline>
</glyph>
<glyph name="t.Ma" format="2">
  <advance width="971"/>
  <unicode hex="0BAE"/>
  <outline>
    <contour>
      <point x="728" y="0" type="line" smooth="yes"/>
      <point x="858" y="0"/>
      <point x="902" y="115"/>
      <point x="902" y="247" type="curve" smooth="yes"/>
      <point x="902" y="391"/>
      <point x="826" y="534"/>
      <point x="679" y="534" type="curve" smooth="yes"/>
      <point x="587" y="534"/>
      <point x="525" y="485"/>
      <point x="506" y="388" type="curve" smooth="yes"/>
      <point x="435" y="27" type="line"/>
      <point x="539" y="27" type="line"/>
      <point x="607" y="375" type="line" smooth="yes"/>
      <point x="621" y="447"/>
      <point x="650" y="480"/>
      <point x="693" y="480" type="curve" smooth="yes"/>
      <point x="782" y="480"/>
      <point x="843" y="375"/>
      <point x="843" y="242" type="curve" smooth="yes"/>
      <point x="843" y="119"/>
      <point x="801" y="49"/>
      <point x="726" y="49" type="curve" smooth="yes"/>
      <point x="169" y="49" type="line"/>
      <point x="261" y="522" type="line"/>
      <point x="158" y="522" type="line"/>
      <point x="57" y="0" type="line"/>
    </contour>
  </outline>
</glyph>
<glyph name="t.Ya" format="2">
  <advance width="972"/>
  <unicode hex="0BAF"/>
  <outline>
    <contour>
      <point x="192" y="-15" type="curve" smooth="yes"/>
      <point x="250" y="-15"/>
      <point x="290" y="10"/>
      <point x="320" y="58" type="curve"/>
      <point x="349" y="58" type="line"/>
      <point x="327" y="85" type="line"/>
      <point x="311" y="0" type="line"/>
      <point x="819" y="0" type="line"/>
      <point x="920" y="522" type="line"/>
      <point x="817" y="522" type="line"/>
      <point x="725" y="49" type="line"/>
      <point x="421" y="49" type="line"/>
      <point x="513" y="522" type="line"/>
      <point x="410" y="522" type="line"/>
      <point x="343" y="179" type="line" smooth="yes"/>
      <point x="326" y="92"/>
      <point x="263" y="43"/>
      <point x="224" y="43" type="curve" smooth="yes"/>
      <point x="188" y="43"/>
      <point x="169" y="62"/>
      <point x="181" y="123" type="curve" smooth="yes"/>
      <point x="259" y="522" type="line"/>
      <point x="156" y="522" type="line"/>
      <point x="82" y="140" type="line" smooth="yes"/>
      <point x="59" y="23"/>
      <point x="124" y="-15"/>
    </contour>
  </outline>
</glyph>
<glyph name="t.Ra" format="2">
  <advance width="683"/>
  <unicode hex="0BB0"/>
  <outline>
    <contour>
      <point x="445" y="0" type="line"/>
      <point x="540" y="493" type="line"/>
      <point x="437" y="493" type="line"/>
      <point x="342" y="3" type="line"/>
      <point x="35" y="-149" type="line"/>
      <point x="23" y="-209" type="line"/>
    </contour>
    <contour>
      <point x="121" y="0" type="line"/>
      <point x="213" y="473" type="line"/>
      <point x="697" y="473" type="line"/>
      <point x="706" y="522" type="line"/>
      <point x="158" y="522" type="line"/>
      <point x="57" y="0" type="line"/>
    </contour>
  </outline>
  <guideline angle="27.5781" x="0" y="-259"/>
  <guideline angle="27.5781" x="0" y="-205"/>
</glyph>
<glyph name="t.Rra" format="2">
  <advance width="844"/>
  <unicode hex="0BB1"/>
  <outline>
    <contour>
      <point x="25" y="-252" type="curve" smooth="yes"/>
      <point x="52" y="-252"/>
      <point x="73" y="-233"/>
      <point x="82" y="-189" type="curve" smooth="yes"/>
      <point x="90" y="-149"/>
      <point x="103" y="-132"/>
      <point x="148" y="-132" type="curve" smooth="yes"/>
      <point x="357" y="-132" type="line" smooth="yes"/>
      <point x="608" y="-132"/>
      <point x="775" y="33"/>
      <point x="775" y="280" type="curve" smooth="yes"/>
      <point x="775" y="443"/>
      <point x="694" y="534"/>
      <point x="573" y="534" type="curve" smooth="yes"/>
      <point x="502" y="534"/>
      <point x="443" y="503"/>
      <point x="414" y="450" type="curve"/>
      <point x="410" y="450" type="line"/>
      <point x="396" y="505"/>
      <point x="357" y="534"/>
      <point x="287" y="534" type="curve" smooth="yes"/>
      <point x="206" y="534"/>
      <point x="151" y="486"/>
      <point x="134" y="400" type="curve" smooth="yes"/>
      <point x="57" y="0" type="line"/>
      <point x="120" y="0" type="line"/>
      <point x="198" y="403" type="line" smooth="yes"/>
      <point x="208" y="455"/>
      <point x="242" y="484"/>
      <point x="278" y="484" type="curve" smooth="yes"/>
      <point x="333" y="484"/>
      <point x="352" y="435"/>
      <point x="340" y="371" type="curve" smooth="yes"/>
      <point x="268" y="0" type="line"/>
      <point x="370" y="0" type="line"/>
      <point x="440" y="359" type="line" smooth="yes"/>
      <point x="457" y="447"/>
      <point x="512" y="484"/>
      <point x="564" y="484" type="curve" smooth="yes"/>
      <point x="635" y="484"/>
      <point x="671" y="420"/>
      <point x="671" y="279" type="curve" smooth="yes"/>
      <point x="671" y="62"/>
      <point x="543" y="-83"/>
      <point x="351" y="-83" type="curve" smooth="yes"/>
      <point x="148" y="-83" type="line" smooth="yes"/>
      <point x="36" y="-83"/>
      <point x="-16" y="-140"/>
      <point x="-16" y="-195" type="curve" smooth="yes"/>
      <point x="-16" y="-231"/>
      <point x="-3" y="-252"/>
    </contour>
  </outline>
</glyph>
<glyph name="t.Lla" format="2">
  <advance width="1120"/>
  <unicode hex="0BB3"/>
  <outline>
    <contour>
      <point x="268" y="-15" type="curve" smooth="yes"/>
      <point x="388" y="-15"/>
      <point x="477" y="76"/>
      <point x="477" y="185" type="curve" smooth="yes"/>
      <point x="477" y="270"/>
      <point x="424" y="319"/>
      <point x="349" y="319" type="curve" smooth="yes"/>
      <point x="257" y="319"/>
      <point x="188" y="244"/>
      <point x="188" y="140" type="curve" smooth="yes"/>
      <point x="188" y="95"/>
      <point x="201" y="69"/>
      <point x="202" y="66" type="curve"/>
      <point x="183" y="49" type="line"/>
      <point x="252" y="40" type="line"/>
      <point x="242" y="61"/>
      <point x="236" y="102"/>
      <point x="236" y="129" type="curve" smooth="yes"/>
      <point x="236" y="199"/>
      <point x="277" y="252"/>
      <point x="326" y="252" type="curve" smooth="yes"/>
      <point x="360" y="252"/>
      <point x="379" y="226"/>
      <point x="379" y="181" type="curve" smooth="yes"/>
      <point x="379" y="101"/>
      <point x="319" y="58"/>
      <point x="244" y="57" type="curve"/>
      <point x="202" y="63" type="line"/>
      <point x="154" y="82"/>
      <point x="123" y="139"/>
      <point x="123" y="212" type="curve" smooth="yes"/>
      <point x="123" y="353"/>
      <point x="239" y="480"/>
      <point x="390" y="480" type="curve" smooth="yes"/>
      <point x="519" y="480"/>
      <point x="587" y="417"/>
      <point x="587" y="304" type="curve" smooth="yes"/>
      <point x="587" y="283"/>
      <point x="585" y="260"/>
      <point x="580" y="236" type="curve" smooth="yes"/>
      <point x="534" y="0" type="line"/>
      <point x="637" y="0" type="line"/>
      <point x="729" y="473" type="line"/>
      <point x="1134" y="473" type="line"/>
      <point x="1143" y="522" type="line"/>
      <point x="687" y="522" type="line"/>
      <point x="652" y="341" type="line"/>
      <point x="684" y="368" type="line"/>
      <point x="651" y="368" type="line"/>
      <point x="615" y="482"/>
      <point x="539" y="534"/>
      <point x="409" y="534" type="curve" smooth="yes"/>
      <point x="207" y="534"/>
      <point x="64" y="382"/>
      <point x="64" y="204" type="curve" smooth="yes"/>
      <point x="64" y="70"/>
      <point x="152" y="-15"/>
    </contour>
    <contour>
      <point x="909" y="0" type="line"/>
      <point x="1005" y="493" type="line"/>
      <point x="902" y="493" type="line"/>
      <point x="806" y="0" type="line"/>
    </contour>
  </outline>
</glyph>
<glyph name="t.Llla" format="2">
  <advance width="967"/>
  <unicode hex="0BB4"/>
  <outline>
    <contour>
      <point x="509" y="-103" type="line"/>
      <point x="602" y="375" type="line" smooth="yes"/>
      <point x="616" y="447"/>
      <point x="645" y="480"/>
      <point x="693" y="480" type="curve" smooth="yes"/>
      <point x="778" y="480"/>
      <point x="839" y="375"/>
      <point x="839" y="242" type="curve" smooth="yes"/>
      <point x="839" y="119"/>
      <point x="797" y="49"/>
      <point x="722" y="49" type="curve" smooth="yes"/>
      <point x="169" y="49" type="line"/>
      <point x="261" y="522" type="line"/>
      <point x="158" y="522" type="line"/>
      <point x="57" y="0" type="line"/>
      <point x="724" y="0" type="line" smooth="yes"/>
      <point x="854" y="0"/>
      <point x="898" y="115"/>
      <point x="898" y="247" type="curve" smooth="yes"/>
      <point x="898" y="391"/>
      <point x="822" y="534"/>
      <point x="679" y="534" type="curve" smooth="yes"/>
      <point x="582" y="534"/>
      <point x="520" y="485"/>
      <point x="501" y="388" type="curve" smooth="yes"/>
      <point x="405" y="-103" type="line"/>
    </contour>
    <contour>
      <point x="165" y="-366" type="curve" smooth="yes"/>
      <point x="298" y="-366"/>
      <point x="375" y="-308"/>
      <point x="411" y="-180" type="curve" smooth="yes"/>
      <point x="421" y="-142"/>
      <point x="435" y="-132"/>
      <point x="464" y="-132" type="curve" smooth="yes"/>
      <point x="637" y="-132" type="line"/>
      <point x="647" y="-83" type="line"/>
      <point x="429" y="-83" type="line" smooth="yes"/>
      <point x="381" y="-83"/>
      <point x="346" y="-111"/>
      <point x="330" y="-161" type="curve" smooth="yes"/>
      <point x="322" y="-186" type="line" smooth="yes"/>
      <point x="293" y="-276"/>
      <point x="245" y="-317"/>
      <point x="166" y="-317" type="curve" smooth="yes"/>
      <point x="87" y="-317"/>
      <point x="44" y="-279"/>
      <point x="44" y="-221" type="curve" smooth="yes"/>
      <point x="44" y="-165"/>
      <point x="76" y="-127"/>
      <point x="119" y="-127" type="curve" smooth="yes"/>
      <point x="140" y="-127"/>
      <point x="145" y="-136"/>
      <point x="145" y="-169" type="curve" smooth="yes"/>
      <point x="145" y="-182"/>
      <point x="145" y="-210"/>
      <point x="182" y="-210" type="curve" smooth="yes"/>
      <point x="218" y="-210"/>
      <point x="237" y="-182"/>
      <point x="237" y="-153" type="curve" smooth="yes"/>
      <point x="237" y="-111"/>
      <point x="194" y="-84"/>
      <point x="136" y="-84" type="curve" smooth="yes"/>
      <point x="51" y="-84"/>
      <point x="-11" y="-142"/>
      <point x="-11" y="-226" type="curve" smooth="yes"/>
      <point x="-11" y="-311"/>
      <point x="63" y="-366"/>
    </contour>
  </outline>
</glyph>
<glyph name="t.Va" format="2">
  <advance width="1066"/>
  <unicode hex="0BB5"/>
  <outline>
    <contour>
      <point x="263" y="-15" type="curve" smooth="yes"/>
      <point x="392" y="-15"/>
      <point x="476" y="78"/>
      <point x="476" y="188" type="curve" smooth="yes"/>
      <point x="476" y="268"/>
      <point x="423" y="319"/>
      <point x="351" y="319" type="curve" smooth="yes"/>
      <point x="253" y="319"/>
      <point x="187" y="244"/>
      <point x="187" y="139" type="curve" smooth="yes"/>
      <point x="187" y="95"/>
      <point x="200" y="69"/>
      <point x="201" y="66" type="curve"/>
      <point x="182" y="49" type="line"/>
      <point x="251" y="40" type="line"/>
      <point x="242" y="60"/>
      <point x="235" y="101"/>
      <point x="235" y="132" type="curve" smooth="yes"/>
      <point x="235" y="201"/>
      <point x="272" y="252"/>
      <point x="327" y="252" type="curve" smooth="yes"/>
      <point x="358" y="252"/>
      <point x="378" y="226"/>
      <point x="378" y="183" type="curve" smooth="yes"/>
      <point x="378" y="101"/>
      <point x="318" y="58"/>
      <point x="243" y="57" type="curve"/>
      <point x="201" y="63" type="line"/>
      <point x="150" y="82"/>
      <point x="120" y="138"/>
      <point x="120" y="202" type="curve" smooth="yes"/>
      <point x="120" y="343"/>
      <point x="248" y="467"/>
      <point x="417" y="467" type="curve" smooth="yes"/>
      <point x="542" y="467"/>
      <point x="613" y="403"/>
      <point x="613" y="280" type="curve" smooth="yes"/>
      <point x="613" y="185"/>
      <point x="571" y="102"/>
      <point x="472" y="5" type="curve"/>
      <point x="473" y="0" type="line"/>
      <point x="913" y="0" type="line"/>
      <point x="1014" y="522" type="line"/>
      <point x="911" y="522" type="line"/>
      <point x="819" y="49" type="line"/>
      <point x="628" y="49" type="line"/>
      <point x="686" y="115"/>
      <point x="718" y="194"/>
      <point x="718" y="279" type="curve" smooth="yes"/>
      <point x="718" y="439"/>
      <point x="606" y="534"/>
      <point x="432" y="534" type="curve" smooth="yes"/>
      <point x="218" y="534"/>
      <point x="61" y="382"/>
      <point x="61" y="201" type="curve" smooth="yes"/>
      <point x="61" y="68"/>
      <point x="147" y="-15"/>
    </contour>
  </outline>
</glyph>
<glyph name="t.Sha" format="2">
  <advance width="1168"/>
  <unicode hex="0BB6"/>
  <outline>
    <contour>
      <point x="261" y="-15" type="curve" smooth="yes"/>
      <point x="461" y="-15"/>
      <point x="505" y="159"/>
      <point x="536" y="319" type="curve" smooth="yes"/>
      <point x="544" y="360"/>
      <point x="553" y="410"/>
      <point x="564" y="473" type="curve"/>
      <point x="1007" y="473" type="line" smooth="yes"/>
      <point x="1040" y="473"/>
      <point x="1048" y="457"/>
      <point x="1054" y="424" type="curve" smooth="yes"/>
      <point x="1060" y="390"/>
      <point x="1060" y="352"/>
      <point x="1060" y="348" type="curve" smooth="yes"/>
      <point x="1060" y="182"/>
      <point x="962" y="39"/>
      <point x="844" y="39" type="curve" smooth="yes"/>
      <point x="784" y="39"/>
      <point x="759" y="68"/>
      <point x="759" y="128" type="curve" smooth="yes"/>
      <point x="759" y="147"/>
      <point x="761" y="169"/>
      <point x="766" y="194" type="curve" smooth="yes"/>
      <point x="824" y="493" type="line"/>
      <point x="721" y="493" type="line"/>
      <point x="664" y="198" type="line" smooth="yes"/>
      <point x="660" y="178"/>
      <point x="658" y="160"/>
      <point x="658" y="142" type="curve" smooth="yes"/>
      <point x="658" y="46"/>
      <point x="715" y="-15"/>
      <point x="823" y="-15" type="curve" smooth="yes"/>
      <point x="1046" y="-15"/>
      <point x="1118" y="228"/>
      <point x="1118" y="351" type="curve" smooth="yes"/>
      <point x="1118" y="371"/>
      <point x="1116" y="406"/>
      <point x="1111" y="434" type="curve" smooth="yes"/>
      <point x="1101" y="491"/>
      <point x="1078" y="522"/>
      <point x="1025" y="522" type="curve" smooth="yes"/>
      <point x="510" y="522" type="line"/>
      <point x="507" y="503"/>
      <point x="486" y="381"/>
      <point x="474" y="321" type="curve" smooth="yes"/>
      <point x="447" y="187"/>
      <point x="410" y="39"/>
      <point x="279" y="39" type="curve" smooth="yes"/>
      <point x="223" y="39"/>
      <point x="189" y="74"/>
      <point x="189" y="142" type="curve" smooth="yes"/>
      <point x="189" y="157"/>
      <point x="190" y="174"/>
      <point x="194" y="193" type="curve" smooth="yes"/>
      <point x="258" y="522" type="line"/>
      <point x="154" y="522" type="line"/>
      <point x="90" y="190" type="line" smooth="yes"/>
      <point x="87" y="174"/>
      <point x="85" y="158"/>
      <point x="85" y="143" type="curve" smooth="yes"/>
      <point x="85" y="46"/>
      <point x="152" y="-15"/>
    </contour>
  </outline>
</glyph>
<glyph name="t.Ssa" format="2">
  <advance width="1428"/>
  <unicode hex="0BB7"/>
  <outline>
    <contour>
      <point x="987" y="-292" type="line"/>
      <point x="1117" y="378" type="line" smooth="yes"/>
      <point x="1137" y="480"/>
      <point x="1081" y="534"/>
      <point x="999" y="534" type="curve" smooth="yes"/>
      <point x="889" y="534"/>
      <point x="819" y="459"/>
      <point x="819" y="359" type="curve" smooth="yes"/>
      <point x="819" y="256"/>
      <point x="909" y="196"/>
      <point x="1027" y="196" type="curve" smooth="yes"/>
      <point x="1090" y="196"/>
      <point x="1154" y="210"/>
      <point x="1221" y="249" type="curve"/>
      <point x="1181" y="49" type="line"/>
      <point x="630" y="49" type="line"/>
      <point x="688" y="115"/>
      <point x="718" y="185"/>
      <point x="718" y="268" type="curve" smooth="yes"/>
      <point x="718" y="428"/>
      <point x="608" y="534"/>
      <point x="429" y="534" type="curve" smooth="yes"/>
      <point x="224" y="534"/>
      <point x="61" y="384"/>
      <point x="61" y="201" type="curve" smooth="yes"/>
      <point x="61" y="68"/>
      <point x="147" y="-15"/>
      <point x="263" y="-15" type="curve" smooth="yes"/>
      <point x="392" y="-15"/>
      <point x="476" y="78"/>
      <point x="476" y="188" type="curve" smooth="yes"/>
      <point x="476" y="268"/>
      <point x="423" y="319"/>
      <point x="351" y="319" type="curve" smooth="yes"/>
      <point x="253" y="319"/>
      <point x="187" y="244"/>
      <point x="187" y="139" type="curve" smooth="yes"/>
      <point x="187" y="95"/>
      <point x="200" y="69"/>
      <point x="201" y="66" type="curve"/>
      <point x="182" y="49" type="line"/>
      <point x="251" y="40" type="line"/>
      <point x="242" y="60"/>
      <point x="235" y="101"/>
      <point x="235" y="132" type="curve" smooth="yes"/>
      <point x="235" y="201"/>
      <point x="272" y="252"/>
      <point x="327" y="252" type="curve" smooth="yes"/>
      <point x="358" y="252"/>
      <point x="378" y="226"/>
      <point x="378" y="183" type="curve" smooth="yes"/>
      <point x="378" y="101"/>
      <point x="318" y="58"/>
      <point x="243" y="57" type="curve"/>
      <point x="201" y="63" type="line"/>
      <point x="150" y="82"/>
      <point x="120" y="138"/>
      <point x="120" y="202" type="curve" smooth="yes"/>
      <point x="120" y="346"/>
      <point x="256" y="467"/>
      <point x="414" y="467" type="curve" smooth="yes"/>
      <point x="544" y="467"/>
      <point x="613" y="392"/>
      <point x="613" y="270" type="curve" smooth="yes"/>
      <point x="613" y="172"/>
      <point x="567" y="95"/>
      <point x="474" y="5" type="curve"/>
      <point x="475" y="0" type="line"/>
      <point x="1275" y="0" type="line"/>
      <point x="1360" y="437" type="line"/>
      <point x="1355" y="438" type="line"/>
      <point x="1256" y="323"/>
      <point x="1150" y="250"/>
      <point x="1033" y="250" type="curve" smooth="yes"/>
      <point x="930" y="250"/>
      <point x="884" y="289"/>
      <point x="884" y="360" type="curve" smooth="yes"/>
      <point x="884" y="431"/>
      <point x="924" y="473"/>
      <point x="971" y="473" type="curve" smooth="yes"/>
      <point x="1004" y="473"/>
      <point x="1027" y="443"/>
      <point x="1016" y="387" type="curve" smooth="yes"/>
      <point x="884" y="-292" type="line"/>
    </contour>
  </outline>
</glyph>
<glyph name="t.Sa" format="2">
  <advance width="1266"/>
  <unicode hex="0BB8"/>
  <outline>
    <contour>
      <point x="260" y="-15" type="curve" smooth="yes"/>
      <point x="380" y="-15"/>
      <point x="469" y="76"/>
      <point x="469" y="185" type="curve" smooth="yes"/>
      <point x="469" y="270"/>
      <point x="416" y="319"/>
      <point x="341" y="319" type="curve" smooth="yes"/>
      <point x="249" y="319"/>
      <point x="180" y="244"/>
      <point x="180" y="140" type="curve" smooth="yes"/>
      <point x="180" y="95"/>
      <point x="193" y="69"/>
      <point x="194" y="66" type="curve"/>
      <point x="175" y="49" type="line"/>
      <point x="244" y="40" type="line"/>
      <point x="234" y="61"/>
      <point x="228" y="102"/>
      <point x="228" y="129" type="curve" smooth="yes"/>
      <point x="228" y="199"/>
      <point x="269" y="252"/>
      <point x="318" y="252" type="curve" smooth="yes"/>
      <point x="352" y="252"/>
      <point x="371" y="226"/>
      <point x="371" y="181" type="curve" smooth="yes"/>
      <point x="371" y="101"/>
      <point x="311" y="58"/>
      <point x="236" y="57" type="curve"/>
      <point x="194" y="63" type="line"/>
      <point x="153" y="82"/>
      <point x="122" y="139"/>
      <point x="122" y="212" type="curve" smooth="yes"/>
      <point x="122" y="353"/>
      <point x="238" y="480"/>
      <point x="389" y="480" type="curve" smooth="yes"/>
      <point x="509" y="480"/>
      <point x="574" y="410"/>
      <point x="574" y="296" type="curve" smooth="yes"/>
      <point x="574" y="274"/>
      <point x="572" y="251"/>
      <point x="567" y="226" type="curve" smooth="yes"/>
      <point x="523" y="0" type="line"/>
      <point x="627" y="0" type="line"/>
      <point x="685" y="301" type="line" smooth="yes"/>
      <point x="712" y="441"/>
      <point x="764" y="486"/>
      <point x="801" y="486" type="curve" smooth="yes"/>
      <point x="836" y="486"/>
      <point x="850" y="456"/>
      <point x="850" y="393" type="curve" smooth="yes"/>
      <point x="850" y="298"/>
      <point x="797" y="224"/>
      <point x="797" y="128" type="curve" smooth="yes"/>
      <point x="797" y="36"/>
      <point x="847" y="-15"/>
      <point x="938" y="-15" type="curve" smooth="yes"/>
      <point x="1078" y="-15"/>
      <point x="1204" y="118"/>
      <point x="1204" y="313" type="curve" smooth="yes"/>
      <point x="1204" y="453"/>
      <point x="1151" y="548"/>
      <point x="1085" y="548" type="curve" smooth="yes"/>
      <point x="1053" y="548"/>
      <point x="1037" y="525"/>
      <point x="1037" y="503" type="curve" smooth="yes"/>
      <point x="1037" y="473"/>
      <point x="1065" y="458"/>
      <point x="1092" y="435" type="curve" smooth="yes"/>
      <point x="1116" y="414"/>
      <point x="1147" y="380"/>
      <point x="1147" y="295" type="curve" smooth="yes"/>
      <point x="1147" y="159"/>
      <point x="1054" y="44"/>
      <point x="965" y="44" type="curve" smooth="yes"/>
      <point x="916" y="44"/>
      <point x="892" y="77"/>
      <point x="892" y="137" type="curve" smooth="yes"/>
      <point x="892" y="192"/>
      <point x="945" y="293"/>
      <point x="945" y="391" type="curve" smooth="yes"/>
      <point x="945" y="487"/>
      <point x="889" y="534"/>
      <point x="818" y="534" type="curve" smooth="yes"/>
      <point x="740" y="534"/>
      <point x="675" y="481"/>
      <point x="646" y="335" type="curve"/>
      <point x="640" y="335" type="line"/>
      <point x="625" y="482"/>
      <point x="517" y="534"/>
      <point x="408" y="534" type="curve" smooth="yes"/>
      <point x="206" y="534"/>
      <point x="63" y="382"/>
      <point x="63" y="204" type="curve" smooth="yes"/>
      <point x="63" y="70"/>
      <point x="151" y="-15"/>
    </contour>
  </outline>
  <guideline angle="0" x="0" y="50"/>
</glyph>
<glyph name="t.Ha" format="2">
  <advance width="1569"/>
  <unicode hex="0BB9"/>
  <outline>
    <contour>
      <point x="-17" y="-252" type="curve" smooth="yes"/>
      <point x="10" y="-252"/>
      <point x="31" y="-233"/>
      <point x="40" y="-189" type="curve" smooth="yes"/>
      <point x="48" y="-149"/>
      <point x="61" y="-132"/>
      <point x="106" y="-132" type="curve" smooth="yes"/>
      <point x="1082" y="-132" type="line" smooth="yes"/>
      <point x="1333" y="-132"/>
      <point x="1500" y="33"/>
      <point x="1500" y="280" type="curve" smooth="yes"/>
      <point x="1500" y="443"/>
      <point x="1419" y="534"/>
      <point x="1298" y="534" type="curve" smooth="yes"/>
      <point x="1227" y="534"/>
      <point x="1168" y="503"/>
      <point x="1139" y="450" type="curve"/>
      <point x="1135" y="450" type="line"/>
      <point x="1121" y="505"/>
      <point x="1082" y="534"/>
      <point x="1012" y="534" type="curve" smooth="yes"/>
      <point x="931" y="534"/>
      <point x="876" y="486"/>
      <point x="859" y="400" type="curve" smooth="yes"/>
      <point x="782" y="0" type="line"/>
      <point x="845" y="0" type="line"/>
      <point x="923" y="403" type="line" smooth="yes"/>
      <point x="933" y="455"/>
      <point x="967" y="484"/>
      <point x="1003" y="484" type="curve" smooth="yes"/>
      <point x="1058" y="484"/>
      <point x="1077" y="435"/>
      <point x="1065" y="371" type="curve" smooth="yes"/>
      <point x="993" y="0" type="line"/>
      <point x="1095" y="0" type="line"/>
      <point x="1165" y="359" type="line" smooth="yes"/>
      <point x="1182" y="447"/>
      <point x="1237" y="484"/>
      <point x="1289" y="484" type="curve" smooth="yes"/>
      <point x="1360" y="484"/>
      <point x="1396" y="420"/>
      <point x="1396" y="279" type="curve" smooth="yes"/>
      <point x="1396" y="62"/>
      <point x="1268" y="-83"/>
      <point x="1076" y="-83" type="curve" smooth="yes"/>
      <point x="106" y="-83" type="line" smooth="yes"/>
      <point x="-6" y="-83"/>
      <point x="-58" y="-140"/>
      <point x="-58" y="-195" type="curve" smooth="yes"/>
      <point x="-58" y="-231"/>
      <point x="-45" y="-252"/>
    </contour>
    <contour>
      <point x="262" y="-15" type="curve" smooth="yes"/>
      <point x="391" y="-15"/>
      <point x="473" y="78"/>
      <point x="473" y="188" type="curve" smooth="yes"/>
      <point x="473" y="268"/>
      <point x="421" y="319"/>
      <point x="349" y="319" type="curve" smooth="yes"/>
      <point x="251" y="319"/>
      <point x="187" y="244"/>
      <point x="187" y="139" type="curve" smooth="yes"/>
      <point x="187" y="95"/>
      <point x="200" y="69"/>
      <point x="201" y="66" type="curve"/>
      <point x="182" y="49" type="line"/>
      <point x="251" y="40" type="line"/>
      <point x="242" y="60"/>
      <point x="235" y="101"/>
      <point x="235" y="132" type="curve" smooth="yes"/>
      <point x="235" y="201"/>
      <point x="270" y="252"/>
      <point x="325" y="252" type="curve" smooth="yes"/>
      <point x="356" y="252"/>
      <point x="375" y="226"/>
      <point x="375" y="183" type="curve" smooth="yes"/>
      <point x="375" y="101"/>
      <point x="318" y="58"/>
      <point x="243" y="57" type="curve"/>
      <point x="201" y="63" type="line"/>
      <point x="150" y="82"/>
      <point x="120" y="138"/>
      <point x="120" y="202" type="curve" smooth="yes"/>
      <point x="120" y="346"/>
      <point x="256" y="467"/>
      <point x="414" y="467" type="curve" smooth="yes"/>
      <point x="544" y="467"/>
      <point x="613" y="392"/>
      <point x="613" y="270" type="curve" smooth="yes"/>
      <point x="613" y="172"/>
      <point x="567" y="95"/>
      <point x="474" y="5" type="curve"/>
      <point x="475" y="0" type="line"/>
      <point x="805" y="0" type="line"/>
      <point x="811" y="49" type="line"/>
      <point x="630" y="49" type="line"/>
      <point x="688" y="115"/>
      <point x="718" y="185"/>
      <point x="718" y="268" type="curve" smooth="yes"/>
      <point x="718" y="428"/>
      <point x="608" y="534"/>
      <point x="429" y="534" type="curve" smooth="yes"/>
      <point x="224" y="534"/>
      <point x="61" y="384"/>
      <point x="61" y="201" type="curve" smooth="yes"/>
      <point x="61" y="68"/>
      <point x="146" y="-15"/>
    </contour>
  </outline>
</glyph>
<glyph name="t.VSignI" format="2">
  <advance width="213"/>
  <unicode hex="0BBF"/>
  <outline>
    <contour>
      <point x="57" y="0" type="line"/>
      <point x="142" y="367"/>
      <point x="188" y="509"/>
      <point x="188" y="623" type="curve" smooth="yes"/>
      <point x="188" y="774"/>
      <point x="121" y="858"/>
      <point x="0" y="858" type="curve" smooth="yes"/>
      <point x="-125" y="858"/>
      <point x="-222" y="774"/>
      <point x="-222" y="648" type="curve" smooth="yes"/>
      <point x="-222" y="603"/>
      <point x="-201" y="552"/>
      <point x="-172" y="524" type="curve"/>
      <point x="-173" y="519" type="line"/>
      <point x="-116" y="519" type="line"/>
      <point x="-148" y="553"/>
      <point x="-163" y="585"/>
      <point x="-163" y="637" type="curve" smooth="yes"/>
      <point x="-163" y="722"/>
      <point x="-94" y="778"/>
      <point x="-11" y="778" type="curve" smooth="yes"/>
      <point x="83" y="778"/>
      <point x="127" y="713"/>
      <point x="127" y="597" type="curve" smooth="yes"/>
      <point x="127" y="482"/>
      <point x="78" y="327"/>
      <point x="3" y="0" type="curve"/>
    </contour>
  </outline>
</glyph>
<glyph name="t.VSignIi" format="2">
  <unicode hex="0BC0"/>
  <outline>
    <contour>
      <point x="-146" y="519" type="line"/>
      <point x="-181" y="559"/>
      <point x="-193" y="595"/>
      <point x="-193" y="639" type="curve" smooth="yes"/>
      <point x="-193" y="744"/>
      <point x="-113" y="803"/>
      <point x="-31" y="803" type="curve" smooth="yes"/>
      <point x="29" y="803"/>
      <point x="87" y="778"/>
      <point x="87" y="710" type="curve" smooth="yes"/>
      <point x="87" y="656"/>
      <point x="50" y="631"/>
      <point x="19" y="631" type="curve" smooth="yes"/>
      <point x="-16" y="631"/>
      <point x="-31" y="659"/>
      <point x="-31" y="687" type="curve" smooth="yes"/>
      <point x="-31" y="720"/>
      <point x="-9" y="776"/>
      <point x="68" y="807" type="curve"/>
      <point x="-26" y="824" type="line"/>
      <point x="-17" y="800" type="line"/>
      <point x="-70" y="762"/>
      <point x="-88" y="719"/>
      <point x="-88" y="677" type="curve" smooth="yes"/>
      <point x="-88" y="620"/>
      <point x="-47" y="573"/>
      <point x="21" y="573" type="curve" smooth="yes"/>
      <point x="101" y="573"/>
      <point x="166" y="636"/>
      <point x="166" y="714" type="curve" smooth="yes"/>
      <point x="166" y="797"/>
      <point x="93" y="857"/>
      <point x="-21" y="857" type="curve" smooth="yes"/>
      <point x="-169" y="857"/>
      <point x="-255" y="755"/>
      <point x="-255" y="647" type="curve" smooth="yes"/>
      <point x="-255" y="597"/>
      <point x="-236" y="553"/>
      <point x="-208" y="524" type="curve"/>
      <point x="-209" y="519" type="line"/>
    </contour>
  </outline>
</glyph>
<glyph name="t.VSignU" format="2">
  <advance width="509"/>
  <unicode hex="0BC1"/>
  <outline>
    <contour>
      <point x="285" y="223" type="curve" smooth="yes"/>
      <point x="372" y="223"/>
      <point x="446" y="260"/>
      <point x="463" y="344" type="curve" smooth="yes"/>
      <point x="498" y="522" type="line"/>
      <point x="-154" y="522" type="line"/>
      <point x="-164" y="473" type="line"/>
      <point x="385" y="473" type="line"/>
      <point x="360" y="348" type="line" smooth="yes"/>
      <point x="350" y="296"/>
      <point x="323" y="273"/>
      <point x="274" y="273" type="curve" smooth="yes"/>
      <point x="232" y="273"/>
      <point x="209" y="295"/>
      <point x="209" y="334" type="curve" smooth="yes"/>
      <point x="209" y="342"/>
      <point x="210" y="351"/>
      <point x="212" y="360" type="curve" smooth="yes"/>
      <point x="237" y="491" type="line"/>
      <point x="174" y="491" type="line"/>
      <point x="150" y="369" type="line" smooth="yes"/>
      <point x="147" y="356"/>
      <point x="146" y="344"/>
      <point x="146" y="333" type="curve" smooth="yes"/>
      <point x="146" y="265"/>
      <point x="193" y="223"/>
    </contour>
  </outline>
</glyph>
<glyph name="t.VSignUu" format="2">
  <advance width="945"/>
  <unicode hex="0BC2"/>
  <outline>
    <contour>
      <point x="445" y="-15" type="curve" smooth="yes"/>
      <point x="723" y="-15"/>
      <point x="908" y="190"/>
      <point x="908" y="422" type="curve" smooth="yes"/>
      <point x="908" y="610"/>
      <point x="799" y="720"/>
      <point x="606" y="720" type="curve" smooth="yes"/>
      <point x="447" y="720"/>
      <point x="323" y="633"/>
      <point x="292" y="478" type="curve" smooth="yes"/>
      <point x="270" y="369" type="line" smooth="yes"/>
      <point x="267" y="356"/>
      <point x="266" y="344"/>
      <point x="266" y="333" type="curve" smooth="yes"/>
      <point x="266" y="265"/>
      <point x="313" y="223"/>
      <point x="405" y="223" type="curve" smooth="yes"/>
      <point x="492" y="223"/>
      <point x="566" y="260"/>
      <point x="583" y="344" type="curve" smooth="yes"/>
      <point x="618" y="522" type="line"/>
      <point x="-154" y="522" type="line"/>
      <point x="-164" y="473" type="line"/>
      <point x="505" y="473" type="line"/>
      <point x="480" y="348" type="line" smooth="yes"/>
      <point x="469" y="296"/>
      <point x="443" y="273"/>
      <point x="394" y="273" type="curve" smooth="yes"/>
      <point x="351" y="273"/>
      <point x="329" y="294"/>
      <point x="329" y="334" type="curve" smooth="yes"/>
      <point x="329" y="342"/>
      <point x="330" y="350"/>
      <point x="332" y="360" type="curve" smooth="yes"/>
      <point x="357" y="491" type="line" smooth="yes"/>
      <point x="377" y="596"/>
      <point x="469" y="666"/>
      <point x="596" y="666" type="curve" smooth="yes"/>
      <point x="728" y="666"/>
      <point x="803" y="574"/>
      <point x="803" y="419" type="curve" smooth="yes"/>
      <point x="803" y="219"/>
      <point x="660" y="34"/>
      <point x="446" y="34" type="curve" smooth="yes"/>
      <point x="240" y="34"/>
      <point x="132" y="158"/>
      <point x="132" y="326" type="curve" smooth="yes"/>
      <point x="132" y="347"/>
      <point x="134" y="367"/>
      <point x="137" y="389" type="curve"/>
      <point x="83" y="389" type="line"/>
      <point x="80" y="367"/>
      <point x="78" y="346"/>
      <point x="78" y="325" type="curve" smooth="yes"/>
      <point x="78" y="136"/>
      <point x="200" y="-15"/>
    </contour>
  </outline>
</glyph>
<glyph name="t.VSignE" format="2">
  <advance width="981"/>
  <unicode hex="0BC6"/>
  <outline>
    <contour>
      <point x="392" y="-15" type="curve" smooth="yes"/>
      <point x="583" y="-15"/>
      <point x="694" y="94"/>
      <point x="694" y="239" type="curve" smooth="yes"/>
      <point x="694" y="333"/>
      <point x="631" y="387"/>
      <point x="558" y="387" type="curve" smooth="yes"/>
      <point x="448" y="387"/>
      <point x="366" y="289"/>
      <point x="366" y="160" type="curve" smooth="yes"/>
      <point x="366" y="110"/>
      <point x="379" y="71"/>
      <point x="390" y="46" type="curve"/>
      <point x="377" y="28" type="line"/>
      <point x="442" y="28" type="line"/>
      <point x="430" y="67"/>
      <point x="417" y="112"/>
      <point x="417" y="162" type="curve" smooth="yes"/>
      <point x="417" y="250"/>
      <point x="471" y="320"/>
      <point x="529" y="320" type="curve" smooth="yes"/>
      <point x="576" y="320"/>
      <point x="596" y="287"/>
      <point x="596" y="229" type="curve" smooth="yes"/>
      <point x="596" y="121"/>
      <point x="511" y="44"/>
      <point x="389" y="44" type="curve" smooth="yes"/>
      <point x="249" y="44"/>
      <point x="153" y="163"/>
      <point x="153" y="352" type="curve" smooth="yes"/>
      <point x="153" y="608"/>
      <point x="358" y="775"/>
      <point x="599" y="775" type="curve" smooth="yes"/>
      <point x="779" y="775"/>
      <point x="873" y="690"/>
      <point x="873" y="503" type="curve" smooth="yes"/>
      <point x="873" y="422"/>
      <point x="855" y="360"/>
      <point x="775" y="0" type="curve"/>
      <point x="830" y="0" type="line"/>
      <point x="918" y="378"/>
      <point x="933" y="429"/>
      <point x="933" y="515" type="curve" smooth="yes"/>
      <point x="933" y="749"/>
      <point x="817" y="858"/>
      <point x="607" y="858" type="curve" smooth="yes"/>
      <point x="317" y="858"/>
      <point x="93" y="633"/>
      <point x="93" y="343" type="curve" smooth="yes"/>
      <point x="93" y="135"/>
      <point x="223" y="-15"/>
    </contour>
  </outline>
</glyph>
<glyph name="t.VSignEe" format="2">
  <advance width="837"/>
  <unicode hex="0BC7"/>
  <outline>
    <contour>
      <point x="443" y="-15" type="curve" smooth="yes"/>
      <point x="624" y="-15"/>
      <point x="770" y="104"/>
      <point x="770" y="237" type="curve" smooth="yes"/>
      <point x="770" y="324"/>
      <point x="708" y="381"/>
      <point x="632" y="381" type="curve" smooth="yes"/>
      <point x="539" y="381"/>
      <point x="464" y="294"/>
      <point x="464" y="171" type="curve" smooth="yes"/>
      <point x="464" y="118"/>
      <point x="478" y="75"/>
      <point x="499" y="36" type="curve"/>
      <point x="545" y="47" type="line"/>
      <point x="523" y="89"/>
      <point x="514" y="130"/>
      <point x="514" y="167" type="curve" smooth="yes"/>
      <point x="514" y="256"/>
      <point x="566" y="311"/>
      <point x="613" y="311" type="curve" smooth="yes"/>
      <point x="645" y="311"/>
      <point x="672" y="285"/>
      <point x="672" y="234" type="curve" smooth="yes"/>
      <point x="672" y="130"/>
      <point x="562" y="48"/>
      <point x="452" y="48" type="curve" smooth="yes"/>
      <point x="257" y="48"/>
      <point x="152" y="185"/>
      <point x="152" y="386" type="curve" smooth="yes"/>
      <point x="152" y="624"/>
      <point x="358" y="796"/>
      <point x="556" y="796" type="curve" smooth="yes"/>
      <point x="686" y="796"/>
      <point x="754" y="733"/>
      <point x="754" y="648" type="curve" smooth="yes"/>
      <point x="754" y="593"/>
      <point x="721" y="546"/>
      <point x="675" y="546" type="curve" smooth="yes"/>
      <point x="638" y="546"/>
      <point x="613" y="575"/>
      <point x="613" y="621" type="curve" smooth="yes"/>
      <point x="613" y="668"/>
      <point x="639" y="721"/>
      <point x="721" y="773" type="curve"/>
      <point x="677" y="799" type="line"/>
      <point x="604" y="754"/>
      <point x="557" y="679"/>
      <point x="557" y="607" type="curve" smooth="yes"/>
      <point x="557" y="533"/>
      <point x="608" y="479"/>
      <point x="684" y="479" type="curve" smooth="yes"/>
      <point x="778" y="479"/>
      <point x="850" y="562"/>
      <point x="850" y="652" type="curve" smooth="yes"/>
      <point x="850" y="770"/>
      <point x="738" y="858"/>
      <point x="572" y="858" type="curve" smooth="yes"/>
      <point x="354" y="858"/>
      <point x="92" y="684"/>
      <point x="92" y="383" type="curve" smooth="yes"/>
      <point x="92" y="140"/>
      <point x="220" y="-15"/>
    </contour>
  </outline>
  <guideline angle="0" x="0" y="0"/>
</glyph>
<glyph name="t.VSignAi" format="2">
  <advance width="1227"/>
  <unicode hex="0BC8"/>
  <outline>
    <contour>
      <point x="249" y="-15" type="curve" smooth="yes"/>
      <point x="376" y="-15"/>
      <point x="461" y="77"/>
      <point x="461" y="187" type="curve" smooth="yes"/>
      <point x="461" y="267"/>
      <point x="406" y="319"/>
      <point x="337" y="319" type="curve" smooth="yes"/>
      <point x="239" y="319"/>
      <point x="173" y="244"/>
      <point x="173" y="139" type="curve" smooth="yes"/>
      <point x="173" y="95"/>
      <point x="186" y="69"/>
      <point x="187" y="66" type="curve"/>
      <point x="168" y="49" type="line"/>
      <point x="237" y="40" type="line"/>
      <point x="228" y="60"/>
      <point x="221" y="101"/>
      <point x="221" y="132" type="curve" smooth="yes"/>
      <point x="221" y="201"/>
      <point x="258" y="252"/>
      <point x="313" y="252" type="curve" smooth="yes"/>
      <point x="341" y="252"/>
      <point x="363" y="225"/>
      <point x="363" y="182" type="curve" smooth="yes"/>
      <point x="363" y="100"/>
      <point x="304" y="58"/>
      <point x="229" y="57" type="curve"/>
      <point x="187" y="63" type="line"/>
      <point x="136" y="82"/>
      <point x="119" y="135"/>
      <point x="119" y="190" type="curve" smooth="yes"/>
      <point x="119" y="358"/>
      <point x="287" y="480"/>
      <point x="476" y="480" type="curve" smooth="yes"/>
      <point x="676" y="480"/>
      <point x="751" y="355"/>
      <point x="751" y="215" type="curve" smooth="yes"/>
      <point x="751" y="116"/>
      <point x="701" y="50"/>
      <point x="651" y="50" type="curve" smooth="yes"/>
      <point x="612" y="50"/>
      <point x="585" y="89"/>
      <point x="585" y="151" type="curve" smooth="yes"/>
      <point x="585" y="313"/>
      <point x="750" y="475"/>
      <point x="913" y="475" type="curve" smooth="yes"/>
      <point x="1011" y="475"/>
      <point x="1063" y="412"/>
      <point x="1063" y="294" type="curve" smooth="yes"/>
      <point x="1063" y="174"/>
      <point x="1002" y="87"/>
      <point x="903" y="26" type="curve"/>
      <point x="924" y="-15" type="line"/>
      <point x="1082" y="50"/>
      <point x="1168" y="158"/>
      <point x="1168" y="299" type="curve" smooth="yes"/>
      <point x="1168" y="446"/>
      <point x="1076" y="529"/>
      <point x="926" y="529" type="curve" smooth="yes"/>
      <point x="709" y="529"/>
      <point x="525" y="330"/>
      <point x="525" y="146" type="curve" smooth="yes"/>
      <point x="525" y="52"/>
      <point x="577" y="-15"/>
      <point x="662" y="-15" type="curve" smooth="yes"/>
      <point x="758" y="-15"/>
      <point x="855" y="68"/>
      <point x="855" y="215" type="curve" smooth="yes"/>
      <point x="855" y="397"/>
      <point x="702" y="534"/>
      <point x="489" y="534" type="curve" smooth="yes"/>
      <point x="259" y="534"/>
      <point x="60" y="387"/>
      <point x="60" y="187" type="curve" smooth="yes"/>
      <point x="60" y="65"/>
      <point x="133" y="-15"/>
    </contour>
  </outline>
</glyph>
<glyph name="t.Virama" format="2">
  <unicode hex="0BCD"/>
  <outline>
    <contour>
      <point x="-279" y="615" type="curve" smooth="yes"/>
      <point x="-232" y="615"/>
      <point x="-196" y="653"/>
      <point x="-196" y="698" type="curve" smooth="yes"/>
      <point x="-196" y="740"/>
      <point x="-223" y="767"/>
      <point x="-266" y="767" type="curve" smooth="yes"/>
      <point x="-313" y="767"/>
      <point x="-351" y="730"/>
      <point x="-351" y="685" type="curve" smooth="yes"/>
      <point x="-351" y="643"/>
      <point x="-323" y="615"/>
    </contour>
  </outline>
</glyph>
<glyph name="t.Om" format="2">
  <advance width="981"/>
  <unicode hex="0BD0"/>
  <outline>
    <contour>
      <point x="335" y="-413" type="curve" smooth="yes"/>
      <point x="552" y="-413"/>
      <point x="596" y="-326"/>
      <point x="635" y="-247" type="curve" smooth="yes"/>
      <point x="666" y="-184"/>
      <point x="687" y="-156"/>
      <point x="744" y="-149" type="curve"/>
      <point x="754" y="-99" type="line"/>
      <point x="743" y="-99" type="line" smooth="yes"/>
      <point x="575" y="-99"/>
      <point x="520" y="-24"/>
      <point x="520" y="65" type="curve" smooth="yes"/>
      <point x="520" y="123"/>
      <point x="551" y="179"/>
      <point x="607" y="212" type="curve"/>
      <point x="612" y="209" type="line"/>
      <point x="596" y="183"/>
      <point x="582" y="148"/>
      <point x="582" y="109" type="curve" smooth="yes"/>
      <point x="582" y="45"/>
      <point x="628" y="-9"/>
      <point x="706" y="-9" type="curve" smooth="yes"/>
      <point x="838" y="-9"/>
      <point x="908" y="103"/>
      <point x="908" y="229" type="curve" smooth="yes"/>
      <point x="908" y="420"/>
      <point x="747" y="534"/>
      <point x="517" y="534" type="curve" smooth="yes"/>
      <point x="240" y="534"/>
      <point x="58" y="393"/>
      <point x="58" y="204" type="curve" smooth="yes"/>
      <point x="58" y="105"/>
      <point x="115" y="25"/>
      <point x="227" y="25" type="curve" smooth="yes"/>
      <point x="360" y="25"/>
      <point x="432" y="108"/>
      <point x="432" y="204" type="curve" smooth="yes"/>
      <point x="432" y="278"/>
      <point x="382" y="326"/>
      <point x="322" y="326" type="curve" smooth="yes"/>
      <point x="231" y="326"/>
      <point x="165" y="258"/>
      <point x="165" y="153" type="curve" smooth="yes"/>
      <point x="165" y="129"/>
      <point x="167" y="107"/>
      <point x="171" y="95" type="curve"/>
      <point x="149" y="77" type="line"/>
      <point x="223" y="67" type="line"/>
      <point x="215" y="85"/>
      <point x="212" y="115"/>
      <point x="212" y="144" type="curve" smooth="yes"/>
      <point x="212" y="214"/>
      <point x="256" y="266"/>
      <point x="298" y="266" type="curve" smooth="yes"/>
      <point x="329" y="266"/>
      <point x="347" y="244"/>
      <point x="347" y="202" type="curve" smooth="yes"/>
      <point x="347" y="138"/>
      <point x="279" y="85"/>
      <point x="216" y="85" type="curve"/>
      <point x="182" y="88" type="line"/>
      <point x="135" y="103"/>
      <point x="117" y="150"/>
      <point x="117" y="209" type="curve" smooth="yes"/>
      <point x="117" y="379"/>
      <point x="308" y="480"/>
      <point x="500" y="480" type="curve" smooth="yes"/>
      <point x="703" y="480"/>
      <point x="818" y="390"/>
      <point x="818" y="221" type="curve" smooth="yes"/>
      <point x="818" y="127"/>
      <point x="768" y="55"/>
      <point x="707" y="55" type="curve" smooth="yes"/>
      <point x="657" y="55"/>
      <point x="636" y="83"/>
      <point x="636" y="128" type="curve" smooth="yes"/>
      <point x="636" y="171"/>
      <point x="658" y="217"/>
      <point x="688" y="260" type="curve"/>
      <point x="643" y="290" type="line"/>
      <point x="530" y="228"/>
      <point x="468" y="163"/>
      <point x="468" y="56" type="curve" smooth="yes"/>
      <point x="468" y="-36"/>
      <point x="522" y="-103"/>
      <point x="647" y="-134" type="curve"/>
      <point x="646" y="-137" type="line"/>
      <point x="610" y="-154"/>
      <point x="584" y="-190"/>
      <point x="562" y="-238" type="curve" smooth="yes"/>
      <point x="534" y="-299"/>
      <point x="493" y="-365"/>
      <point x="330" y="-365" type="curve" smooth="yes"/>
      <point x="178" y="-365"/>
      <point x="109" y="-312"/>
      <point x="109" y="-229" type="curve" smooth="yes"/>
      <point x="109" y="-171"/>
      <point x="143" y="-152"/>
      <point x="166" y="-152" type="curve" smooth="yes"/>
      <point x="192" y="-152"/>
      <point x="203" y="-177"/>
      <point x="197" y="-207" type="curve" smooth="yes"/>
      <point x="183" y="-278" type="line"/>
      <point x="472" y="-278" type="line"/>
      <point x="490" y="-185" type="line" smooth="yes"/>
      <point x="504" y="-113"/>
      <point x="455" y="-87"/>
      <point x="416" y="-87" type="curve" smooth="yes"/>
      <point x="368" y="-87"/>
      <point x="326" y="-111"/>
      <point x="313" y="-180" type="curve" smooth="yes"/>
      <point x="299" y="-255" type="line"/>
      <point x="347" y="-255" type="line"/>
      <point x="361" y="-181" type="line" smooth="yes"/>
      <point x="368" y="-146"/>
      <point x="388" y="-130"/>
      <point x="409" y="-130" type="curve" smooth="yes"/>
      <point x="436" y="-130"/>
      <point x="450" y="-145"/>
      <point x="443" y="-183" type="curve" smooth="yes"/>
      <point x="433" y="-235" type="line"/>
      <point x="240" y="-235" type="line"/>
      <point x="245" y="-210" type="line" smooth="yes"/>
      <point x="257" y="-149"/>
      <point x="228" y="-109"/>
      <point x="175" y="-109" type="curve" smooth="yes"/>
      <point x="119" y="-109"/>
      <point x="60" y="-147"/>
      <point x="60" y="-232" type="curve" smooth="yes"/>
      <point x="60" y="-337"/>
      <point x="152" y="-413"/>
    </contour>
    <contour>
      <point x="380" y="-51" type="curve" smooth="yes"/>
      <point x="405" y="-51"/>
      <point x="424" y="-31"/>
      <point x="424" y="-7" type="curve" smooth="yes"/>
      <point x="424" y="15"/>
      <point x="408" y="29"/>
      <point x="386" y="29" type="curve" smooth="yes"/>
      <point x="361" y="29"/>
      <point x="342" y="10"/>
      <point x="342" y="-14" type="curve" smooth="yes"/>
      <point x="342" y="-36"/>
      <point x="357" y="-51"/>
    </contour>
  </outline>
  <guideline angle="0" x="0" y="0"/>
</glyph>
<glyph name="t.Zero" format="2">
  <advance width="696"/>
  <unicode hex="0BE6"/>
  <outline>
    <contour>
      <point x="299" y="-15" type="curve" smooth="yes"/>
      <point x="501" y="-15"/>
      <point x="656" y="177"/>
      <point x="656" y="419" type="curve" smooth="yes"/>
      <point x="656" y="594"/>
      <point x="565" y="700"/>
      <point x="423" y="700" type="curve" smooth="yes"/>
      <point x="237" y="700"/>
      <point x="79" y="517"/>
      <point x="79" y="274" type="curve" smooth="yes"/>
      <point x="79" y="106"/>
      <point x="155" y="-15"/>
    </contour>
    <contour>
      <point x="299" y="58" type="curve" smooth="yes"/>
      <point x="185" y="58"/>
      <point x="139" y="148"/>
      <point x="139" y="270" type="curve" smooth="yes"/>
      <point x="139" y="483"/>
      <point x="276" y="632"/>
      <point x="405" y="632" type="curve" smooth="yes"/>
      <point x="499" y="632"/>
      <point x="551" y="554"/>
      <point x="551" y="420" type="curve" smooth="yes"/>
      <point x="551" y="273"/>
      <point x="469" y="58"/>
    </contour>
  </outline>
</glyph>
<glyph name="t.Two" format="2">
  <advance width="1008"/>
  <unicode hex="0BE8"/>
  <outline>
    <contour>
      <point x="351" y="137" type="line"/>
      <point x="538" y="137"/>
      <point x="653" y="223"/>
      <point x="653" y="351" type="curve" smooth="yes"/>
      <point x="653" y="460"/>
      <point x="554" y="534"/>
      <point x="410" y="534" type="curve" smooth="yes"/>
      <point x="252" y="534"/>
      <point x="130" y="444"/>
      <point x="130" y="310" type="curve" smooth="yes"/>
      <point x="130" y="256"/>
      <point x="153" y="211"/>
      <point x="190" y="183" type="curve"/>
    </contour>
    <contour>
      <point x="938" y="0" type="line"/>
      <point x="948" y="49" type="line"/>
      <point x="171" y="49" type="line" smooth="yes"/>
      <point x="131" y="49"/>
      <point x="108" y="64"/>
      <point x="108" y="90" type="curve" smooth="yes"/>
      <point x="108" y="120"/>
      <point x="136" y="137"/>
      <point x="185" y="137" type="curve" smooth="yes"/>
      <point x="351" y="137" type="line"/>
      <point x="185" y="216" type="line"/>
      <point x="180" y="188" type="line"/>
      <point x="83" y="186"/>
      <point x="33" y="151"/>
      <point x="33" y="86" type="curve" smooth="yes"/>
      <point x="33" y="35"/>
      <point x="73" y="0"/>
      <point x="141" y="0" type="curve" smooth="yes"/>
    </contour>
    <contour>
      <point x="352" y="183" type="curve" smooth="yes"/>
      <point x="242" y="183"/>
      <point x="189" y="226"/>
      <point x="189" y="313" type="curve" smooth="yes"/>
      <point x="189" y="413"/>
      <point x="280" y="480"/>
      <point x="391" y="480" type="curve" smooth="yes"/>
      <point x="486" y="480"/>
      <point x="548" y="426"/>
      <point x="548" y="350" type="curve" smooth="yes"/>
      <point x="548" y="249"/>
      <point x="466" y="183"/>
    </contour>
  </outline>
</glyph>
<glyph name="t.Three" format="2">
  <advance width="954"/>
  <unicode hex="0BE9"/>
  <outline>
    <contour>
      <point x="121" y="0" type="line"/>
      <point x="213" y="473" type="line"/>
      <point x="710" y="473" type="line"/>
      <point x="719" y="522" type="line"/>
      <point x="158" y="522" type="line"/>
      <point x="57" y="0" type="line"/>
    </contour>
    <contour>
      <point x="884" y="0" type="line"/>
      <point x="894" y="49" type="line"/>
      <point x="286" y="49" type="line"/>
      <point x="276" y="0" type="line"/>
    </contour>
    <contour>
      <point x="629" y="29" type="line"/>
      <point x="623" y="51" type="line"/>
      <point x="665" y="99"/>
      <point x="689" y="152"/>
      <point x="689" y="205" type="curve" smooth="yes"/>
      <point x="689" y="286"/>
      <point x="631" y="348"/>
      <point x="550" y="348" type="curve" smooth="yes"/>
      <point x="507" y="348"/>
      <point x="468" y="330"/>
      <point x="442" y="303" type="curve"/>
      <point x="413" y="303" type="line"/>
      <point x="435" y="276" type="line"/>
      <point x="477" y="493" type="line"/>
      <point x="374" y="493" type="line"/>
      <point x="300" y="113" type="line"/>
      <point x="403" y="113" type="line"/>
      <point x="419" y="195" type="line" smooth="yes"/>
      <point x="429" y="248"/>
      <point x="469" y="292"/>
      <point x="517" y="292" type="curve" smooth="yes"/>
      <point x="561" y="292"/>
      <point x="584" y="252"/>
      <point x="584" y="207" type="curve" smooth="yes"/>
      <point x="584" y="150"/>
      <point x="548" y="88"/>
      <point x="484" y="29" type="curve"/>
    </contour>
  </outline>
</glyph>
<glyph name="t.Five" format="2">
  <advance width="1153"/>
  <unicode hex="0BEB"/>
  <outline>
    <contour>
      <point x="510" y="-339" type="curve" smooth="yes"/>
      <point x="841" y="-339"/>
      <point x="1039" y="-96"/>
      <point x="1039" y="142" type="curve" smooth="yes"/>
      <point x="1039" y="266"/>
      <point x="977" y="335"/>
      <point x="887" y="335" type="curve" smooth="yes"/>
      <point x="838" y="335"/>
      <point x="801" y="318"/>
      <point x="776" y="290" type="curve"/>
      <point x="747" y="290" type="line"/>
      <point x="769" y="263" type="line"/>
      <point x="813" y="493" type="line"/>
      <point x="710" y="493" type="line"/>
      <point x="615" y="0" type="line"/>
      <point x="718" y="0" type="line"/>
      <point x="755" y="190" type="line" smooth="yes"/>
      <point x="764" y="238"/>
      <point x="806" y="279"/>
      <point x="859" y="279" type="curve" smooth="yes"/>
      <point x="909" y="279"/>
      <point x="934" y="235"/>
      <point x="934" y="144" type="curve" smooth="yes"/>
      <point x="934" y="-106"/>
      <point x="768" y="-283"/>
      <point x="519" y="-283" type="curve" smooth="yes"/>
      <point x="286" y="-283"/>
      <point x="115" y="-128"/>
      <point x="115" y="166" type="curve" smooth="yes"/>
      <point x="115" y="485"/>
      <point x="378" y="776"/>
      <point x="692" y="776" type="curve" smooth="yes"/>
      <point x="949" y="776"/>
      <point x="1091" y="652"/>
      <point x="1085" y="425" type="curve"/>
      <point x="1130" y="425" type="line"/>
      <point x="1131" y="437"/>
      <point x="1131" y="449"/>
      <point x="1131" y="460" type="curve" smooth="yes"/>
      <point x="1131" y="719"/>
      <point x="972" y="858"/>
      <point x="710" y="858" type="curve" smooth="yes"/>
      <point x="345" y="858"/>
      <point x="56" y="538"/>
      <point x="56" y="160" type="curve" smooth="yes"/>
      <point x="56" y="-154"/>
      <point x="255" y="-339"/>
    </contour>
    <contour>
      <point x="451" y="0" type="line"/>
      <point x="543" y="473" type="line"/>
      <point x="961" y="473" type="line"/>
      <point x="971" y="522" type="line"/>
      <point x="489" y="522" type="line"/>
      <point x="387" y="0" type="line"/>
    </contour>
  </outline>
</glyph>
<glyph name="t.Six" format="2">
  <advance width="1070"/>
  <unicode hex="0BEC"/>
  <outline>
    <contour>
      <point x="263" y="-15" type="curve" smooth="yes"/>
      <point x="410" y="-15"/>
      <point x="482" y="37"/>
      <point x="502" y="141" type="curve" smooth="yes"/>
      <point x="571" y="493" type="line"/>
      <point x="467" y="493" type="line"/>
      <point x="399" y="143" type="line" smooth="yes"/>
      <point x="385" y="73"/>
      <point x="344" y="39"/>
      <point x="267" y="39" type="curve" smooth="yes"/>
      <point x="156" y="39"/>
      <point x="92" y="102"/>
      <point x="92" y="171" type="curve" smooth="yes"/>
      <point x="92" y="225"/>
      <point x="125" y="242"/>
      <point x="191" y="242" type="curve" smooth="yes"/>
      <point x="571" y="242" type="line" smooth="yes"/>
      <point x="615" y="242"/>
      <point x="632" y="213"/>
      <point x="623" y="169" type="curve" smooth="yes"/>
      <point x="590" y="0" type="line"/>
      <point x="693" y="0" type="line"/>
      <point x="725" y="167" type="line" smooth="yes"/>
      <point x="735" y="218"/>
      <point x="760" y="242"/>
      <point x="803" y="242" type="curve" smooth="yes"/>
      <point x="1019" y="242" type="line"/>
      <point x="1028" y="291" type="line"/>
      <point x="795" y="291" type="line" smooth="yes"/>
      <point x="747" y="291"/>
      <point x="707" y="268"/>
      <point x="686" y="227" type="curve"/>
      <point x="683" y="227" type="line"/>
      <point x="674" y="269"/>
      <point x="642" y="291"/>
      <point x="579" y="291" type="curve" smooth="yes"/>
      <point x="188" y="291" type="line" smooth="yes"/>
      <point x="79" y="291"/>
      <point x="33" y="239"/>
      <point x="33" y="165" type="curve" smooth="yes"/>
      <point x="33" y="80"/>
      <point x="123" y="-15"/>
    </contour>
    <contour>
      <point x="273" y="271" type="line"/>
      <point x="313" y="473" type="line"/>
      <point x="741" y="473" type="line"/>
      <point x="750" y="522" type="line"/>
      <point x="259" y="522" type="line"/>
      <point x="210" y="271" type="line"/>
    </contour>
    <contour>
      <point x="911" y="0" type="line"/>
      <point x="961" y="262" type="line"/>
      <point x="859" y="262" type="line"/>
      <point x="809" y="0" type="line"/>
    </contour>
  </outline>
</glyph>
<glyph name="t.Eight" format="2">
  <advance width="1194"/>
  <unicode hex="0BEE"/>
  <outline>
    <contour>
      <point x="355" y="-75" type="curve" smooth="yes"/>
      <point x="530" y="-75"/>
      <point x="696" y="-9"/>
      <point x="791" y="128" type="curve" smooth="yes"/>
      <point x="835" y="191"/>
      <point x="860" y="263"/>
      <point x="860" y="326" type="curve" smooth="yes"/>
      <point x="860" y="435"/>
      <point x="791" y="534"/>
      <point x="642" y="534" type="curve" smooth="yes"/>
      <point x="500" y="534"/>
      <point x="387" y="439"/>
      <point x="387" y="304" type="curve" smooth="yes"/>
      <point x="387" y="245"/>
      <point x="408" y="200"/>
      <point x="428" y="172" type="curve"/>
      <point x="405" y="146" type="line"/>
      <point x="507" y="150" type="line"/>
      <point x="471" y="185"/>
      <point x="446" y="242"/>
      <point x="446" y="300" type="curve" smooth="yes"/>
      <point x="446" y="402"/>
      <point x="528" y="476"/>
      <point x="624" y="476" type="curve" smooth="yes"/>
      <point x="716" y="476"/>
      <point x="755" y="414"/>
      <point x="755" y="334" type="curve" smooth="yes"/>
      <point x="755" y="267"/>
      <point x="725" y="194"/>
      <point x="687" y="138" type="curve" smooth="yes"/>
      <point x="624" y="46"/>
      <point x="512" y="-28"/>
      <point x="348" y="-28" type="curve" smooth="yes"/>
      <point x="176" y="-28"/>
      <point x="85" y="44"/>
      <point x="85" y="92" type="curve" smooth="yes"/>
      <point x="85" y="104"/>
      <point x="91" y="121"/>
      <point x="121" y="121" type="curve" smooth="yes"/>
      <point x="983" y="121" type="line"/>
      <point x="993" y="170" type="line"/>
      <point x="98" y="170" type="line" smooth="yes"/>
      <point x="39" y="170"/>
      <point x="14" y="142"/>
      <point x="14" y="103" type="curve" smooth="yes"/>
      <point x="14" y="7"/>
      <point x="149" y="-75"/>
    </contour>
    <contour>
      <point x="1004" y="-188" type="line"/>
      <point x="1142" y="522" type="line"/>
      <point x="1041" y="522" type="line"/>
      <point x="903" y="-188" type="line"/>
    </contour>
  </outline>
</glyph>
<glyph name="t.Ten" format="2">
  <advance width="899"/>
  <unicode hex="0BF0"/>
  <outline>
    <contour>
      <point x="218" y="-15" type="curve" smooth="yes"/>
      <point x="285" y="-15"/>
      <point x="342" y="18"/>
      <point x="373" y="86" type="curve"/>
      <point x="375" y="86" type="line"/>
      <point x="390" y="23"/>
      <point x="437" y="-15"/>
      <point x="531" y="-15" type="curve" smooth="yes"/>
      <point x="734" y="-15"/>
      <point x="865" y="220"/>
      <point x="865" y="447" type="curve" smooth="yes"/>
      <point x="865" y="696"/>
      <point x="743" y="838"/>
      <point x="535" y="838" type="curve" smooth="yes"/>
      <point x="504" y="838"/>
      <point x="465" y="834"/>
      <point x="427" y="828" type="curve"/>
      <point x="433" y="743" type="line"/>
      <point x="473" y="752"/>
      <point x="501" y="756"/>
      <point x="535" y="756" type="curve" smooth="yes"/>
      <point x="719" y="756"/>
      <point x="806" y="636"/>
      <point x="806" y="429" type="curve" smooth="yes"/>
      <point x="806" y="246"/>
      <point x="687" y="41"/>
      <point x="544" y="41" type="curve" smooth="yes"/>
      <point x="462" y="41"/>
      <point x="423" y="72"/>
      <point x="443" y="174" type="curve" smooth="yes"/>
      <point x="510" y="522" type="line"/>
      <point x="408" y="522" type="line"/>
      <point x="334" y="144" type="line" smooth="yes"/>
      <point x="321" y="76"/>
      <point x="281" y="43"/>
      <point x="238" y="43" type="curve" smooth="yes"/>
      <point x="191" y="43"/>
      <point x="170" y="78"/>
      <point x="182" y="141" type="curve" smooth="yes"/>
      <point x="257" y="522" type="line"/>
      <point x="154" y="522" type="line"/>
      <point x="83" y="156" type="line" smooth="yes"/>
      <point x="62" y="46"/>
      <point x="111" y="-15"/>
    </contour>
  </outline>
</glyph>
<glyph name="t.OneHundred" format="2">
  <advance width="900"/>
  <unicode hex="0BF1"/>
  <outline>
    <contour>
      <point x="121" y="0" type="line"/>
      <point x="196" y="386" type="line" smooth="yes"/>
      <point x="207" y="444"/>
      <point x="240" y="484"/>
      <point x="287" y="484" type="curve" smooth="yes"/>
      <point x="325" y="484"/>
      <point x="353" y="457"/>
      <point x="353" y="406" type="curve" smooth="yes"/>
      <point x="353" y="396"/>
      <point x="352" y="385"/>
      <point x="350" y="373" type="curve" smooth="yes"/>
      <point x="277" y="0" type="line"/>
      <point x="344" y="0" type="line"/>
      <point x="436" y="473" type="line"/>
      <point x="914" y="473" type="line"/>
      <point x="923" y="522" type="line"/>
      <point x="392" y="522" type="line"/>
      <point x="380" y="455" type="line"/>
      <point x="412" y="482" type="line"/>
      <point x="383" y="482" type="line"/>
      <point x="362" y="515"/>
      <point x="327" y="534"/>
      <point x="285" y="534" type="curve" smooth="yes"/>
      <point x="216" y="534"/>
      <point x="154" y="496"/>
      <point x="132" y="384" type="curve" smooth="yes"/>
      <point x="57" y="0" type="line"/>
    </contour>
    <contour>
      <point x="662" y="0" type="line"/>
      <point x="758" y="493" type="line"/>
      <point x="655" y="493" type="line"/>
      <point x="559" y="0" type="line"/>
    </contour>
  </outline>
</glyph>
<glyph name="t.OneThousand" format="2">
  <advance width="1094"/>
  <unicode hex="0BF2"/>
  <outline>
    <contour>
      <point x="263" y="-15" type="curve" smooth="yes"/>
      <point x="436" y="-15"/>
      <point x="486" y="58"/>
      <point x="502" y="141" type="curve" smooth="yes"/>
      <point x="570" y="493" type="line"/>
      <point x="466" y="493" type="line"/>
      <point x="399" y="143" type="line" smooth="yes"/>
      <point x="386" y="73"/>
      <point x="342" y="39"/>
      <point x="267" y="39" type="curve" smooth="yes"/>
      <point x="156" y="39"/>
      <point x="92" y="105"/>
      <point x="92" y="174" type="curve" smooth="yes"/>
      <point x="92" y="228"/>
      <point x="124" y="242"/>
      <point x="190" y="242" type="curve"/>
      <point x="985" y="242" type="line"/>
      <point x="994" y="291" type="line"/>
      <point x="187" y="291" type="line"/>
      <point x="78" y="291"/>
      <point x="33" y="242"/>
      <point x="33" y="168" type="curve" smooth="yes"/>
      <point x="33" y="83"/>
      <point x="123" y="-15"/>
    </contour>
    <contour>
      <point x="450" y="-252" type="curve" smooth="yes"/>
      <point x="477" y="-252"/>
      <point x="498" y="-233"/>
      <point x="507" y="-189" type="curve" smooth="yes"/>
      <point x="515" y="-149"/>
      <point x="528" y="-131"/>
      <point x="573" y="-131" type="curve" smooth="yes"/>
      <point x="740" y="-131" type="line" smooth="yes"/>
      <point x="918" y="-131"/>
      <point x="995" y="-51"/>
      <point x="995" y="46" type="curve" smooth="yes"/>
      <point x="995" y="132"/>
      <point x="934" y="168"/>
      <point x="851" y="168" type="curve" smooth="yes"/>
      <point x="645" y="168" type="line" smooth="yes"/>
      <point x="566" y="168"/>
      <point x="541" y="128"/>
      <point x="541" y="80" type="curve" smooth="yes"/>
      <point x="541" y="21"/>
      <point x="584" y="-27"/>
      <point x="665" y="-27" type="curve" smooth="yes"/>
      <point x="770" y="-27"/>
      <point x="807" y="11"/>
      <point x="822" y="86" type="curve" smooth="yes"/>
      <point x="857" y="262" type="line"/>
      <point x="771" y="262" type="line"/>
      <point x="738" y="88" type="line" smooth="yes"/>
      <point x="729" y="39"/>
      <point x="708" y="19"/>
      <point x="665" y="19" type="curve" smooth="yes"/>
      <point x="627" y="19"/>
      <point x="594" y="38"/>
      <point x="594" y="81" type="curve" smooth="yes"/>
      <point x="594" y="108"/>
      <point x="608" y="121"/>
      <point x="640" y="121" type="curve" smooth="yes"/>
      <point x="833" y="121" type="line" smooth="yes"/>
      <point x="869" y="121"/>
      <point x="921" y="121"/>
      <point x="921" y="42" type="curve" smooth="yes"/>
      <point x="921" y="-41"/>
      <point x="863" y="-83"/>
      <point x="738" y="-83" type="curve" smooth="yes"/>
      <point x="573" y="-83" type="line" smooth="yes"/>
      <point x="461" y="-83"/>
      <point x="409" y="-140"/>
      <point x="409" y="-195" type="curve" smooth="yes"/>
      <point x="409" y="-231"/>
      <point x="422" y="-252"/>
    </contour>
    <contour>
      <point x="272" y="271" type="line"/>
      <point x="312" y="473" type="line"/>
      <point x="771" y="473" type="line"/>
      <point x="780" y="522" type="line"/>
      <point x="258" y="522" type="line"/>
      <point x="209" y="271" type="line"/>
    </contour>
  </outline>
</glyph>
<glyph name="t.Day" format="2">
  <advance width="898"/>
  <unicode hex="0BF3"/>
  <outline>
    <contour>
      <point x="263" y="-15" type="curve" smooth="yes"/>
      <point x="392" y="-15"/>
      <point x="476" y="78"/>
      <point x="476" y="188" type="curve" smooth="yes"/>
      <point x="476" y="268"/>
      <point x="423" y="319"/>
      <point x="351" y="319" type="curve" smooth="yes"/>
      <point x="253" y="319"/>
      <point x="187" y="244"/>
      <point x="187" y="139" type="curve" smooth="yes"/>
      <point x="187" y="95"/>
      <point x="200" y="69"/>
      <point x="201" y="66" type="curve"/>
      <point x="182" y="49" type="line"/>
      <point x="251" y="40" type="line"/>
      <point x="242" y="60"/>
      <point x="235" y="101"/>
      <point x="235" y="132" type="curve" smooth="yes"/>
      <point x="235" y="201"/>
      <point x="272" y="252"/>
      <point x="327" y="252" type="curve" smooth="yes"/>
      <point x="358" y="252"/>
      <point x="378" y="226"/>
      <point x="378" y="183" type="curve" smooth="yes"/>
      <point x="378" y="101"/>
      <point x="318" y="58"/>
      <point x="243" y="57" type="curve"/>
      <point x="201" y="63" type="line"/>
      <point x="150" y="82"/>
      <point x="120" y="138"/>
      <point x="120" y="202" type="curve" smooth="yes"/>
      <point x="120" y="356"/>
      <point x="266" y="467"/>
      <point x="414" y="467" type="curve" smooth="yes"/>
      <point x="544" y="467"/>
      <point x="613" y="391"/>
      <point x="613" y="271" type="curve" smooth="yes"/>
      <point x="613" y="172"/>
      <point x="565" y="95"/>
      <point x="472" y="5" type="curve"/>
      <point x="473" y="0" type="line"/>
      <point x="828" y="0" type="line"/>
      <point x="837" y="49" type="line"/>
      <point x="628" y="49" type="line"/>
      <point x="690" y="121"/>
      <point x="718" y="195"/>
      <point x="718" y="272" type="curve" smooth="yes"/>
      <point x="718" y="426"/>
      <point x="608" y="534"/>
      <point x="430" y="534" type="curve" smooth="yes"/>
      <point x="241" y="534"/>
      <point x="61" y="400"/>
      <point x="61" y="201" type="curve" smooth="yes"/>
      <point x="61" y="68"/>
      <point x="147" y="-15"/>
    </contour>
  </outline>
</glyph>
<glyph name="t.Month" format="2">
  <advance width="1149"/>
  <unicode hex="0BF4"/>
  <outline>
    <contour>
      <point x="728" y="0" type="line" smooth="yes"/>
      <point x="858" y="0"/>
      <point x="902" y="115"/>
      <point x="902" y="247" type="curve" smooth="yes"/>
      <point x="902" y="362"/>
      <point x="856" y="458"/>
      <point x="785" y="505" type="curve" smooth="yes"/>
      <point x="749" y="529"/>
      <point x="730" y="575"/>
      <point x="730" y="617" type="curve" smooth="yes"/>
      <point x="730" y="723"/>
      <point x="800" y="778"/>
      <point x="884" y="778" type="curve" smooth="yes"/>
      <point x="949" y="778"/>
      <point x="982" y="745"/>
      <point x="982" y="695" type="curve" smooth="yes"/>
      <point x="982" y="653"/>
      <point x="958" y="623"/>
      <point x="925" y="623" type="curve" smooth="yes"/>
      <point x="898" y="623"/>
      <point x="880" y="644"/>
      <point x="880" y="679" type="curve" smooth="yes"/>
      <point x="880" y="762"/>
      <point x="981" y="819"/>
      <point x="1047" y="819" type="curve" smooth="yes"/>
      <point x="1121" y="819"/>
      <point x="1161" y="782"/>
      <point x="1146" y="702" type="curve" smooth="yes"/>
      <point x="1123" y="582" type="line"/>
      <point x="1219" y="582" type="line"/>
      <point x="1242" y="699" type="line" smooth="yes"/>
      <point x="1254" y="761"/>
      <point x="1283" y="785"/>
      <point x="1318" y="785" type="curve" smooth="yes"/>
      <point x="1341" y="785"/>
      <point x="1364" y="778"/>
      <point x="1382" y="765" type="curve"/>
      <point x="1421" y="828" type="line"/>
      <point x="1395" y="847"/>
      <point x="1367" y="857"/>
      <point x="1337" y="857" type="curve" smooth="yes"/>
      <point x="1283" y="857"/>
      <point x="1246" y="826"/>
      <point x="1224" y="778" type="curve"/>
      <point x="1220" y="778" type="line"/>
      <point x="1202" y="833"/>
      <point x="1149" y="864"/>
      <point x="1068" y="864" type="curve" smooth="yes"/>
      <point x="962" y="864"/>
      <point x="832" y="777"/>
      <point x="832" y="675" type="curve" smooth="yes"/>
      <point x="832" y="616"/>
      <point x="873" y="575"/>
      <point x="934" y="575" type="curve" smooth="yes"/>
      <point x="1005" y="575"/>
      <point x="1062" y="626"/>
      <point x="1062" y="701" type="curve" smooth="yes"/>
      <point x="1062" y="782"/>
      <point x="993" y="825"/>
      <point x="898" y="825" type="curve" smooth="yes"/>
      <point x="771" y="825"/>
      <point x="668" y="749"/>
      <point x="668" y="622" type="curve" smooth="yes"/>
      <point x="668" y="587"/>
      <point x="686" y="553"/>
      <point x="702" y="536" type="curve"/>
      <point x="687" y="513" type="line"/>
      <point x="722" y="529" type="line"/>
      <point x="707" y="534"/>
      <point x="694" y="534"/>
      <point x="679" y="534" type="curve" smooth="yes"/>
      <point x="587" y="534"/>
      <point x="525" y="485"/>
      <point x="506" y="388" type="curve" smooth="yes"/>
      <point x="436" y="33" type="line"/>
      <point x="540" y="33" type="line"/>
      <point x="607" y="375" type="line" smooth="yes"/>
      <point x="621" y="447"/>
      <point x="650" y="480"/>
      <point x="693" y="480" type="curve" smooth="yes"/>
      <point x="782" y="480"/>
      <point x="843" y="375"/>
      <point x="843" y="242" type="curve" smooth="yes"/>
      <point x="843" y="119"/>
      <point x="801" y="49"/>
      <point x="726" y="49" type="curve" smooth="yes"/>
      <point x="169" y="49" type="line"/>
      <point x="261" y="522" type="line"/>
      <point x="158" y="522" type="line"/>
      <point x="57" y="0" type="line"/>
    </contour>
  </outline>
</glyph>
<glyph name="t.Year" format="2">
  <advance width="2172"/>
  <unicode hex="0BF5"/>
  <outline>
    <contour>
      <point x="786" y="-339" type="curve" smooth="yes"/>
      <point x="1313" y="-339"/>
      <point x="1600" y="-99"/>
      <point x="1600" y="155" type="curve" smooth="yes"/>
      <point x="1600" y="266"/>
      <point x="1546" y="335"/>
      <point x="1453" y="335" type="curve" smooth="yes"/>
      <point x="1411" y="335"/>
      <point x="1374" y="318"/>
      <point x="1349" y="290" type="curve"/>
      <point x="1320" y="290" type="line"/>
      <point x="1342" y="263" type="line"/>
      <point x="1386" y="493" type="line"/>
      <point x="1283" y="493" type="line"/>
      <point x="1188" y="0" type="line"/>
      <point x="1291" y="0" type="line"/>
      <point x="1328" y="190" type="line" smooth="yes"/>
      <point x="1337" y="238"/>
      <point x="1380" y="279"/>
      <point x="1425" y="279" type="curve" smooth="yes"/>
      <point x="1470" y="279"/>
      <point x="1496" y="237"/>
      <point x="1496" y="157" type="curve" smooth="yes"/>
      <point x="1496" y="-85"/>
      <point x="1241" y="-283"/>
      <point x="792" y="-283" type="curve" smooth="yes"/>
      <point x="373" y="-283"/>
      <point x="118" y="-122"/>
      <point x="118" y="188" type="curve" smooth="yes"/>
      <point x="118" y="623"/>
      <point x="648" y="793"/>
      <point x="1047" y="793" type="curve" smooth="yes"/>
      <point x="1364" y="793"/>
      <point x="1753" y="714"/>
      <point x="1753" y="403" type="curve" smooth="yes"/>
      <point x="1753" y="333"/>
      <point x="1699" y="198"/>
      <point x="1699" y="131" type="curve" smooth="yes"/>
      <point x="1699" y="9"/>
      <point x="1784" y="-15"/>
      <point x="1845" y="-15" type="curve" smooth="yes"/>
      <point x="2034" y="-15"/>
      <point x="2108" y="211"/>
      <point x="2108" y="348" type="curve" smooth="yes"/>
      <point x="2108" y="449"/>
      <point x="2068" y="548"/>
      <point x="2002" y="548" type="curve" smooth="yes"/>
      <point x="1974" y="548"/>
      <point x="1953" y="530"/>
      <point x="1953" y="502" type="curve" smooth="yes"/>
      <point x="1953" y="469"/>
      <point x="1981" y="456"/>
      <point x="1995" y="445" type="curve" smooth="yes"/>
      <point x="2030" y="418"/>
      <point x="2050" y="373"/>
      <point x="2050" y="312" type="curve" smooth="yes"/>
      <point x="2050" y="190"/>
      <point x="1966" y="44"/>
      <point x="1871" y="44" type="curve" smooth="yes"/>
      <point x="1824" y="44"/>
      <point x="1793" y="61"/>
      <point x="1793" y="136" type="curve" smooth="yes"/>
      <point x="1793" y="182"/>
      <point x="1846" y="313"/>
      <point x="1846" y="394" type="curve" smooth="yes"/>
      <point x="1846" y="697"/>
      <point x="1519" y="858"/>
      <point x="1078" y="858" type="curve" smooth="yes"/>
      <point x="565" y="858"/>
      <point x="56" y="647"/>
      <point x="56" y="181" type="curve" smooth="yes"/>
      <point x="56" y="-170"/>
      <point x="378" y="-339"/>
    </contour>
    <contour>
      <point x="487" y="-15" type="curve" smooth="yes"/>
      <point x="616" y="-15"/>
      <point x="700" y="78"/>
      <point x="700" y="188" type="curve" smooth="yes"/>
      <point x="700" y="268"/>
      <point x="647" y="319"/>
      <point x="575" y="319" type="curve" smooth="yes"/>
      <point x="477" y="319"/>
      <point x="411" y="244"/>
      <point x="411" y="139" type="curve" smooth="yes"/>
      <point x="411" y="95"/>
      <point x="424" y="69"/>
      <point x="425" y="66" type="curve"/>
      <point x="406" y="49" type="line"/>
      <point x="475" y="40" type="line"/>
      <point x="466" y="60"/>
      <point x="459" y="101"/>
      <point x="459" y="132" type="curve" smooth="yes"/>
      <point x="459" y="201"/>
      <point x="496" y="252"/>
      <point x="551" y="252" type="curve" smooth="yes"/>
      <point x="582" y="252"/>
      <point x="602" y="226"/>
      <point x="602" y="183" type="curve" smooth="yes"/>
      <point x="602" y="101"/>
      <point x="542" y="58"/>
      <point x="467" y="57" type="curve"/>
      <point x="425" y="63" type="line"/>
      <point x="384" y="82"/>
      <point x="350" y="138"/>
      <point x="350" y="202" type="curve" smooth="yes"/>
      <point x="350" y="340"/>
      <point x="478" y="467"/>
      <point x="647" y="467" type="curve" smooth="yes"/>
      <point x="772" y="467"/>
      <point x="843" y="403"/>
      <point x="843" y="280" type="curve" smooth="yes"/>
      <point x="843" y="185"/>
      <point x="801" y="102"/>
      <point x="702" y="5" type="curve"/>
      <point x="703" y="0" type="line"/>
      <point x="1047" y="0" type="line"/>
      <point x="1139" y="473" type="line"/>
      <point x="1572" y="473" type="line"/>
      <point x="1581" y="522" type="line"/>
      <point x="1098" y="522" type="line"/>
      <point x="1006" y="49" type="line"/>
      <point x="858" y="49" type="line"/>
      <point x="916" y="115"/>
      <point x="948" y="194"/>
      <point x="948" y="279" type="curve" smooth="yes"/>
      <point x="948" y="439"/>
      <point x="836" y="534"/>
      <point x="662" y="534" type="curve" smooth="yes"/>
      <point x="448" y="534"/>
      <point x="291" y="379"/>
      <point x="291" y="201" type="curve" smooth="yes"/>
      <point x="291" y="68"/>
      <point x="381" y="-15"/>
    </contour>
  </outline>
</glyph>
<glyph name="t.Debit" format="2">
  <advance width="1177"/>
  <unicode hex="0BF6"/>
  <outline>
    <contour>
      <point x="298" y="-310" type="curve" smooth="yes"/>
      <point x="574" y="-310"/>
      <point x="716" y="-242"/>
      <point x="740" y="-116" type="curve" smooth="yes"/>
      <point x="864" y="522" type="line"/>
      <point x="761" y="522" type="line"/>
      <point x="638" y="-110" type="line" smooth="yes"/>
      <point x="619" y="-207"/>
      <point x="507" y="-263"/>
      <point x="305" y="-263" type="curve" smooth="yes"/>
      <point x="124" y="-263"/>
      <point x="8" y="-194"/>
      <point x="8" y="-153" type="curve" smooth="yes"/>
      <point x="8" y="-137"/>
      <point x="27" y="-137"/>
      <point x="34" y="-137" type="curve" smooth="yes"/>
      <point x="997" y="-137" type="line"/>
      <point x="1125" y="522" type="line"/>
      <point x="1022" y="522" type="line"/>
      <point x="903" y="-88" type="line"/>
      <point x="6" y="-88" type="line" smooth="yes"/>
      <point x="-40" y="-88"/>
      <point x="-61" y="-112"/>
      <point x="-61" y="-143" type="curve" smooth="yes"/>
      <point x="-61" y="-215"/>
      <point x="55" y="-310"/>
    </contour>
    <contour>
      <point x="680" y="0" type="line"/>
      <point x="689" y="49" type="line"/>
      <point x="169" y="49" type="line"/>
      <point x="261" y="522" type="line"/>
      <point x="158" y="522" type="line"/>
      <point x="57" y="0" type="line"/>
    </contour>
  </outline>
</glyph>
<glyph name="t.Credit" format="2">
  <advance width="1439"/>
  <unicode hex="0BF7"/>
  <outline>
    <contour>
      <point x="266" y="-15" type="curve" smooth="yes"/>
      <point x="395" y="-15"/>
      <point x="479" y="78"/>
      <point x="479" y="188" type="curve" smooth="yes"/>
      <point x="479" y="268"/>
      <point x="426" y="319"/>
      <point x="354" y="319" type="curve" smooth="yes"/>
      <point x="258" y="319"/>
      <point x="190" y="244"/>
      <point x="190" y="139" type="curve" smooth="yes"/>
      <point x="190" y="95"/>
      <point x="203" y="69"/>
      <point x="204" y="66" type="curve"/>
      <point x="185" y="49" type="line"/>
      <point x="254" y="40" type="line"/>
      <point x="244" y="61"/>
      <point x="238" y="101"/>
      <point x="238" y="132" type="curve" smooth="yes"/>
      <point x="238" y="199"/>
      <point x="279" y="252"/>
      <point x="330" y="252" type="curve" smooth="yes"/>
      <point x="361" y="252"/>
      <point x="381" y="226"/>
      <point x="381" y="183" type="curve" smooth="yes"/>
      <point x="381" y="101"/>
      <point x="321" y="58"/>
      <point x="246" y="57" type="curve"/>
      <point x="204" y="63" type="line"/>
      <point x="153" y="82"/>
      <point x="121" y="140"/>
      <point x="121" y="208" type="curve" smooth="yes"/>
      <point x="121" y="358"/>
      <point x="231" y="462"/>
      <point x="422" y="472" type="curve" smooth="yes"/>
      <point x="432" y="473"/>
      <point x="449" y="473"/>
      <point x="463" y="473" type="curve" smooth="yes"/>
      <point x="923" y="473" type="line"/>
      <point x="932" y="522" type="line"/>
      <point x="491" y="522" type="line" smooth="yes"/>
      <point x="479" y="522"/>
      <point x="460" y="521"/>
      <point x="443" y="521" type="curve" smooth="yes"/>
      <point x="216" y="518"/>
      <point x="62" y="397"/>
      <point x="62" y="207" type="curve" smooth="yes"/>
      <point x="62" y="70"/>
      <point x="150" y="-15"/>
    </contour>
    <contour>
      <point x="891" y="-7" type="curve" smooth="yes"/>
      <point x="971" y="-7"/>
      <point x="1024" y="45"/>
      <point x="1024" y="121" type="curve" smooth="yes"/>
      <point x="1024" y="202"/>
      <point x="942" y="243"/>
      <point x="863" y="243" type="curve" smooth="yes"/>
      <point x="801" y="243"/>
      <point x="752" y="218"/>
      <point x="719" y="185" type="curve"/>
      <point x="690" y="185" type="line"/>
      <point x="712" y="158" type="line"/>
      <point x="776" y="493" type="line"/>
      <point x="673" y="493" type="line"/>
      <point x="578" y="0" type="line"/>
      <point x="681" y="0" type="line"/>
      <point x="695" y="74" type="line" smooth="yes"/>
      <point x="709" y="149"/>
      <point x="787" y="196"/>
      <point x="853" y="196" type="curve" smooth="yes"/>
      <point x="926" y="196"/>
      <point x="944" y="150"/>
      <point x="944" y="111" type="curve" smooth="yes"/>
      <point x="944" y="72"/>
      <point x="922" y="41"/>
      <point x="891" y="41" type="curve" smooth="yes"/>
      <point x="863" y="41"/>
      <point x="843" y="60"/>
      <point x="843" y="97" type="curve" smooth="yes"/>
      <point x="843" y="179"/>
      <point x="960" y="237"/>
      <point x="1012" y="237" type="curve" smooth="yes"/>
      <point x="1083" y="237"/>
      <point x="1112" y="207"/>
      <point x="1112" y="142" type="curve" smooth="yes"/>
      <point x="1112" y="100"/>
      <point x="1087" y="50"/>
      <point x="1039" y="4" type="curve"/>
      <point x="1041" y="0" type="line"/>
      <point x="1316" y="0" type="line"/>
      <point x="1368" y="269" type="line"/>
      <point x="1290" y="269" type="line"/>
      <point x="1246" y="43" type="line"/>
      <point x="1156" y="43" type="line"/>
      <point x="1180" y="80"/>
      <point x="1191" y="107"/>
      <point x="1191" y="147" type="curve" smooth="yes"/>
      <point x="1191" y="235"/>
      <point x="1121" y="282"/>
      <point x="1031" y="282" type="curve" smooth="yes"/>
      <point x="914" y="282"/>
      <point x="795" y="192"/>
      <point x="795" y="89" type="curve" smooth="yes"/>
      <point x="795" y="30"/>
      <point x="838" y="-7"/>
    </contour>
  </outline>
</glyph>
<glyph name="t.As" format="2">
  <advance width="2005"/>
  <unicode hex="0BF8"/>
  <outline>
    <contour>
      <point x="278" y="-15" type="curve" smooth="yes"/>
      <point x="423" y="-15"/>
      <point x="497" y="94"/>
      <point x="497" y="195" type="curve" smooth="yes"/>
      <point x="497" y="279"/>
      <point x="443" y="326"/>
      <point x="377" y="326" type="curve" smooth="yes"/>
      <point x="283" y="326"/>
      <point x="204" y="247"/>
      <point x="204" y="125" type="curve" smooth="yes"/>
      <point x="204" y="109"/>
      <point x="208" y="83"/>
      <point x="212" y="70" type="curve"/>
      <point x="199" y="51" type="line"/>
      <point x="268" y="36" type="line"/>
      <point x="256" y="55"/>
      <point x="252" y="93"/>
      <point x="252" y="119" type="curve" smooth="yes"/>
      <point x="252" y="208"/>
      <point x="309" y="259"/>
      <point x="347" y="259" type="curve" smooth="yes"/>
      <point x="380" y="259"/>
      <point x="399" y="239"/>
      <point x="399" y="191" type="curve" smooth="yes"/>
      <point x="399" y="122"/>
      <point x="342" y="58"/>
      <point x="257" y="58" type="curve"/>
      <point x="214" y="65" type="line"/>
      <point x="164" y="90"/>
      <point x="131" y="155"/>
      <point x="131" y="254" type="curve" smooth="yes"/>
      <point x="131" y="469"/>
      <point x="343" y="605"/>
      <point x="535" y="605" type="curve" smooth="yes"/>
      <point x="754" y="605"/>
      <point x="841" y="457"/>
      <point x="841" y="288" type="curve" smooth="yes"/>
      <point x="841" y="164"/>
      <point x="776" y="50"/>
      <point x="712" y="50" type="curve" smooth="yes"/>
      <point x="669" y="50"/>
      <point x="647" y="79"/>
      <point x="647" y="153" type="curve" smooth="yes"/>
      <point x="647" y="316"/>
      <point x="797" y="469"/>
      <point x="967" y="469" type="curve" smooth="yes"/>
      <point x="1090" y="469"/>
      <point x="1132" y="400"/>
      <point x="1132" y="301" type="curve" smooth="yes"/>
      <point x="1132" y="220"/>
      <point x="1093" y="116"/>
      <point x="978" y="5" type="curve"/>
      <point x="979" y="0" type="line"/>
      <point x="1935" y="0" type="line"/>
      <point x="1944" y="49" type="line"/>
      <point x="1135" y="49" type="line"/>
      <point x="1198" y="119"/>
      <point x="1237" y="215"/>
      <point x="1237" y="302" type="curve" smooth="yes"/>
      <point x="1237" y="435"/>
      <point x="1151" y="534"/>
      <point x="995" y="534" type="curve" smooth="yes"/>
      <point x="785" y="534"/>
      <point x="587" y="368"/>
      <point x="587" y="145" type="curve" smooth="yes"/>
      <point x="587" y="46"/>
      <point x="634" y="-15"/>
      <point x="713" y="-15" type="curve" smooth="yes"/>
      <point x="857" y="-15"/>
      <point x="946" y="144"/>
      <point x="946" y="298" type="curve" smooth="yes"/>
      <point x="946" y="513"/>
      <point x="779" y="667"/>
      <point x="557" y="667" type="curve" smooth="yes"/>
      <point x="300" y="667"/>
      <point x="70" y="497"/>
      <point x="70" y="241" type="curve" smooth="yes"/>
      <point x="70" y="83"/>
      <point x="161" y="-15"/>
    </contour>
    <contour>
      <point x="1608" y="-292" type="line"/>
      <point x="1737" y="373" type="line" smooth="yes"/>
      <point x="1757" y="473"/>
      <point x="1709" y="539"/>
      <point x="1617" y="539" type="curve" smooth="yes"/>
      <point x="1480" y="539"/>
      <point x="1362" y="426"/>
      <point x="1362" y="257" type="curve" smooth="yes"/>
      <point x="1362" y="161"/>
      <point x="1408" y="85"/>
      <point x="1464" y="51" type="curve"/>
      <point x="1445" y="24" type="line"/>
      <point x="1565" y="42" type="line"/>
      <point x="1483" y="76"/>
      <point x="1420" y="152"/>
      <point x="1420" y="263" type="curve" smooth="yes"/>
      <point x="1420" y="374"/>
      <point x="1503" y="472"/>
      <point x="1585" y="472" type="curve" smooth="yes"/>
      <point x="1629" y="472"/>
      <point x="1647" y="439"/>
      <point x="1639" y="396" type="curve" smooth="yes"/>
      <point x="1505" y="-292" type="line"/>
    </contour>
  </outline>
</glyph>
<glyph name="t.Rupee" format="2">
  <advance width="1172"/>
  <unicode hex="0BF9"/>
  <outline>
    <contour>
      <point x="521" y="-339" type="curve" smooth="yes"/>
      <point x="928" y="-339"/>
      <point x="1088" y="-51"/>
      <point x="1088" y="148" type="curve" smooth="yes"/>
      <point x="1088" y="266"/>
      <point x="1027" y="335"/>
      <point x="934" y="335" type="curve" smooth="yes"/>
      <point x="892" y="335"/>
      <point x="855" y="318"/>
      <point x="830" y="290" type="curve"/>
      <point x="801" y="290" type="line"/>
      <point x="823" y="263" type="line"/>
      <point x="868" y="493" type="line"/>
      <point x="765" y="493" type="line"/>
      <point x="669" y="0" type="line"/>
      <point x="772" y="0" type="line"/>
      <point x="809" y="190" type="line" smooth="yes"/>
      <point x="818" y="238"/>
      <point x="860" y="279"/>
      <point x="906" y="279" type="curve" smooth="yes"/>
      <point x="951" y="279"/>
      <point x="983" y="237"/>
      <point x="983" y="152" type="curve" smooth="yes"/>
      <point x="983" y="-67"/>
      <point x="824" y="-283"/>
      <point x="530" y="-283" type="curve" smooth="yes"/>
      <point x="263" y="-283"/>
      <point x="122" y="-125"/>
      <point x="122" y="165" type="curve" smooth="yes"/>
      <point x="122" y="537"/>
      <point x="417" y="778"/>
      <point x="660" y="778" type="curve" smooth="yes"/>
      <point x="735" y="778"/>
      <point x="768" y="745"/>
      <point x="768" y="695" type="curve" smooth="yes"/>
      <point x="768" y="653"/>
      <point x="744" y="623"/>
      <point x="711" y="623" type="curve" smooth="yes"/>
      <point x="684" y="623"/>
      <point x="666" y="644"/>
      <point x="666" y="679" type="curve" smooth="yes"/>
      <point x="666" y="762"/>
      <point x="767" y="819"/>
      <point x="841" y="819" type="curve" smooth="yes"/>
      <point x="897" y="819"/>
      <point x="933" y="786"/>
      <point x="933" y="728" type="curve" smooth="yes"/>
      <point x="933" y="680"/>
      <point x="907" y="633"/>
      <point x="862" y="586" type="curve"/>
      <point x="864" y="582" type="line"/>
      <point x="1075" y="582" type="line"/>
      <point x="1084" y="625" type="line"/>
      <point x="975" y="625" type="line"/>
      <point x="1002" y="662"/>
      <point x="1012" y="698"/>
      <point x="1012" y="730" type="curve" smooth="yes"/>
      <point x="1012" y="815"/>
      <point x="939" y="864"/>
      <point x="854" y="864" type="curve" smooth="yes"/>
      <point x="738" y="864"/>
      <point x="618" y="777"/>
      <point x="618" y="675" type="curve" smooth="yes"/>
      <point x="618" y="616"/>
      <point x="659" y="575"/>
      <point x="720" y="575" type="curve" smooth="yes"/>
      <point x="791" y="575"/>
      <point x="848" y="626"/>
      <point x="848" y="701" type="curve" smooth="yes"/>
      <point x="848" y="782"/>
      <point x="779" y="825"/>
      <point x="674" y="825" type="curve" smooth="yes"/>
      <point x="344" y="825"/>
      <point x="63" y="556"/>
      <point x="63" y="158" type="curve" smooth="yes"/>
      <point x="63" y="-166"/>
      <point x="241" y="-339"/>
    </contour>
    <contour>
      <point x="506" y="0" type="line"/>
      <point x="598" y="473" type="line"/>
      <point x="1054" y="473" type="line"/>
      <point x="1064" y="522" type="line"/>
      <point x="544" y="522" type="line"/>
      <point x="442" y="0" type="line"/>
    </contour>
  </outline>
  <guideline angle="0" x="0" y="0"/>
</glyph>
<glyph name="t.Number" format="2">
  <advance width="1013"/>
  <unicode hex="0BFA"/>
  <outline>
    <contour>
      <point x="26" y="-252" type="curve" smooth="yes"/>
      <point x="53" y="-252"/>
      <point x="74" y="-233"/>
      <point x="83" y="-189" type="curve" smooth="yes"/>
      <point x="91" y="-149"/>
      <point x="104" y="-132"/>
      <point x="149" y="-132" type="curve" smooth="yes"/>
      <point x="345" y="-132" type="line" smooth="yes"/>
      <point x="568" y="-132"/>
      <point x="691" y="-15"/>
      <point x="691" y="166" type="curve" smooth="yes"/>
      <point x="691" y="268"/>
      <point x="632" y="335"/>
      <point x="549" y="335" type="curve" smooth="yes"/>
      <point x="507" y="335"/>
      <point x="470" y="318"/>
      <point x="445" y="290" type="curve"/>
      <point x="416" y="290" type="line"/>
      <point x="438" y="263" type="line"/>
      <point x="482" y="493" type="line"/>
      <point x="379" y="493" type="line"/>
      <point x="284" y="0" type="line"/>
      <point x="387" y="0" type="line"/>
      <point x="424" y="190" type="line" smooth="yes"/>
      <point x="433" y="238"/>
      <point x="475" y="279"/>
      <point x="520" y="279" type="curve" smooth="yes"/>
      <point x="565" y="279"/>
      <point x="587" y="239"/>
      <point x="587" y="171" type="curve" smooth="yes"/>
      <point x="587" y="5"/>
      <point x="498" y="-83"/>
      <point x="342" y="-83" type="curve" smooth="yes"/>
      <point x="149" y="-83" type="line" smooth="yes"/>
      <point x="37" y="-83"/>
      <point x="-15" y="-140"/>
      <point x="-15" y="-195" type="curve" smooth="yes"/>
      <point x="-15" y="-231"/>
      <point x="-2" y="-252"/>
    </contour>
    <contour>
      <point x="121" y="0" type="line"/>
      <point x="213" y="473" type="line"/>
      <point x="688" y="473" type="line"/>
      <point x="697" y="522" type="line"/>
      <point x="158" y="522" type="line"/>
      <point x="57" y="0" type="line"/>
    </contour>
    <contour>
      <point x="618" y="510" type="line"/>
      <point x="582" y="534"/>
      <point x="561" y="586"/>
      <point x="561" y="634" type="curve" smooth="yes"/>
      <point x="561" y="723"/>
      <point x="631" y="778"/>
      <point x="715" y="778" type="curve" smooth="yes"/>
      <point x="780" y="778"/>
      <point x="813" y="745"/>
      <point x="813" y="695" type="curve" smooth="yes"/>
      <point x="813" y="653"/>
      <point x="789" y="623"/>
      <point x="756" y="623" type="curve" smooth="yes"/>
      <point x="729" y="623"/>
      <point x="711" y="644"/>
      <point x="711" y="679" type="curve" smooth="yes"/>
      <point x="711" y="762"/>
      <point x="812" y="819"/>
      <point x="886" y="819" type="curve" smooth="yes"/>
      <point x="942" y="819"/>
      <point x="978" y="786"/>
      <point x="978" y="728" type="curve" smooth="yes"/>
      <point x="978" y="680"/>
      <point x="952" y="633"/>
      <point x="907" y="586" type="curve"/>
      <point x="909" y="582" type="line"/>
      <point x="1121" y="582" type="line"/>
      <point x="1129" y="625" type="line"/>
      <point x="1020" y="625" type="line"/>
      <point x="1047" y="662"/>
      <point x="1057" y="698"/>
      <point x="1057" y="730" type="curve" smooth="yes"/>
      <point x="1057" y="815"/>
      <point x="984" y="864"/>
      <point x="899" y="864" type="curve" smooth="yes"/>
      <point x="783" y="864"/>
      <point x="663" y="777"/>
      <point x="663" y="675" type="curve" smooth="yes"/>
      <point x="663" y="616"/>
      <point x="704" y="575"/>
      <point x="765" y="575" type="curve" smooth="yes"/>
      <point x="836" y="575"/>
      <point x="893" y="626"/>
      <point x="893" y="701" type="curve" smooth="yes"/>
      <point x="893" y="782"/>
      <point x="824" y="825"/>
      <point x="729" y="825" type="curve" smooth="yes"/>
      <point x="602" y="825"/>
      <point x="499" y="749"/>
      <point x="499" y="639" type="curve" smooth="yes"/>
      <point x="499" y="591"/>
      <point x="519" y="550"/>
      <point x="542" y="524" type="curve"/>
      <point x="521" y="495" type="line"/>
    </contour>
  </outline>
</glyph>
<glyph name="flowerpunc" format="2">
  <advance width="600"/>
  <unicode hex="2055"/>
  <outline>
    <contour>
      <point x="136" y="356" type="curve" smooth="yes"/>
      <point x="163" y="330"/>
      <point x="236" y="303"/>
      <point x="285" y="257" type="curve"/>
      <point x="294" y="266" type="line"/>
      <point x="229" y="335"/>
      <point x="214" y="430"/>
      <point x="163" y="430" type="curve" smooth="yes"/>
      <point x="139" y="430"/>
      <point x="121" y="409"/>
      <point x="121" y="388" type="curve" smooth="yes"/>
      <point x="121" y="377"/>
      <point x="126" y="365"/>
    </contour>
    <contour>
      <point x="464" y="146" type="curve" smooth="yes"/>
      <point x="437" y="174"/>
      <point x="364" y="199"/>
      <point x="315" y="245" type="curve"/>
      <point x="306" y="236" type="line"/>
      <point x="371" y="167"/>
      <point x="386" y="72"/>
      <point x="437" y="72" type="curve" smooth="yes"/>
      <point x="461" y="72"/>
      <point x="479" y="93"/>
      <point x="479" y="114" type="curve" smooth="yes"/>
      <point x="479" y="125"/>
      <point x="473" y="137"/>
    </contour>
    <contour>
      <point x="195" y="87" type="curve" smooth="yes"/>
      <point x="221" y="114"/>
      <point x="248" y="187"/>
      <point x="294" y="236" type="curve"/>
      <point x="285" y="245" type="line"/>
      <point x="217" y="180"/>
      <point x="121" y="165"/>
      <point x="121" y="114" type="curve" smooth="yes"/>
      <point x="121" y="93"/>
      <point x="139" y="72"/>
      <point x="163" y="72" type="curve" smooth="yes"/>
      <point x="174" y="72"/>
      <point x="186" y="77"/>
    </contour>
    <contour>
      <point x="405" y="415" type="curve" smooth="yes"/>
      <point x="377" y="387"/>
      <point x="352" y="315"/>
      <point x="306" y="266" type="curve"/>
      <point x="315" y="257" type="line"/>
      <point x="383" y="321"/>
      <point x="479" y="338"/>
      <point x="479" y="388" type="curve" smooth="yes"/>
      <point x="479" y="409"/>
      <point x="461" y="430"/>
      <point x="438" y="430" type="curve" smooth="yes"/>
      <point x="426" y="430"/>
      <point x="414" y="424"/>
    </contour>
    <contour>
      <point x="258" y="441" type="curve" smooth="yes"/>
      <point x="258" y="404"/>
      <point x="291" y="333"/>
      <point x="294" y="266" type="curve"/>
      <point x="306" y="266" type="line"/>
      <point x="309" y="333"/>
      <point x="342" y="404"/>
      <point x="342" y="441" type="curve" smooth="yes"/>
      <point x="342" y="466"/>
      <point x="326" y="486"/>
      <point x="300" y="486" type="curve" smooth="yes"/>
      <point x="274" y="486"/>
      <point x="258" y="466"/>
    </contour>
    <contour>
      <point x="342" y="61" type="curve" smooth="yes"/>
      <point x="342" y="98"/>
      <point x="309" y="169"/>
      <point x="306" y="236" type="curve"/>
      <point x="294" y="236" type="line"/>
      <point x="291" y="169"/>
      <point x="258" y="98"/>
      <point x="258" y="61" type="curve" smooth="yes"/>
      <point x="258" y="36"/>
      <point x="274" y="16"/>
      <point x="300" y="16" type="curve" smooth="yes"/>
      <point x="326" y="16"/>
      <point x="342" y="36"/>
    </contour>
    <contour>
      <point x="255" y="251" type="curve" smooth="yes"/>
      <point x="255" y="226"/>
      <point x="275" y="206"/>
      <point x="300" y="206" type="curve" smooth="yes"/>
      <point x="325" y="206"/>
      <point x="345" y="226"/>
      <point x="345" y="251" type="curve" smooth="yes"/>
      <point x="345" y="276"/>
      <point x="325" y="296"/>
      <point x="300" y="296" type="curve" smooth="yes"/>
      <point x="275" y="296"/>
      <point x="255" y="276"/>
    </contour>
    <contour>
      <point x="110" y="209" type="curve" smooth="yes"/>
      <point x="147" y="209"/>
      <point x="218" y="242"/>
      <point x="285" y="245" type="curve"/>
      <point x="285" y="257" type="line"/>
      <point x="218" y="260"/>
      <point x="147" y="293"/>
      <point x="110" y="293" type="curve" smooth="yes"/>
      <point x="85" y="293"/>
      <point x="65" y="277"/>
      <point x="65" y="251" type="curve" smooth="yes"/>
      <point x="65" y="225"/>
      <point x="85" y="209"/>
    </contour>
    <contour>
      <point x="490" y="293" type="curve" smooth="yes"/>
      <point x="453" y="293"/>
      <point x="382" y="260"/>
      <point x="315" y="257" type="curve"/>
      <point x="315" y="245" type="line"/>
      <point x="382" y="242"/>
      <point x="453" y="209"/>
      <point x="490" y="209" type="curve" smooth="yes"/>
      <point x="515" y="209"/>
      <point x="535" y="225"/>
      <point x="535" y="251" type="curve" smooth="yes"/>
      <point x="535" y="277"/>
      <point x="515" y="293"/>
    </contour>
  </outline>
  <guideline angle="90" x="305" y="0"/>
</glyph>
<glyph name="grBinduBelow" format="2">
  <unicode hex="1133B"/>
  <outline>
    <contour>
      <point x="-446" y="-245" type="curve" smooth="yes"/>
      <point x="-399" y="-245"/>
      <point x="-363" y="-207"/>
      <point x="-363" y="-162" type="curve" smooth="yes"/>
      <point x="-363" y="-120"/>
      <point x="-390" y="-93"/>
      <point x="-433" y="-93" type="curve" smooth="yes"/>
      <point x="-480" y="-93"/>
      <point x="-518" y="-130"/>
      <point x="-518" y="-175" type="curve" smooth="yes"/>
      <point x="-518" y="-217"/>
      <point x="-490" y="-245"/>
    </contour>
  </outline>
</glyph>
<glyph name="t.Ci" format="2">
  <advance width="1001"/>
  <outline>
    <contour>
      <point x="848" y="0" type="line"/>
      <point x="936" y="378"/>
      <point x="951" y="428"/>
      <point x="951" y="508" type="curve" smooth="yes"/>
      <point x="951" y="729"/>
      <point x="820" y="858"/>
      <point x="584" y="858" type="curve" smooth="yes"/>
      <point x="314" y="858"/>
      <point x="124" y="693"/>
      <point x="124" y="478" type="curve" smooth="yes"/>
      <point x="124" y="401"/>
      <point x="144" y="348"/>
      <point x="198" y="292" type="curve"/>
      <point x="185" y="271" type="line"/>
      <point x="245" y="271" type="line"/>
      <point x="256" y="324" type="line"/>
      <point x="235" y="324" type="line"/>
      <point x="196" y="369"/>
      <point x="182" y="414"/>
      <point x="182" y="481" type="curve" smooth="yes"/>
      <point x="182" y="637"/>
      <point x="342" y="775"/>
      <point x="556" y="775" type="curve" smooth="yes"/>
      <point x="776" y="775"/>
      <point x="891" y="673"/>
      <point x="891" y="491" type="curve" smooth="yes"/>
      <point x="891" y="423"/>
      <point x="873" y="360"/>
      <point x="793" y="0" type="curve"/>
    </contour>
    <contour>
      <point x="276" y="-15" type="curve" smooth="yes"/>
      <point x="420" y="-15"/>
      <point x="498" y="35"/>
      <point x="518" y="141" type="curve" smooth="yes"/>
      <point x="586" y="493" type="line"/>
      <point x="482" y="493" type="line"/>
      <point x="415" y="143" type="line" smooth="yes"/>
      <point x="402" y="73"/>
      <point x="357" y="39"/>
      <point x="280" y="39" type="curve" smooth="yes"/>
      <point x="169" y="39"/>
      <point x="107" y="102"/>
      <point x="107" y="173" type="curve" smooth="yes"/>
      <point x="107" y="227"/>
      <point x="140" y="242"/>
      <point x="206" y="242" type="curve"/>
      <point x="711" y="242" type="line"/>
      <point x="720" y="291" type="line"/>
      <point x="203" y="291" type="line"/>
      <point x="94" y="291"/>
      <point x="48" y="241"/>
      <point x="48" y="167" type="curve" smooth="yes"/>
      <point x="48" y="80"/>
      <point x="136" y="-15"/>
    </contour>
    <contour>
      <point x="288" y="271" type="line"/>
      <point x="328" y="473" type="line"/>
      <point x="756" y="473" type="line"/>
      <point x="765" y="522" type="line"/>
      <point x="274" y="522" type="line"/>
      <point x="225" y="271" type="line"/>
    </contour>
  </outline>
</glyph>
<glyph name="t.Cu" format="2">
  <advance width="905"/>
  <outline>
    <contour>
      <point x="261" y="-15" type="curve" smooth="yes"/>
      <point x="405" y="-15"/>
      <point x="483" y="35"/>
      <point x="503" y="141" type="curve" smooth="yes"/>
      <point x="571" y="493" type="line"/>
      <point x="467" y="493" type="line"/>
      <point x="400" y="143" type="line" smooth="yes"/>
      <point x="387" y="73"/>
      <point x="342" y="39"/>
      <point x="265" y="39" type="curve" smooth="yes"/>
      <point x="154" y="39"/>
      <point x="92" y="98"/>
      <point x="92" y="173" type="curve" smooth="yes"/>
      <point x="92" y="227"/>
      <point x="125" y="242"/>
      <point x="191" y="242" type="curve" smooth="yes"/>
      <point x="859" y="242" type="line"/>
      <point x="868" y="291" type="line"/>
      <point x="188" y="291" type="line" smooth="yes"/>
      <point x="79" y="291"/>
      <point x="33" y="241"/>
      <point x="33" y="167" type="curve" smooth="yes"/>
      <point x="33" y="76"/>
      <point x="121" y="-15"/>
    </contour>
    <contour>
      <point x="697" y="0" type="line"/>
      <point x="747" y="262" type="line"/>
      <point x="645" y="262" type="line"/>
      <point x="595" y="0" type="line"/>
    </contour>
    <contour>
      <point x="273" y="271" type="line"/>
      <point x="313" y="473" type="line"/>
      <point x="771" y="473" type="line"/>
      <point x="780" y="522" type="line"/>
      <point x="259" y="522" type="line"/>
      <point x="210" y="271" type="line"/>
    </contour>
  </outline>
  <guideline angle="0" x="0" y="0"/>
</glyph>
<glyph name="t.Cuu" format="2">
  <advance width="1199"/>
  <outline>
    <contour>
      <point x="523" y="-339" type="curve" smooth="yes"/>
      <point x="830" y="-339"/>
      <point x="1106" y="-172"/>
      <point x="1106" y="39" type="curve" smooth="yes"/>
      <point x="1106" y="128"/>
      <point x="1055" y="177"/>
      <point x="998" y="177" type="curve" smooth="yes"/>
      <point x="963" y="177"/>
      <point x="939" y="161"/>
      <point x="923" y="144" type="curve"/>
      <point x="894" y="144" type="line"/>
      <point x="916" y="117" type="line"/>
      <point x="944" y="262" type="line"/>
      <point x="842" y="262" type="line"/>
      <point x="792" y="0" type="line"/>
      <point x="894" y="0" type="line"/>
      <point x="902" y="45" type="line" smooth="yes"/>
      <point x="913" y="107"/>
      <point x="947" y="121"/>
      <point x="965" y="121" type="curve" smooth="yes"/>
      <point x="993" y="121"/>
      <point x="1012" y="92"/>
      <point x="1012" y="39" type="curve" smooth="yes"/>
      <point x="1012" y="-142"/>
      <point x="801" y="-283"/>
      <point x="532" y="-283" type="curve" smooth="yes"/>
      <point x="246" y="-283"/>
      <point x="100" y="-131"/>
      <point x="100" y="89" type="curve" smooth="yes"/>
      <point x="100" y="249"/>
      <point x="182" y="399"/>
      <point x="362" y="495" type="curve"/>
      <point x="328" y="538" type="line"/>
      <point x="130" y="426"/>
      <point x="39" y="260"/>
      <point x="39" y="80" type="curve" smooth="yes"/>
      <point x="39" y="-176"/>
      <point x="226" y="-339"/>
    </contour>
    <contour>
      <point x="474" y="-15" type="curve" smooth="yes"/>
      <point x="619" y="-15"/>
      <point x="696" y="36"/>
      <point x="716" y="141" type="curve" smooth="yes"/>
      <point x="784" y="493" type="line"/>
      <point x="680" y="493" type="line"/>
      <point x="613" y="143" type="line" smooth="yes"/>
      <point x="600" y="73"/>
      <point x="554" y="39"/>
      <point x="478" y="39" type="curve" smooth="yes"/>
      <point x="367" y="39"/>
      <point x="305" y="104"/>
      <point x="305" y="173" type="curve" smooth="yes"/>
      <point x="305" y="227"/>
      <point x="338" y="242"/>
      <point x="404" y="242" type="curve" smooth="yes"/>
      <point x="1072" y="242" type="line"/>
      <point x="1081" y="291" type="line"/>
      <point x="401" y="291" type="line" smooth="yes"/>
      <point x="292" y="291"/>
      <point x="246" y="241"/>
      <point x="246" y="167" type="curve" smooth="yes"/>
      <point x="246" y="82"/>
      <point x="334" y="-15"/>
    </contour>
    <contour>
      <point x="486" y="271" type="line"/>
      <point x="526" y="473" type="line"/>
      <point x="984" y="473" type="line"/>
      <point x="993" y="522" type="line"/>
      <point x="472" y="522" type="line"/>
      <point x="423" y="271" type="line"/>
    </contour>
  </outline>
</glyph>
<glyph name="t.Eight.sups" format="2">
  <advance width="866"/>
  <outline>
    <contour>
      <point x="332" y="268" type="curve" smooth="yes"/>
      <point x="517" y="268"/>
      <point x="616" y="368"/>
      <point x="656" y="423" type="curve" smooth="yes"/>
      <point x="693" y="474"/>
      <point x="707" y="518"/>
      <point x="707" y="566" type="curve" smooth="yes"/>
      <point x="707" y="655"/>
      <point x="656" y="717"/>
      <point x="549" y="717" type="curve" smooth="yes"/>
      <point x="432" y="717"/>
      <point x="355" y="643"/>
      <point x="355" y="546" type="curve" smooth="yes"/>
      <point x="355" y="508"/>
      <point x="367" y="475"/>
      <point x="382" y="455" type="curve"/>
      <point x="366" y="431" type="line"/>
      <point x="441" y="439" type="line"/>
      <point x="418" y="464"/>
      <point x="404" y="501"/>
      <point x="404" y="545" type="curve" smooth="yes"/>
      <point x="404" y="610"/>
      <point x="459" y="669"/>
      <point x="531" y="669" type="curve" smooth="yes"/>
      <point x="594" y="669"/>
      <point x="625" y="634"/>
      <point x="625" y="571" type="curve" smooth="yes"/>
      <point x="625" y="517"/>
      <point x="602" y="472"/>
      <point x="574" y="433" type="curve" smooth="yes"/>
      <point x="525" y="365"/>
      <point x="454" y="307"/>
      <point x="333" y="307" type="curve" smooth="yes"/>
      <point x="203" y="307"/>
      <point x="150" y="364"/>
      <point x="150" y="395" type="curve" smooth="yes"/>
      <point x="150" y="405"/>
      <point x="155" y="412"/>
      <point x="169" y="412" type="curve"/>
      <point x="795" y="412" type="line"/>
      <point x="803" y="453" type="line"/>
      <point x="152" y="453" type="line" smooth="yes"/>
      <point x="107" y="453"/>
      <point x="92" y="432"/>
      <point x="92" y="401" type="curve" smooth="yes"/>
      <point x="92" y="351"/>
      <point x="166" y="268"/>
    </contour>
    <contour>
      <point x="813" y="205" type="line"/>
      <point x="909" y="699" type="line"/>
      <point x="831" y="699" type="line"/>
      <point x="735" y="205" type="line"/>
    </contour>
  </outline>
</glyph>
<glyph name="t.Five.sups" format="2">
  <advance width="794"/>
  <outline>
    <contour>
      <point x="444" y="144" type="curve" smooth="yes"/>
      <point x="646" y="144"/>
      <point x="802" y="280"/>
      <point x="802" y="438" type="curve" smooth="yes"/>
      <point x="802" y="522"/>
      <point x="748" y="565"/>
      <point x="688" y="565" type="curve" smooth="yes"/>
      <point x="645" y="565"/>
      <point x="605" y="548"/>
      <point x="585" y="518" type="curve"/>
      <point x="594" y="505" type="line"/>
      <point x="628" y="678" type="line"/>
      <point x="552" y="678" type="line"/>
      <point x="481" y="314" type="line"/>
      <point x="557" y="314" type="line"/>
      <point x="585" y="457" type="line" smooth="yes"/>
      <point x="590" y="485"/>
      <point x="616" y="519"/>
      <point x="658" y="519" type="curve" smooth="yes"/>
      <point x="694" y="519"/>
      <point x="719" y="495"/>
      <point x="719" y="431" type="curve" smooth="yes"/>
      <point x="719" y="287"/>
      <point x="595" y="190"/>
      <point x="449" y="190" type="curve" smooth="yes"/>
      <point x="284" y="190"/>
      <point x="176" y="281"/>
      <point x="176" y="473" type="curve" smooth="yes"/>
      <point x="176" y="647"/>
      <point x="333" y="822"/>
      <point x="556" y="822" type="curve" smooth="yes"/>
      <point x="715" y="822"/>
      <point x="815" y="753"/>
      <point x="822" y="627" type="curve"/>
      <point x="859" y="627" type="line"/>
      <point x="859" y="796"/>
      <point x="750" y="887"/>
      <point x="571" y="887" type="curve" smooth="yes"/>
      <point x="294" y="887"/>
      <point x="128" y="683"/>
      <point x="128" y="469" type="curve" smooth="yes"/>
      <point x="128" y="256"/>
      <point x="263" y="144"/>
    </contour>
    <contour>
      <point x="368" y="314" type="line"/>
      <point x="435" y="658" type="line"/>
      <point x="736" y="658" type="line"/>
      <point x="744" y="699" type="line"/>
      <point x="390" y="699" type="line"/>
      <point x="315" y="314" type="line"/>
    </contour>
  </outline>
</glyph>
<glyph name="t.Four.sups" format="2">
  <advance width="663"/>
  <outline>
    <contour>
      <point x="278" y="300" type="curve" smooth="yes"/>
      <point x="379" y="300"/>
      <point x="437" y="330"/>
      <point x="455" y="421" type="curve" smooth="yes"/>
      <point x="505" y="678" type="line"/>
      <point x="423" y="678" type="line"/>
      <point x="374" y="425" type="line" smooth="yes"/>
      <point x="363" y="368"/>
      <point x="330" y="345"/>
      <point x="275" y="345" type="curve" smooth="yes"/>
      <point x="210" y="345"/>
      <point x="153" y="380"/>
      <point x="153" y="434" type="curve" smooth="yes"/>
      <point x="153" y="475"/>
      <point x="179" y="489"/>
      <point x="226" y="489" type="curve" smooth="yes"/>
      <point x="700" y="489" type="line"/>
      <point x="741" y="699" type="line"/>
      <point x="690" y="699" type="line"/>
      <point x="657" y="531" type="line"/>
      <point x="223" y="531" type="line" smooth="yes"/>
      <point x="140" y="531"/>
      <point x="105" y="480"/>
      <point x="105" y="431" type="curve" smooth="yes"/>
      <point x="105" y="350"/>
      <point x="184" y="300"/>
    </contour>
    <contour>
      <point x="287" y="511" type="line"/>
      <point x="316" y="658" type="line"/>
      <point x="624" y="658" type="line"/>
      <point x="632" y="699" type="line"/>
      <point x="273" y="699" type="line"/>
      <point x="236" y="511" type="line"/>
    </contour>
  </outline>
</glyph>
<glyph name="t.Hi" format="2">
  <advance width="1770"/>
  <outline>
    <contour>
      <point x="-17" y="-252" type="curve" smooth="yes"/>
      <point x="10" y="-252"/>
      <point x="31" y="-233"/>
      <point x="40" y="-189" type="curve" smooth="yes"/>
      <point x="48" y="-149"/>
      <point x="61" y="-132"/>
      <point x="106" y="-132" type="curve" smooth="yes"/>
      <point x="1082" y="-132" type="line" smooth="yes"/>
      <point x="1333" y="-132"/>
      <point x="1500" y="33"/>
      <point x="1500" y="280" type="curve" smooth="yes"/>
      <point x="1500" y="372"/>
      <point x="1471" y="439"/>
      <point x="1432" y="486" type="curve" smooth="yes"/>
      <point x="1403" y="521"/>
      <point x="1382" y="567"/>
      <point x="1382" y="625" type="curve" smooth="yes"/>
      <point x="1382" y="725"/>
      <point x="1452" y="778"/>
      <point x="1538" y="778" type="curve" smooth="yes"/>
      <point x="1638" y="778"/>
      <point x="1682" y="713"/>
      <point x="1682" y="597" type="curve" smooth="yes"/>
      <point x="1682" y="482"/>
      <point x="1633" y="327"/>
      <point x="1558" y="0" type="curve"/>
      <point x="1612" y="0" type="line"/>
      <point x="1697" y="367"/>
      <point x="1743" y="509"/>
      <point x="1743" y="623" type="curve" smooth="yes"/>
      <point x="1743" y="774"/>
      <point x="1676" y="858"/>
      <point x="1549" y="858" type="curve" smooth="yes"/>
      <point x="1421" y="858"/>
      <point x="1323" y="773"/>
      <point x="1323" y="640" type="curve" smooth="yes"/>
      <point x="1323" y="603"/>
      <point x="1335" y="558"/>
      <point x="1358" y="529" type="curve"/>
      <point x="1342" y="503" type="line"/>
      <point x="1376" y="521" type="line"/>
      <point x="1354" y="529"/>
      <point x="1328" y="534"/>
      <point x="1301" y="534" type="curve" smooth="yes"/>
      <point x="1229" y="534"/>
      <point x="1168" y="503"/>
      <point x="1139" y="450" type="curve"/>
      <point x="1135" y="450" type="line"/>
      <point x="1121" y="505"/>
      <point x="1082" y="534"/>
      <point x="1012" y="534" type="curve" smooth="yes"/>
      <point x="931" y="534"/>
      <point x="876" y="486"/>
      <point x="859" y="400" type="curve" smooth="yes"/>
      <point x="782" y="0" type="line"/>
      <point x="845" y="0" type="line"/>
      <point x="923" y="403" type="line" smooth="yes"/>
      <point x="933" y="455"/>
      <point x="967" y="484"/>
      <point x="1003" y="484" type="curve" smooth="yes"/>
      <point x="1058" y="484"/>
      <point x="1077" y="435"/>
      <point x="1065" y="371" type="curve" smooth="yes"/>
      <point x="993" y="0" type="line"/>
      <point x="1095" y="0" type="line"/>
      <point x="1165" y="359" type="line" smooth="yes"/>
      <point x="1182" y="447"/>
      <point x="1239" y="484"/>
      <point x="1292" y="484" type="curve" smooth="yes"/>
      <point x="1363" y="484"/>
      <point x="1396" y="430"/>
      <point x="1396" y="279" type="curve" smooth="yes"/>
      <point x="1396" y="62"/>
      <point x="1268" y="-83"/>
      <point x="1076" y="-83" type="curve" smooth="yes"/>
      <point x="106" y="-83" type="line" smooth="yes"/>
      <point x="-6" y="-83"/>
      <point x="-58" y="-140"/>
      <point x="-58" y="-195" type="curve" smooth="yes"/>
      <point x="-58" y="-231"/>
      <point x="-45" y="-252"/>
    </contour>
    <contour>
      <point x="264" y="-15" type="curve" smooth="yes"/>
      <point x="393" y="-15"/>
      <point x="477" y="78"/>
      <point x="477" y="188" type="curve" smooth="yes"/>
      <point x="477" y="268"/>
      <point x="424" y="319"/>
      <point x="352" y="319" type="curve" smooth="yes"/>
      <point x="254" y="319"/>
      <point x="188" y="244"/>
      <point x="188" y="139" type="curve" smooth="yes"/>
      <point x="188" y="95"/>
      <point x="201" y="69"/>
      <point x="202" y="66" type="curve"/>
      <point x="183" y="49" type="line"/>
      <point x="252" y="40" type="line"/>
      <point x="243" y="60"/>
      <point x="236" y="101"/>
      <point x="236" y="132" type="curve" smooth="yes"/>
      <point x="236" y="201"/>
      <point x="273" y="252"/>
      <point x="328" y="252" type="curve" smooth="yes"/>
      <point x="359" y="252"/>
      <point x="379" y="226"/>
      <point x="379" y="183" type="curve" smooth="yes"/>
      <point x="379" y="101"/>
      <point x="319" y="58"/>
      <point x="244" y="57" type="curve"/>
      <point x="202" y="63" type="line"/>
      <point x="151" y="82"/>
      <point x="121" y="138"/>
      <point x="121" y="202" type="curve" smooth="yes"/>
      <point x="121" y="352"/>
      <point x="264" y="467"/>
      <point x="416" y="467" type="curve" smooth="yes"/>
      <point x="545" y="467"/>
      <point x="614" y="392"/>
      <point x="614" y="271" type="curve" smooth="yes"/>
      <point x="614" y="173"/>
      <point x="568" y="95"/>
      <point x="475" y="5" type="curve"/>
      <point x="476" y="0" type="line"/>
      <point x="829" y="0" type="line"/>
      <point x="838" y="49" type="line"/>
      <point x="631" y="49" type="line"/>
      <point x="689" y="115"/>
      <point x="719" y="185"/>
      <point x="719" y="269" type="curve" smooth="yes"/>
      <point x="719" y="428"/>
      <point x="610" y="534"/>
      <point x="431" y="534" type="curve" smooth="yes"/>
      <point x="225" y="534"/>
      <point x="62" y="384"/>
      <point x="62" y="201" type="curve" smooth="yes"/>
      <point x="62" y="68"/>
      <point x="148" y="-15"/>
    </contour>
  </outline>
</glyph>
<glyph name="t.Hii" format="2">
  <advance width="1569"/>
  <outline>
    <contour>
      <point x="-17" y="-252" type="curve" smooth="yes"/>
      <point x="10" y="-252"/>
      <point x="31" y="-233"/>
      <point x="40" y="-189" type="curve" smooth="yes"/>
      <point x="48" y="-149"/>
      <point x="61" y="-132"/>
      <point x="106" y="-132" type="curve" smooth="yes"/>
      <point x="1082" y="-132" type="line" smooth="yes"/>
      <point x="1333" y="-132"/>
      <point x="1500" y="33"/>
      <point x="1500" y="280" type="curve" smooth="yes"/>
      <point x="1500" y="400"/>
      <point x="1451" y="475"/>
      <point x="1380" y="516" type="curve" smooth="yes"/>
      <point x="1329" y="545"/>
      <point x="1301" y="583"/>
      <point x="1301" y="648" type="curve" smooth="yes"/>
      <point x="1301" y="744"/>
      <point x="1378" y="803"/>
      <point x="1471" y="803" type="curve"/>
      <point x="1517" y="797" type="line"/>
      <point x="1565" y="790"/>
      <point x="1582" y="750"/>
      <point x="1582" y="712" type="curve" smooth="yes"/>
      <point x="1582" y="656"/>
      <point x="1545" y="631"/>
      <point x="1513" y="631" type="curve" smooth="yes"/>
      <point x="1481" y="631"/>
      <point x="1457" y="656"/>
      <point x="1457" y="691" type="curve" smooth="yes"/>
      <point x="1457" y="729"/>
      <point x="1490" y="784"/>
      <point x="1549" y="803" type="curve"/>
      <point x="1463" y="825" type="line"/>
      <point x="1470" y="801" type="line"/>
      <point x="1421" y="768"/>
      <point x="1402" y="720"/>
      <point x="1402" y="682" type="curve" smooth="yes"/>
      <point x="1402" y="625"/>
      <point x="1443" y="573"/>
      <point x="1518" y="573" type="curve" smooth="yes"/>
      <point x="1599" y="573"/>
      <point x="1662" y="635"/>
      <point x="1662" y="715" type="curve" smooth="yes"/>
      <point x="1662" y="802"/>
      <point x="1587" y="858"/>
      <point x="1479" y="858" type="curve" smooth="yes"/>
      <point x="1340" y="858"/>
      <point x="1241" y="760"/>
      <point x="1241" y="650" type="curve" smooth="yes"/>
      <point x="1241" y="603"/>
      <point x="1261" y="561"/>
      <point x="1290" y="537" type="curve"/>
      <point x="1290" y="507" type="line"/>
      <point x="1307" y="534" type="line"/>
      <point x="1232" y="537"/>
      <point x="1169" y="505"/>
      <point x="1139" y="450" type="curve"/>
      <point x="1135" y="450" type="line"/>
      <point x="1121" y="505"/>
      <point x="1082" y="534"/>
      <point x="1012" y="534" type="curve" smooth="yes"/>
      <point x="931" y="534"/>
      <point x="876" y="486"/>
      <point x="859" y="400" type="curve" smooth="yes"/>
      <point x="782" y="0" type="line"/>
      <point x="845" y="0" type="line"/>
      <point x="923" y="403" type="line" smooth="yes"/>
      <point x="933" y="455"/>
      <point x="967" y="484"/>
      <point x="1003" y="484" type="curve" smooth="yes"/>
      <point x="1058" y="484"/>
      <point x="1077" y="435"/>
      <point x="1065" y="371" type="curve" smooth="yes"/>
      <point x="993" y="0" type="line"/>
      <point x="1095" y="0" type="line"/>
      <point x="1165" y="359" type="line" smooth="yes"/>
      <point x="1182" y="447"/>
      <point x="1237" y="484"/>
      <point x="1289" y="484" type="curve" smooth="yes"/>
      <point x="1366" y="484"/>
      <point x="1396" y="420"/>
      <point x="1396" y="279" type="curve" smooth="yes"/>
      <point x="1396" y="62"/>
      <point x="1268" y="-83"/>
      <point x="1076" y="-83" type="curve" smooth="yes"/>
      <point x="106" y="-83" type="line" smooth="yes"/>
      <point x="-6" y="-83"/>
      <point x="-58" y="-140"/>
      <point x="-58" y="-195" type="curve" smooth="yes"/>
      <point x="-58" y="-231"/>
      <point x="-45" y="-252"/>
    </contour>
    <contour>
      <point x="264" y="-15" type="curve" smooth="yes"/>
      <point x="393" y="-15"/>
      <point x="477" y="78"/>
      <point x="477" y="188" type="curve" smooth="yes"/>
      <point x="477" y="268"/>
      <point x="424" y="319"/>
      <point x="352" y="319" type="curve" smooth="yes"/>
      <point x="254" y="319"/>
      <point x="188" y="244"/>
      <point x="188" y="139" type="curve" smooth="yes"/>
      <point x="188" y="95"/>
      <point x="201" y="69"/>
      <point x="202" y="66" type="curve"/>
      <point x="183" y="49" type="line"/>
      <point x="252" y="40" type="line"/>
      <point x="243" y="60"/>
      <point x="236" y="101"/>
      <point x="236" y="132" type="curve" smooth="yes"/>
      <point x="236" y="201"/>
      <point x="273" y="252"/>
      <point x="328" y="252" type="curve" smooth="yes"/>
      <point x="359" y="252"/>
      <point x="379" y="226"/>
      <point x="379" y="183" type="curve" smooth="yes"/>
      <point x="379" y="101"/>
      <point x="319" y="58"/>
      <point x="244" y="57" type="curve"/>
      <point x="202" y="63" type="line"/>
      <point x="151" y="82"/>
      <point x="121" y="138"/>
      <point x="121" y="202" type="curve" smooth="yes"/>
      <point x="121" y="352"/>
      <point x="264" y="467"/>
      <point x="416" y="467" type="curve" smooth="yes"/>
      <point x="545" y="467"/>
      <point x="614" y="392"/>
      <point x="614" y="271" type="curve" smooth="yes"/>
      <point x="614" y="173"/>
      <point x="568" y="95"/>
      <point x="475" y="5" type="curve"/>
      <point x="476" y="0" type="line"/>
      <point x="829" y="0" type="line"/>
      <point x="838" y="49" type="line"/>
      <point x="631" y="49" type="line"/>
      <point x="689" y="115"/>
      <point x="719" y="185"/>
      <point x="719" y="269" type="curve" smooth="yes"/>
      <point x="719" y="428"/>
      <point x="610" y="534"/>
      <point x="431" y="534" type="curve" smooth="yes"/>
      <point x="225" y="534"/>
      <point x="62" y="384"/>
      <point x="62" y="201" type="curve" smooth="yes"/>
      <point x="62" y="68"/>
      <point x="148" y="-15"/>
    </contour>
  </outline>
</glyph>
<glyph name="t.Jii" format="2">
  <advance width="972"/>
  <outline>
    <contour>
      <point x="180" y="-292" type="curve" smooth="yes"/>
      <point x="293" y="-292"/>
      <point x="358" y="-231"/>
      <point x="444" y="-147" type="curve" smooth="yes"/>
      <point x="543" y="-50"/>
      <point x="601" y="-14"/>
      <point x="655" y="-14" type="curve" smooth="yes"/>
      <point x="719" y="-14"/>
      <point x="750" y="-55"/>
      <point x="750" y="-114" type="curve" smooth="yes"/>
      <point x="750" y="-191"/>
      <point x="695" y="-241"/>
      <point x="612" y="-241" type="curve" smooth="yes"/>
      <point x="573" y="-241"/>
      <point x="526" y="-227"/>
      <point x="492" y="-201" type="curve"/>
      <point x="461" y="-243" type="line"/>
      <point x="498" y="-274"/>
      <point x="557" y="-292"/>
      <point x="618" y="-292" type="curve" smooth="yes"/>
      <point x="749" y="-292"/>
      <point x="842" y="-217"/>
      <point x="842" y="-113" type="curve" smooth="yes"/>
      <point x="842" y="-21"/>
      <point x="770" y="36"/>
      <point x="670" y="36" type="curve" smooth="yes"/>
      <point x="592" y="36"/>
      <point x="522" y="-4"/>
      <point x="406" y="-113" type="curve" smooth="yes"/>
      <point x="337" y="-178"/>
      <point x="279" y="-244"/>
      <point x="199" y="-244" type="curve" smooth="yes"/>
      <point x="128" y="-244"/>
      <point x="93" y="-192"/>
      <point x="93" y="-120" type="curve" smooth="yes"/>
      <point x="93" y="35"/>
      <point x="246" y="51"/>
      <point x="301" y="57" type="curve" smooth="yes"/>
      <point x="523" y="81" type="line" smooth="yes"/>
      <point x="638" y="93"/>
      <point x="927" y="133"/>
      <point x="927" y="370" type="curve" smooth="yes"/>
      <point x="927" y="451"/>
      <point x="879" y="498"/>
      <point x="812" y="526" type="curve" smooth="yes"/>
      <point x="764" y="546"/>
      <point x="714" y="580"/>
      <point x="714" y="656" type="curve" smooth="yes"/>
      <point x="714" y="742"/>
      <point x="790" y="803"/>
      <point x="881" y="803" type="curve"/>
      <point x="927" y="797" type="line"/>
      <point x="975" y="790"/>
      <point x="992" y="750"/>
      <point x="992" y="712" type="curve" smooth="yes"/>
      <point x="992" y="656"/>
      <point x="955" y="631"/>
      <point x="923" y="631" type="curve" smooth="yes"/>
      <point x="891" y="631"/>
      <point x="867" y="656"/>
      <point x="867" y="691" type="curve" smooth="yes"/>
      <point x="867" y="729"/>
      <point x="900" y="784"/>
      <point x="959" y="803" type="curve"/>
      <point x="873" y="825" type="line"/>
      <point x="880" y="801" type="line"/>
      <point x="831" y="768"/>
      <point x="812" y="720"/>
      <point x="812" y="682" type="curve" smooth="yes"/>
      <point x="812" y="625"/>
      <point x="853" y="573"/>
      <point x="928" y="573" type="curve" smooth="yes"/>
      <point x="1009" y="573"/>
      <point x="1072" y="635"/>
      <point x="1072" y="715" type="curve" smooth="yes"/>
      <point x="1072" y="802"/>
      <point x="997" y="858"/>
      <point x="891" y="858" type="curve" smooth="yes"/>
      <point x="750" y="858"/>
      <point x="653" y="759"/>
      <point x="653" y="656" type="curve" smooth="yes"/>
      <point x="653" y="597"/>
      <point x="688" y="555"/>
      <point x="724" y="533" type="curve"/>
      <point x="716" y="503" type="line"/>
      <point x="737" y="531" type="line"/>
      <point x="660" y="526"/>
      <point x="598" y="487"/>
      <point x="563" y="416" type="curve"/>
      <point x="557" y="416" type="line"/>
      <point x="537" y="484"/>
      <point x="478" y="534"/>
      <point x="347" y="534" type="curve" smooth="yes"/>
      <point x="191" y="534"/>
      <point x="83" y="443"/>
      <point x="83" y="320" type="curve" smooth="yes"/>
      <point x="83" y="230"/>
      <point x="149" y="166"/>
      <point x="234" y="166" type="curve" smooth="yes"/>
      <point x="330" y="166"/>
      <point x="403" y="227"/>
      <point x="403" y="320" type="curve" smooth="yes"/>
      <point x="403" y="378"/>
      <point x="364" y="417"/>
      <point x="304" y="417" type="curve" smooth="yes"/>
      <point x="239" y="417"/>
      <point x="185" y="369"/>
      <point x="185" y="283" type="curve" smooth="yes"/>
      <point x="185" y="263"/>
      <point x="191" y="240"/>
      <point x="200" y="226" type="curve"/>
      <point x="191" y="214" type="line"/>
      <point x="242" y="210" type="line"/>
      <point x="231" y="239"/>
      <point x="228" y="253"/>
      <point x="228" y="281" type="curve" smooth="yes"/>
      <point x="228" y="331"/>
      <point x="251" y="360"/>
      <point x="289" y="360" type="curve" smooth="yes"/>
      <point x="311" y="360"/>
      <point x="326" y="341"/>
      <point x="326" y="313" type="curve" smooth="yes"/>
      <point x="326" y="251"/>
      <point x="281" y="218"/>
      <point x="228" y="218" type="curve" smooth="yes"/>
      <point x="165" y="218"/>
      <point x="141" y="268"/>
      <point x="141" y="324" type="curve" smooth="yes"/>
      <point x="141" y="419"/>
      <point x="217" y="489"/>
      <point x="333" y="489" type="curve" smooth="yes"/>
      <point x="448" y="489"/>
      <point x="499" y="420"/>
      <point x="475" y="297" type="curve" smooth="yes"/>
      <point x="456" y="198" type="line"/>
      <point x="559" y="198" type="line"/>
      <point x="581" y="313" type="line" smooth="yes"/>
      <point x="604" y="432"/>
      <point x="663" y="484"/>
      <point x="738" y="484" type="curve" smooth="yes"/>
      <point x="792" y="484"/>
      <point x="823" y="439"/>
      <point x="823" y="369" type="curve" smooth="yes"/>
      <point x="823" y="167"/>
      <point x="645" y="141"/>
      <point x="522" y="128" type="curve" smooth="yes"/>
      <point x="288" y="103" type="line" smooth="yes"/>
      <point x="84" y="81"/>
      <point x="-12" y="-2"/>
      <point x="-12" y="-121" type="curve" smooth="yes"/>
      <point x="-12" y="-220"/>
      <point x="56" y="-292"/>
    </contour>
  </outline>
</glyph>
